<?xml version="1.0" encoding="utf-8"?>
<!-- Generator: Adobe Illustrator 15.0.2, SVG Export Plug-In  -->
<!DOCTYPE svg PUBLIC "-//W3C//DTD SVG 1.1//EN" "http://www.w3.org/Graphics/SVG/1.1/DTD/svg11.dtd" [
	<!ENTITY ns_flows "http://ns.adobe.com/Flows/1.0/">
]>
<svg version="1.1"
	 xmlns="http://www.w3.org/2000/svg" xmlns:xlink="http://www.w3.org/1999/xlink" xmlns:a="http://ns.adobe.com/AdobeSVGViewerExtensions/3.0/"
	 x="0px" y="0px" width="300px" height="300px" viewBox="-44 -57 300 300" enable-background="new -44 -57 300 300"
	 xml:space="preserve">
<defs>
</defs>
<path fill="#42210B" d="M121.641,0H85.382C79.661,0,74,5.373,74,12v22c0,6.627,5.661,12,11.382,12h36.258
	C127.361,46,132,40.627,132,34V12C132,5.373,127.361,0,121.641,0z M125,30H82V12h43V30z"/>
<path fill="#F7931E" d="M204,164.995c0,6.396-5.653,12.005-12.106,12.005H13.686C7.232,177,2,171.392,2,164.995V37.583
	C2,31.186,7.232,26,13.686,26h178.208C198.347,26,204,31.186,204,37.583V164.995z"/>
<rect x="149" y="23" fill="#8C6239" width="14" height="156"/>
<rect x="43" y="24" fill="#8C6239" width="14" height="156"/>
<path fill="#42210B" d="M19.5,27.75c0-1.296-0.18-2.548-0.484-3.75h-7.33C5.232,24,0,29.186,0,35.583v6.805
	C1.351,42.779,2.773,43,4.25,43C12.672,43,19.5,36.172,19.5,27.75z"/>
<path fill="#42210B" d="M192.875,22.75c-1.297,0-2.875,0.18-3.875,0.484v7.33C189,37.018,194.436,42,200.833,42h6.805
	c0.392-1,0.55-2.648,0.55-4.125C208.188,29.453,201.297,22.75,192.875,22.75z"/>
<path fill="#42210B" d="M204.976,169.185c0.197-1.281,0.26-2.869,0.11-3.903l-7.245-1.113c-6.379-0.979-12.129,3.637-13.1,9.96
	l-1.033,6.726c0.929,0.539,2.534,0.945,3.993,1.17C196.025,183.302,203.697,177.509,204.976,169.185z"/>
<path fill="#42210B" d="M3.875,160.75c-1.297,0-2.875,0.18-3.875,0.484v7.33C0,175.018,5.436,180,11.833,180h6.805
	c0.392-1,0.55-2.648,0.55-4.125C19.188,167.453,12.297,160.75,3.875,160.75z"/>
</svg>
