<?xml version="1.0" encoding="UTF-8" standalone="no"?>
<svg width="550px" height="103px" viewBox="0 0 550 103" version="1.1" xmlns="http://www.w3.org/2000/svg" xmlns:xlink="http://www.w3.org/1999/xlink">
    <!-- Generator: Sketch 3.7.2 (28276) - http://www.bohemiancoding.com/sketch -->
    <title>Group 18</title>
    <desc>Created with Sketch.</desc>
    <defs></defs>
    <g id="Page-1" stroke="none" stroke-width="1" fill="none" fill-rule="evenodd">
        <g id="Desktop-HD" transform="translate(-84.000000, -1024.000000)">
            <g id="Group-18" transform="translate(84.000000, 1024.000000)">
                <g id="Group-15">
                    <polygon id="Rectangle-18" fill="#87CAB9" transform="translate(499.000000, 57.500000) scale(-1, 1) translate(-499.000000, -57.500000) " points="474.777879 57.5 448 12 550 12 550 103 448 103"></polygon>
                    <polygon id="Rectangle-18" fill="#87CAB9" points="26.7778788 57.5 0 12 102 12 102 103 0 103"></polygon>
                    <polygon id="Rectangle-21" fill="#D8D8D8" points="39.5 0 102.472343 11.8191195 102.472343 102.819119 39.5 91"></polygon>
                    <polygon id="Rectangle-21" fill="#D8D8D8" transform="translate(478.986172, 51.409560) scale(-1, 1) translate(-478.986172, -51.409560) " points="447.5 0 510.472343 11.8191195 510.472343 102.819119 447.5 91"></polygon>
                    <rect id="Rectangle-18" fill="#97E3D0" x="39.5" y="0" width="471" height="91"></rect>
                </g>
                <g id="Group-17" transform="translate(138.000000, 25.000000)" fill="#FFFFFF">
                    <path d="M133.240002,13.0499956 C133.240002,24.8199975 155.130005,25.6999977 155.130005,35.8749993 C155.130005,41.2650002 150.015004,47.0675012 140.252503,47.0675012 C129.720001,47.0675012 126.255,40.165 126.255,34.3349991 C126.255,28.8899982 129.775001,23.9949974 134.340002,23.9949974 C136.375002,23.9949974 138.905002,25.0949976 138.905002,27.954998 C138.905002,30.8699985 136.815002,33.0699989 134.175002,33.1249989 C133.185002,36.4799994 135.880002,39.0099998 139.015002,39.0099998 C143.360003,39.0099998 146.165004,35.9299993 146.165004,32.2449987 C146.165004,26.6899978 140.445003,23.5549973 135.165002,23.5549973 C128.785001,23.5549973 124,28.3399981 124,34.4999991 C124,40.9350002 129.280001,47.2050012 140.060003,47.2050012 C152.545005,47.2050012 163.050006,38.8449998 163.050006,28.8349982 C163.050006,14.8649959 142.535003,15.524996 142.535003,7.10999461 C142.535003,3.31499399 146.082504,0.64749355 149.795004,0.64749355 C152.985005,0.64749355 155.295005,2.59999387 155.295005,6.28499447 C155.295005,8.31999481 154.140005,10.1349951 151.940005,10.5749952 C151.115004,13.8749957 153.810005,15.854996 156.560005,15.854996 C159.750006,15.854996 163.325006,13.0499956 163.325006,8.8699949 C163.325006,3.20499397 157.440005,0.454993518 150.895004,0.454993518 C142.590003,0.454993518 133.240002,4.85499424 133.240002,13.0499956 L133.240002,13.0499956 Z M179.275003,11.2899953 L183.070003,11.2899953 L183.097503,11.1249953 L179.302503,11.1249953 L181.035003,0.674993554 L180.870003,0.674993554 C179.275003,9.28249497 175.700002,11.0699953 167.807501,11.1249953 L167.065001,11.1249953 L167.037501,11.2899953 L169.375001,11.2899953 L166.2125,31.5299986 C165.14,38.4324997 168.935001,40.4125001 173.472502,40.4125001 C174.792502,40.4125001 176.167502,40.2475 177.487502,40 L177.597502,39.89 C175.012502,39.4499999 175.782502,32.7399988 176.552502,28.009998 L179.275003,11.2899953 Z M199.515003,10.7399952 C189.642502,10.7399952 181.475,18.4674965 181.475,28.009998 C181.475,35.2699992 186.975001,40.3850001 194.812503,40.3850001 C204.657504,40.3850001 212.880006,32.2724987 212.880006,23.1149972 C212.880006,15.827496 207.407505,10.7399952 199.515003,10.7399952 L199.515003,10.7399952 Z M194.840003,40.1925 C192.420002,40.1925 191.512502,37.8274996 191.512502,34.5824991 C191.512502,28.6699981 193.437502,10.9324952 199.487503,10.9324952 C202.072504,10.9324952 202.842504,13.3524956 202.842504,16.6249962 C202.842504,23.0874972 200.917504,40.1925 194.840003,40.1925 L194.840003,40.1925 Z M236.915004,14.7274959 C236.915004,17.5049963 234.880004,19.2099966 232.845003,19.2099966 C232.515003,22.5099971 234.880004,24.0499974 237.355004,24.0499974 C242.250005,24.0499974 245.000005,20.3649968 245.000005,16.6799962 C245.000005,13.3799956 242.745005,10.2999951 238.125004,10.2999951 C233.120003,10.2999951 228.885003,13.9299957 225.117502,28.1199981 L224.952502,28.064998 L227.895003,15.634996 C228.747503,11.9499954 227.290002,10.7399952 224.155002,10.7399952 C221.515002,10.7399952 217.665001,11.9499954 215.740001,12.8849956 L215.822501,12.9674956 C217.610001,12.2799955 218.435001,12.8849956 218.160001,14.4799958 L215.08,31.8049987 C213.87,38.5974998 216.867501,40.4400001 221.212501,40.4400001 C222.752502,40.4400001 223.440002,40.3025 224.897502,40 L225.007502,39.89 C223.000002,39.0649998 224.595002,32.0249987 225.447502,28.2299981 C227.317502,19.9524967 231.332503,11.8949954 234.742504,11.8949954 C236.365004,11.8949954 236.915004,13.4624957 236.915004,14.7274959 L236.915004,14.7274959 Z M274.782505,19.3749966 C275.855006,12.5549955 274.040005,10.7399952 269.695004,10.7399952 C268.375004,10.7399952 266.560004,10.7674952 265.047504,10.9599952 L264.937504,11.0699953 C266.945004,11.8949954 265.432504,19.1549966 264.497504,22.9499972 C262.462503,31.1449985 258.667503,38.0474997 255.835002,38.0474997 C254.377502,38.0474997 253.937502,36.2324994 254.432502,33.2899989 L257.347502,15.634996 C257.952503,11.8949954 256.852502,10.7399952 253.717502,10.7399952 C251.077501,10.7399952 247.227501,11.9499954 245.302501,12.8849956 L245.385001,12.9674956 C247.172501,12.2799955 247.997501,12.8849956 247.722501,14.4799958 L244.9725,30.9799985 C244.34,34.7199991 244.3675,40.4400001 250.995001,40.4400001 C255.945002,40.4400001 260.977503,37.2224995 264.690004,23.0599972 L264.855004,23.1149972 L261.170003,43.5750006 C260.180003,49.0475015 258.832503,52.182502 254.597502,52.182502 C251.325001,52.182502 250.335001,50.2850017 250.335001,48.7725014 C250.335001,47.3150012 251.270001,45.857501 253.415002,45.6100009 C253.745002,42.6400004 251.270001,41.0450002 249.015001,41.0450002 C245.880001,41.0450002 243.405,43.3000005 243.405,46.380001 C243.405,51.3850019 249.730001,52.375002 254.295002,52.375002 C264.745004,52.375002 270.437505,47.1500012 271.620005,39.6149999 L274.782505,19.3749966 Z" id="Story"></path>
                    <g id="Group-16" transform="translate(0.000000, 22.000000)">
                        <path d="M6.36250119,6.94999786 L8.08750147,6.94999786 L8.10000147,6.87499785 L6.37500119,6.87499785 L7.16250132,2.12499707 L7.08750131,2.12499707 C6.36250119,6.03749771 4.73750092,6.84999784 1.15000033,6.87499785 L0.812500279,6.87499785 L0.800000277,6.94999786 L1.86250045,6.94999786 L0.425000215,16.1499994 C-0.0624998648,19.2874999 1.66250042,20.1875 3.72500076,20.1875 C4.32500085,20.1875 4.95000096,20.1125 5.55000106,20 L5.60000106,19.95 C4.42500087,19.75 4.77500093,16.6999995 5.12500099,14.5499991 L6.36250119,6.94999786 Z M14.1875013,2.47499713 C14.4625013,0.774996849 13.9125012,0.249996763 12.487501,0.249996763 C11.2875008,0.249996763 9.53750052,0.799996853 8.66250038,1.22499692 L8.70000038,1.26249693 C9.51250052,0.949996877 9.87500058,1.22499692 9.76250056,1.94999704 L7.41250017,16.2749994 C6.90000009,19.3749999 7.75000023,20.2 9.72500055,20.2 C10.3250006,20.2 11.0375008,20.1125 11.8375009,20 L11.8875009,19.95 C10.9750008,19.5749999 11.6625009,16.3749994 12.0875009,14.6499991 C13.0125011,10.9249985 14.8625014,7.787498 16.1500016,7.787498 C16.8125017,7.787498 16.8625017,8.61249813 16.6625017,9.94999835 L15.6625015,16.1499994 C15.1625014,19.2874999 16.9000017,20.1875 18.9625021,20.1875 C19.5625022,20.1875 20.1875023,20.1125 20.7875024,20 L20.8375024,19.95 C19.6625022,19.75 19.9875022,16.6999995 20.3625023,14.5499991 L20.9625024,10.9999985 C21.2500024,9.29999825 21.3625025,6.69999782 18.350002,6.69999782 C16.1000016,6.69999782 13.6875012,8.16249806 12.0000009,14.5999991 L11.9250009,14.5749991 L14.1875013,2.47499713 Z M24.9375006,5.72499766 C27.662501,5.64999765 29.7625014,4.09999739 29.7625014,2.14999707 C29.7625014,0.749996845 28.6375012,0.17499675 27.6875011,0.17499675 C26.6625009,0.17499675 25.5125007,0.874996865 24.9125006,1.97499705 C25.6625007,2.9249972 25.4500007,4.87499752 24.9250006,5.69999766 L24.9375006,5.72499766 Z M28.1625011,8.92499818 C28.4375012,7.22499791 27.9375011,6.69999782 26.5125009,6.69999782 C25.3125007,6.69999782 23.5625004,7.24999791 22.6875002,7.67499798 L22.7250002,7.71249799 C23.5375004,7.39999793 23.9000004,7.67499798 23.7875004,8.3999981 L22.4875002,16.2749994 C21.9750001,19.3499999 23.5625004,20.2 25.4375007,20.2 C26.0125008,20.2 26.6125009,20.125 27.187501,20 L27.212501,19.95 C26.3625008,19.5249999 26.9250009,16.4249994 27.212501,14.6749991 L28.1625011,8.92499818 Z M33.5750009,20.175 C37.3000015,20.175 41.4625022,18.5499998 41.4625022,15.2124992 C41.4625022,10.6374985 33.7875009,11.5249986 33.7875009,8.76249816 C33.7875009,7.73749799 34.8500011,6.78749783 36.7625014,6.78749783 C38.2250016,6.78749783 39.0625018,7.34999793 39.0625018,8.19999807 C39.0625018,8.82499817 38.5875017,9.34999825 38.0375016,9.54999829 C37.9125016,10.6499985 38.7125017,11.2249986 39.5625019,11.2249986 C40.7875021,11.2249986 41.6375022,10.1999984 41.6375022,9.07499821 C41.6375022,7.1749979 38.9500018,6.69999782 37.0125014,6.69999782 C33.7375009,6.69999782 29.9375003,8.04999804 29.9375003,11.4999986 C29.9375003,15.7374993 37.7375016,15.4749993 37.7375016,18.1374997 C37.7375016,19.6124999 35.3500012,20.0875 33.8250009,20.0875 C31.9875006,20.0875 31.5875005,19.3874999 31.5875005,18.6249998 C31.5875005,17.8999997 32.0375006,17.2249995 32.7625007,16.9749995 C32.9125008,15.7499993 31.9375006,15.1499992 30.9625004,15.1499992 C29.5875002,15.1499992 28.6375001,16.2999994 28.6375001,17.5499996 C28.6375001,19.7 31.5625005,20.175 33.5750009,20.175 L33.5750009,20.175 Z M50.3875006,5.72499766 C53.112501,5.64999765 55.2125014,4.09999739 55.2125014,2.14999707 C55.2125014,0.749996845 54.0875012,0.17499675 53.1375011,0.17499675 C52.1125009,0.17499675 50.9625007,0.874996865 50.3625006,1.97499705 C51.1125007,2.9249972 50.9000007,4.87499752 50.3750006,5.69999766 L50.3875006,5.72499766 Z M53.6125011,8.92499818 C53.8875012,7.22499791 53.3875011,6.69999782 51.9625009,6.69999782 C50.7625007,6.69999782 49.0125004,7.24999791 48.1375002,7.67499798 L48.1750002,7.71249799 C48.9875004,7.39999793 49.3500004,7.67499798 49.2375004,8.3999981 L47.9375002,16.2749994 C47.4250001,19.3499999 49.0125004,20.2 50.8875007,20.2 C51.4625008,20.2 52.0625009,20.125 52.637501,20 L52.662501,19.95 C51.8125008,19.5249999 52.3750009,16.4249994 52.662501,14.6749991 L53.6125011,8.92499818 Z M59.0250009,20.175 C62.7500015,20.175 66.9125022,18.5499998 66.9125022,15.2124992 C66.9125022,10.6374985 59.2375009,11.5249986 59.2375009,8.76249816 C59.2375009,7.73749799 60.3000011,6.78749783 62.2125014,6.78749783 C63.6750016,6.78749783 64.5125018,7.34999793 64.5125018,8.19999807 C64.5125018,8.82499817 64.0375017,9.34999825 63.4875016,9.54999829 C63.3625016,10.6499985 64.1625017,11.2249986 65.0125019,11.2249986 C66.2375021,11.2249986 67.0875022,10.1999984 67.0875022,9.07499821 C67.0875022,7.1749979 64.4000018,6.69999782 62.4625014,6.69999782 C59.1875009,6.69999782 55.3875003,8.04999804 55.3875003,11.4999986 C55.3875003,15.7374993 63.1875016,15.4749993 63.1875016,18.1374997 C63.1875016,19.6124999 60.8000012,20.0875 59.2750009,20.0875 C57.4375006,20.0875 57.0375005,19.3874999 57.0375005,18.6249998 C57.0375005,17.8999997 57.4875006,17.2249995 58.2125007,16.9749995 C58.3625008,15.7499993 57.3875006,15.1499992 56.4125004,15.1499992 C55.0375002,15.1499992 54.0875001,16.2999994 54.0875001,17.5499996 C54.0875001,19.7 57.0125005,20.175 59.0250009,20.175 L59.0250009,20.175 Z M81.3625015,6.69999782 C76.8750008,6.69999782 73.1625002,10.2124984 73.1625002,14.5499991 C73.1625002,17.8499996 75.6625006,20.175 79.2250012,20.175 C83.7000019,20.175 87.4375025,16.4874994 87.4375025,12.3249987 C87.4375025,9.0124982 84.9500021,6.69999782 81.3625015,6.69999782 L81.3625015,6.69999782 Z M79.2375012,20.0875 C78.137501,20.0875 77.7250009,19.0124998 77.7250009,17.5374996 C77.7250009,14.8499992 78.6000011,6.78749783 81.3500015,6.78749783 C82.5250017,6.78749783 82.8750018,7.88749801 82.8750018,9.37499826 C82.8750018,12.3124987 82.0000016,20.0875 79.2375012,20.0875 L79.2375012,20.0875 Z M94.0500011,8.92499818 C94.3250012,7.22499791 93.8250011,6.69999782 92.4000009,6.69999782 C91.2000007,6.69999782 89.4500004,7.24999791 88.5750002,7.67499798 L88.6125002,7.71249799 C89.4250004,7.39999793 89.8000004,7.67499798 89.6750004,8.3999981 L88.4250002,15.8999993 C88.1375002,17.5999996 88.1500002,20.2 91.1625007,20.2 C93.412501,20.2 95.7000014,18.7374998 97.3875017,12.2999987 L97.4625017,12.3249987 L96.6625016,16.1499994 C96.0000014,19.2999999 97.8125017,20.175 99.9375021,20.175 C100.537502,20.175 101.137502,20.125 101.712502,20 L101.750002,19.95 C100.462502,19.9875 100.887502,16.6999995 101.275002,14.5499991 L101.975002,10.6249985 C102.525003,7.53749796 101.637502,6.69999782 99.662502,6.69999782 C99.0625019,6.69999782 98.2375018,6.71249782 97.5500017,6.79999784 L97.5000017,6.84999784 C98.4125018,7.22499791 97.7250017,10.5249984 97.3000017,12.2499987 C96.3750015,15.9749993 94.6500012,19.1124999 93.362501,19.1124999 C92.7000009,19.1124999 92.5000009,18.2874997 92.7250009,16.9499995 L94.0500011,8.92499818 Z M113.462502,8.51249812 C113.462502,9.77499832 112.537502,10.5499985 111.612502,10.5499985 C111.462502,12.0499987 112.537502,12.7499988 113.662502,12.7499988 C115.887502,12.7499988 117.137502,11.0749985 117.137502,9.39999826 C117.137502,7.89999802 116.112502,6.49999779 114.012502,6.49999779 C111.737502,6.49999779 109.812501,8.14999806 108.100001,14.5999991 L108.025001,14.5749991 L109.362501,8.92499818 C109.750001,7.24999791 109.087501,6.69999782 107.662501,6.69999782 C106.462501,6.69999782 104.7125,7.24999791 103.8375,7.67499798 L103.875,7.71249799 C104.6875,7.39999793 105.0625,7.67499798 104.9375,8.3999981 L103.5375,16.2749994 C102.9875,19.3624999 104.35,20.2 106.325001,20.2 C107.025001,20.2 107.337501,20.1375 108.000001,20 L108.050001,19.95 C107.137501,19.5749999 107.862501,16.3749994 108.250001,14.6499991 C109.100001,10.8874985 110.925001,7.22499791 112.475002,7.22499791 C113.212502,7.22499791 113.462502,7.93749802 113.462502,8.51249812 L113.462502,8.51249812 Z" id="this-is-our"></path>
                    </g>
                </g>
            </g>
        </g>
    </g>
</svg>