<?xml version="1.0" encoding="UTF-8" standalone="no"?>
<svg width="550px" height="104px" viewBox="0 0 550 104" version="1.1" xmlns="http://www.w3.org/2000/svg" xmlns:xlink="http://www.w3.org/1999/xlink">
    <!-- Generator: Sketch 3.7.2 (28276) - http://www.bohemiancoding.com/sketch -->
    <title>Group 18</title>
    <desc>Created with Sketch.</desc>
    <defs></defs>
    <g id="Page-1" stroke="none" stroke-width="1" fill="none" fill-rule="evenodd">
        <g id="Desktop-HD" transform="translate(-445.000000, -3784.000000)">
            <g id="Group-18" transform="translate(445.000000, 3784.500000)">
                <g id="Group-15">
                    <polygon id="Rectangle-18" fill="#87CAB9" transform="translate(499.000000, 57.500000) scale(-1, 1) translate(-499.000000, -57.500000) " points="474.777879 57.5 448 12 550 12 550 103 448 103"></polygon>
                    <polygon id="Rectangle-18" fill="#87CAB9" points="26.7778788 57.5 0 12 102 12 102 103 0 103"></polygon>
                    <polygon id="Rectangle-21" fill="#D8D8D8" points="39.5 0 102.472343 11.8191195 102.472343 102.819119 39.5 91"></polygon>
                    <polygon id="Rectangle-21" fill="#D8D8D8" transform="translate(478.986172, 51.409560) scale(-1, 1) translate(-478.986172, -51.409560) " points="447.5 0 510.472343 11.8191195 510.472343 102.819119 447.5 91"></polygon>
                    <rect id="Rectangle-18" fill="#97E3D0" x="39.5" y="0" width="471" height="91"></rect>
                </g>
                <g id="Group-17" transform="translate(116.000000, 22.000000)" fill="#FFFFFF">
                    <path d="M145.780007,6.77499373 C146.825007,6.44499368 149.025008,5.45499352 149.025008,3.36499318 C149.025008,1.27499283 147.485007,0.394992689 146.000007,0.394992689 C144.020007,0.394992689 142.205007,2.319993 143.470007,4.68499339 C145.010007,3.74999324 145.945007,4.62999338 145.945007,5.50999353 C145.945007,6.16999364 145.395007,6.88499375 144.185007,6.88499375 C137.640006,6.88499375 130.985005,1.38499285 124.000004,1.38499285 C118.060003,1.38499285 113.825002,5.39999351 113.825002,10.5149943 C113.825002,15.3549951 117.895003,18.4349956 121.965003,18.4349956 C128.400004,18.4349956 132.580005,10.3499943 126.145004,7.43499384 C124.990004,8.91999409 123.450004,9.6349942 121.965003,9.6349942 C120.260003,9.6349942 118.335003,8.75499406 118.335003,6.16999364 C118.335003,3.25499316 121.002503,1.57749288 124.000004,1.57749288 C127.520004,1.57749288 130.957505,2.97999311 134.340005,4.35499334 C137.667506,5.72999356 141.187506,7.21499381 144.790007,7.07749378 L144.790007,7.13249379 C140.445006,7.35249383 131.507505,9.13999412 130.380005,16.3999953 L127.520004,35.0999984 C126.062504,44.6149999 121.745003,49.6200008 114.870002,49.6200008 C107.500001,49.6200008 104.255,45.055 104.255,38.839999 C104.255,33.064998 107.857501,28.6924973 112.505002,28.6924973 C114.815002,28.6924973 116.905002,30.0399975 116.905002,32.927498 C116.905002,35.8149985 114.815002,38.0149989 112.175002,38.0699989 C111.185002,41.4249994 113.880002,43.9549998 117.015002,43.9549998 C121.360003,43.9549998 124.165004,40.8749993 124.165004,37.1899987 C124.165004,31.6349978 118.472503,28.4999973 113.082502,28.4999973 C106.977501,28.4999973 102,32.514998 102,38.949999 C102,46.1550002 106.977501,49.8125008 115.502502,49.8125008 C121.992503,49.8125008 136.540006,47.7225004 138.685006,33.6699981 L141.600006,14.749995 C142.452507,9.30499415 143.937507,7.04999378 146.440007,7.04999378 C149.190008,7.04999378 150.565008,9.85499424 150.565008,13.6499949 C150.565008,20.469996 148.722508,31.0849977 140.582506,29.9574975 L140.555006,30.1499976 C149.135008,31.5249978 162.00501,27.2349971 162.00501,16.1799953 C162.00501,9.41499417 156.725009,6.44499368 148.750008,6.44499368 C147.760008,6.44499368 146.715007,6.5824937 145.780007,6.82999374 L145.780007,6.77499373 Z M168.440001,13.5949949 C174.435002,13.4299948 179.055003,10.0199943 179.055003,5.72999356 C179.055003,2.64999306 176.580003,1.38499285 174.490002,1.38499285 C172.235002,1.38499285 169.705002,2.9249931 168.385001,5.3449935 C170.035002,7.43499384 169.567502,11.7249945 168.412501,13.5399948 L168.440001,13.5949949 Z M175.535002,20.634996 C176.140003,16.8949954 175.040002,15.7399952 171.905002,15.7399952 C169.265001,15.7399952 165.415001,16.9499954 163.490001,17.8849956 L163.572501,17.9674956 C165.360001,17.2799955 166.157501,17.8849956 165.910001,19.4799958 L163.05,36.8049987 C161.9225,43.5699998 165.415001,45.4400001 169.540002,45.4400001 C170.805002,45.4400001 172.125002,45.275 173.390002,45 L173.445002,44.89 C171.575002,43.9549998 172.812502,37.1349987 173.445002,33.2849981 L175.535002,20.634996 Z M177.955,33.7524982 C177.955,41.4524994 183.125001,45.3850001 189.230002,45.3850001 C194.785003,45.3850001 201.110004,42.1399995 205.015005,35.5949985 L204.877505,35.5124984 C202.622504,38.3999989 199.432504,39.7474991 196.517503,39.7474991 C191.622503,39.7474991 188.295002,35.9249985 188.295002,29.9024975 C188.295002,24.8699967 190.632502,15.9324952 196.077503,15.9324952 C198.552504,15.9324952 199.735004,17.8849956 199.735004,19.7549959 C199.735004,21.4599961 198.635004,23.2749964 196.380003,23.8799965 C195.995003,27.1799971 198.250004,28.7199973 200.725004,28.7199973 C204.465005,28.7199973 206.995005,25.6949968 206.995005,22.5599963 C206.995005,17.0599954 200.340004,15.7399952 196.435003,15.7399952 C185.985002,15.7399952 177.955,24.1274966 177.955,33.7524982 L177.955,33.7524982 Z M221.845003,16.2899953 L225.640003,16.2899953 L225.667503,16.1249953 L221.872503,16.1249953 L223.605003,5.67499355 L223.440003,5.67499355 C221.845003,14.282495 218.270002,16.0699953 210.377501,16.1249953 L209.635001,16.1249953 L209.607501,16.2899953 L211.945001,16.2899953 L208.7825,36.5299986 C207.71,43.4324997 211.505001,45.4125001 216.042502,45.4125001 C217.362502,45.4125001 218.737502,45.2475 220.057502,45 L220.167502,44.89 C217.582502,44.4499999 218.352502,37.7399988 219.122502,33.009998 L221.845003,16.2899953 Z M236.942502,20.634996 C237.547503,16.8949954 236.447502,15.7399952 233.312502,15.7399952 C230.672501,15.7399952 226.822501,16.9499954 224.897501,17.8849956 L224.980001,17.9674956 C226.767501,17.2799955 227.592501,17.8849956 227.317501,19.4799958 L224.5675,35.9799985 C223.935,39.7199991 223.9625,45.4400001 230.590001,45.4400001 C235.540002,45.4400001 240.572503,42.2224995 244.285004,28.0599972 L244.450004,28.1149972 L242.690003,36.5299986 C241.232503,43.4599997 245.220004,45.3850001 249.895005,45.3850001 C251.215005,45.3850001 252.535005,45.275 253.800005,45 L253.882505,44.89 C251.050005,44.9725 251.985005,37.7399988 252.837505,33.009998 L254.377505,24.3749966 C255.587506,17.5824955 253.635005,15.7399952 249.290004,15.7399952 C247.970004,15.7399952 246.155004,15.7674952 244.642504,15.9599952 L244.532504,16.0699953 C246.540004,16.8949954 245.027504,24.1549966 244.092504,27.9499972 C242.057503,36.1449985 238.262503,43.0474997 235.430002,43.0474997 C233.972502,43.0474997 233.532502,41.2324994 234.027502,38.2899989 L236.942502,20.634996 Z M279.650004,19.7274959 C279.650004,22.5049963 277.615004,24.2099966 275.580003,24.2099966 C275.250003,27.5099971 277.615004,29.0499974 280.090004,29.0499974 C284.985005,29.0499974 287.735005,25.3649968 287.735005,21.6799962 C287.735005,18.3799956 285.480005,15.2999951 280.860004,15.2999951 C275.855003,15.2999951 271.620003,18.9299957 267.852502,33.1199981 L267.687502,33.064998 L270.630003,20.634996 C271.482503,16.9499954 270.025002,15.7399952 266.890002,15.7399952 C264.250002,15.7399952 260.400001,16.9499954 258.475001,17.8849956 L258.557501,17.9674956 C260.345001,17.2799955 261.170001,17.8849956 260.895001,19.4799958 L257.815,36.8049987 C256.605,43.5974998 259.602501,45.4400001 263.947501,45.4400001 C265.487502,45.4400001 266.175002,45.3025 267.632502,45 L267.742502,44.89 C265.735002,44.0649998 267.330002,37.0249987 268.182502,33.2299981 C270.052502,24.9524967 274.067503,16.8949954 277.477504,16.8949954 C279.100004,16.8949954 279.650004,18.4624957 279.650004,19.7274959 L279.650004,19.7274959 Z M298.157502,27.3449971 L298.130002,27.3999971 C311.660004,30.9749977 316.225005,25.9699969 316.225005,21.8999962 C316.225005,16.7849954 309.955004,15.7399952 305.665003,15.7399952 C295.215002,15.7399952 287.185,24.2099966 287.185,33.6149981 C287.185,40.9849993 291.915001,45.3850001 298.570002,45.3850001 C304.950003,45.3850001 310.780004,41.3149994 314.245005,35.5949985 L314.107505,35.5124984 C311.522504,38.674999 308.277504,39.7474991 305.747503,39.7474991 C300.000002,39.7474991 297.552502,34.8524983 297.552502,29.4349974 C297.552502,23.7974965 300.440003,15.9324952 305.307503,15.9324952 C307.480004,15.9324952 308.360004,17.6099955 308.360004,19.7549959 C308.360004,23.6599965 306.132503,28.3349973 298.157502,27.3449971 L298.157502,27.3449971 Z M326.812502,45.3850001 C335.007503,45.3850001 344.165005,41.8099995 344.165005,34.4674983 C344.165005,24.4024966 327.280002,26.3549969 327.280002,20.2774959 C327.280002,18.0224956 329.617502,15.9324952 333.825003,15.9324952 C337.042504,15.9324952 338.885004,17.1699954 338.885004,19.0399957 C338.885004,20.414996 337.840004,21.5699962 336.630004,22.0099962 C336.355003,24.4299966 338.115004,25.6949968 339.985004,25.6949968 C342.680005,25.6949968 344.550005,23.4399965 344.550005,20.9649961 C344.550005,16.7849954 338.637504,15.7399952 334.375003,15.7399952 C327.170002,15.7399952 318.810001,18.7099957 318.810001,26.2999969 C318.810001,35.6224985 335.970003,35.0449984 335.970003,40.9024993 C335.970003,44.1474999 330.717503,45.1925 327.362502,45.1925 C323.320001,45.1925 322.440001,43.6524998 322.440001,41.9749995 C322.440001,40.3799992 323.430001,38.894999 325.025002,38.3449989 C325.355002,35.6499985 323.210001,34.3299983 321.065001,34.3299983 C318.04,34.3299983 315.95,36.8599987 315.95,39.6099991 C315.95,44.3399999 322.385001,45.3850001 326.812502,45.3850001 L326.812502,45.3850001 Z" id="Pictures"></path>
                    <g id="Group-16" transform="translate(0.000000, 33.000000)">
                        <path d="M5.52500087,14.175 C9.25000148,14.175 13.4125022,12.5499998 13.4125022,9.21249922 C13.4125022,4.63749847 5.73750091,5.52499861 5.73750091,2.76249816 C5.73750091,1.73749799 6.80000108,0.787497834 8.71250139,0.787497834 C10.1750016,0.787497834 11.0125018,1.34999793 11.0125018,2.19999807 C11.0125018,2.82499817 10.5375017,3.34999825 9.9875016,3.54999829 C9.86250158,4.64999847 10.6625017,5.22499856 11.5125019,5.22499856 C12.7375021,5.22499856 13.5875022,4.19999839 13.5875022,3.07499821 C13.5875022,1.1749979 10.9000018,0.69999782 8.96250143,0.69999782 C5.6875009,0.69999782 1.88750027,2.04999804 1.88750027,5.49999861 C1.88750027,9.7374993 9.68750155,9.47499926 9.68750155,12.1374997 C9.68750155,13.6124999 7.30000116,14.0875 5.77500091,14.0875 C3.93750061,14.0875 3.53750055,13.3874999 3.53750055,12.6249998 C3.53750055,11.8999997 3.98750062,11.2249995 4.71250074,10.9749995 C4.86250076,9.7499993 3.8875006,9.14999921 2.91250044,9.14999921 C1.53750022,9.14999921 0.587500061,10.2999994 0.587500061,11.5499996 C0.587500061,13.7 3.51250054,14.175 5.52500087,14.175 L5.52500087,14.175 Z M19.575001,5.97499868 L19.562501,5.99999869 C25.712502,7.62499896 27.7875023,5.34999858 27.7875023,3.49999828 C27.7875023,1.1749979 24.9375019,0.69999782 22.9875015,0.69999782 C18.2375008,0.69999782 14.5875002,4.54999845 14.5875002,8.82499915 C14.5875002,12.1749997 16.7375005,14.175 19.762501,14.175 C22.6625015,14.175 25.3125019,12.3249997 26.8875022,9.7249993 L26.8250022,9.68749929 C25.650002,11.1249995 24.1750017,11.6124996 23.0250015,11.6124996 C20.4125011,11.6124996 19.3000009,9.38749924 19.3000009,6.92499884 C19.3000009,4.36249842 20.6125012,0.787497834 22.8250015,0.787497834 C23.8125017,0.787497834 24.2125017,1.54999796 24.2125017,2.52499812 C24.2125017,4.29999841 23.2000016,6.42499876 19.575001,5.97499868 L19.575001,5.97499868 Z M33.275001,5.97499868 L33.262501,5.99999869 C39.412502,7.62499896 41.4875023,5.34999858 41.4875023,3.49999828 C41.4875023,1.1749979 38.6375019,0.69999782 36.6875015,0.69999782 C31.9375008,0.69999782 28.2875002,4.54999845 28.2875002,8.82499915 C28.2875002,12.1749997 30.4375005,14.175 33.462501,14.175 C36.3625015,14.175 39.0125019,12.3249997 40.5875022,9.7249993 L40.5250022,9.68749929 C39.350002,11.1249995 37.8750017,11.6124996 36.7250015,11.6124996 C34.1125011,11.6124996 33.0000009,9.38749924 33.0000009,6.92499884 C33.0000009,4.36249842 34.3125012,0.787497834 36.5250015,0.787497834 C37.5125017,0.787497834 37.9125017,1.54999796 37.9125017,2.52499812 C37.9125017,4.29999841 36.9000016,6.42499876 33.275001,5.97499868 L33.275001,5.97499868 Z M55.2625015,0.69999782 C50.7750008,0.69999782 47.0625002,4.2124984 47.0625002,8.54999911 C47.0625002,11.8499996 49.5625006,14.175 53.1250012,14.175 C57.6000019,14.175 61.3375025,10.4874994 61.3375025,6.32499874 C61.3375025,3.0124982 58.8500021,0.69999782 55.2625015,0.69999782 L55.2625015,0.69999782 Z M53.1375012,14.0875 C52.037501,14.0875 51.6250009,13.0124998 51.6250009,11.5374996 C51.6250009,8.84999916 52.5000011,0.787497834 55.2500015,0.787497834 C56.4250017,0.787497834 56.7750018,1.88749801 56.7750018,3.37499826 C56.7750018,6.31249874 55.9000016,14.0875 53.1375012,14.0875 L53.1375012,14.0875 Z M67.9500011,2.92499818 C68.2250012,1.22499791 67.7250011,0.69999782 66.3000009,0.69999782 C65.1000007,0.69999782 63.3500004,1.24999791 62.4750002,1.67499798 L62.5125002,1.71249799 C63.3250004,1.39999793 63.7000004,1.67499798 63.5750004,2.3999981 L62.3250002,9.89999933 C62.0375002,11.5999996 62.0500002,14.2 65.0625007,14.2 C67.312501,14.2 69.6000014,12.7374998 71.2875017,6.29999874 L71.3625017,6.32499874 L70.5625016,10.1499994 C69.9000014,13.2999999 71.7125017,14.175 73.8375021,14.175 C74.4375022,14.175 75.0375023,14.125 75.6125024,14 L75.6500024,13.95 C74.3625022,13.9875 74.7875022,10.6999995 75.1750023,8.54999911 L75.8750024,4.62499846 C76.4250025,1.53749796 75.5375024,0.69999782 73.562502,0.69999782 C72.9625019,0.69999782 72.1375018,0.712497822 71.4500017,0.799997836 L71.4000017,0.849997845 C72.3125018,1.22499791 71.6250017,4.52499845 71.2000017,6.24999873 C70.2750015,9.97499934 68.5500012,13.1124999 67.262501,13.1124999 C66.6000009,13.1124999 66.4000009,12.2874997 66.6250009,10.9499995 L67.9500011,2.92499818 Z M87.3625018,2.51249812 C87.3625018,3.77499832 86.4375017,4.54999845 85.5125015,4.54999845 C85.3625015,6.0499987 86.4375017,6.74999881 87.5625019,6.74999881 C89.7875022,6.74999881 91.0375024,5.07499854 91.0375024,3.39999826 C91.0375024,1.89999802 90.0125023,0.499997787 87.9125019,0.499997787 C85.6375015,0.499997787 83.7125012,2.14999806 82.000001,8.59999911 L81.9250009,8.57499911 L83.2625012,2.92499818 C83.6500012,1.24999791 82.9875011,0.69999782 81.5625009,0.69999782 C80.3625007,0.69999782 78.6125004,1.24999791 77.7375003,1.67499798 L77.7750003,1.71249799 C78.5875004,1.39999793 78.9625005,1.67499798 78.8375004,2.3999981 L77.4375002,10.2749994 C76.8875001,13.3624999 78.2500003,14.2 80.2250007,14.2 C80.9250008,14.2 81.2375008,14.1375 81.9000009,14 L81.9500009,13.95 C81.0375008,13.5749999 81.7625009,10.3749994 82.150001,8.64999912 C83.0000011,4.88749851 84.8250014,1.22499791 86.3750017,1.22499791 C87.1125018,1.22499791 87.3625018,1.93749802 87.3625018,2.51249812 L87.3625018,2.51249812 Z" id="see-our"></path>
                    </g>
                </g>
            </g>
        </g>
    </g>
</svg>