<?xml version="1.0" encoding="UTF-8" standalone="no"?>
<svg width="550px" height="103px" viewBox="0 0 550 103" version="1.1" xmlns="http://www.w3.org/2000/svg" xmlns:xlink="http://www.w3.org/1999/xlink">
    <!-- Generator: Sketch 3.7.2 (28276) - http://www.bohemiancoding.com/sketch -->
    <title>Group 18</title>
    <desc>Created with Sketch.</desc>
    <defs></defs>
    <g id="Page-1" stroke="none" stroke-width="1" fill="none" fill-rule="evenodd">
        <g id="Desktop-HD" transform="translate(-445.000000, -5988.000000)">
            <g id="Group-18" transform="translate(445.000000, 5988.000000)">
                <g id="Group-15">
                    <polygon id="Rectangle-18" fill="#87CAB9" transform="translate(499.000000, 57.500000) scale(-1, 1) translate(-499.000000, -57.500000) " points="474.777879 57.5 448 12 550 12 550 103 448 103"></polygon>
                    <polygon id="Rectangle-18" fill="#87CAB9" points="26.7778788 57.5 0 12 102 12 102 103 0 103"></polygon>
                    <polygon id="Rectangle-21" fill="#D8D8D8" points="39.5 0 102.472343 11.8191195 102.472343 102.819119 39.5 91"></polygon>
                    <polygon id="Rectangle-21" fill="#D8D8D8" transform="translate(478.986172, 51.409560) scale(-1, 1) translate(-478.986172, -51.409560) " points="447.5 0 510.472343 11.8191195 510.472343 102.819119 447.5 91"></polygon>
                    <rect id="Rectangle-18" fill="#97E3D0" x="39.5" y="0" width="471" height="91"></rect>
                </g>
                <g id="Group-17" transform="translate(151.000000, 22.000000)" fill="#FFFFFF">
                    <path d="M38.5825063,28.0049972 C43.3400071,28.9399974 44.7425073,34.2749982 45.6500075,37.9599988 C47.2725077,44.5049999 49.7200081,48.8500006 60.2525099,48.8500006 C61.6275101,48.8500006 63.0300103,48.7125006 64.4875106,48.4375006 L64.5150106,48.3000005 C59.8675098,47.5300004 59.2075097,40.7649993 57.2275094,35.5674985 C54.697509,28.8574974 50.0225082,25.4749968 38.5550063,27.9499972 C47.3550078,25.8874969 60.2800099,23.1374964 60.2800099,14.9149951 C60.2800099,8.64499404 54.725009,6.44499368 46.7500077,6.44499368 C45.7600075,6.44499368 44.7150073,6.5824937 43.7800072,6.82999374 L43.7800072,6.77499373 C44.8250073,6.44499368 47.0250077,5.45499352 47.0250077,3.36499318 C47.0250077,1.27499283 45.4850075,0.394992689 44.0000072,0.394992689 C42.0200069,0.394992689 40.2050066,2.319993 41.4700068,4.68499339 C43.010007,3.74999324 43.9450072,4.62999338 43.9450072,5.50999353 C43.9450072,6.16999364 43.3950071,6.88499375 42.1850069,6.88499375 C35.6400058,6.88499375 28.9850048,1.38499285 22.0000036,1.38499285 C16.0600026,1.38499285 11.8250019,5.39999351 11.8250019,10.5149943 C11.8250019,15.3549951 15.8950026,18.4349956 19.9650033,18.4349956 C26.4000043,18.4349956 30.580005,10.3499943 24.145004,7.43499384 C22.9900038,8.91999409 21.4500035,9.6349942 19.9650033,9.6349942 C18.260003,9.6349942 16.3350027,8.75499406 16.3350027,6.16999364 C16.3350027,3.25499316 19.0025031,1.57749288 22.0000036,1.57749288 C25.5200042,1.57749288 28.9575047,2.97999311 32.3400053,4.35499334 C35.6675058,5.72999356 39.1875064,7.21499381 42.790007,7.07749378 L42.790007,7.13249379 C38.4450063,7.35249383 29.5075048,9.13999412 28.3800047,16.3999953 L25.5200042,35.0999984 C24.0625039,44.6149999 19.7450032,49.6200008 12.8700021,49.6200008 C5.5000009,49.6200008 2.25500037,45.055 2.25500037,38.839999 C2.25500037,33.064998 5.85750096,28.6924973 10.5050017,28.6924973 C12.8150021,28.6924973 14.9050024,30.0399975 14.9050024,32.927498 C14.9050024,35.8149985 12.8150021,38.0149989 10.1750017,38.0699989 C9.18500151,41.4249994 11.8800019,43.9549998 15.0150025,43.9549998 C19.3600032,43.9549998 22.1650036,40.8749993 22.1650036,37.1899987 C22.1650036,31.6349978 16.4725027,28.4999973 11.0825018,28.4999973 C4.97750082,28.4999973 0,32.514998 0,38.949999 C0,46.1550002 4.97750082,49.8125008 13.5025022,49.8125008 C19.9925033,49.8125008 34.5400057,47.7225004 36.685006,33.6699981 L39.6000065,14.749995 C40.4525066,9.30499415 41.9375069,7.02249378 44.4400073,7.02249378 C47.1900077,7.02249378 48.565008,9.19499413 48.565008,12.9899948 C48.565008,19.8099959 46.9150077,25.9974969 38.5275063,27.8949972 L38.5825063,28.0049972 Z M73.8375022,27.3449971 L73.8100022,27.3999971 C87.3400044,30.9749977 91.9050051,25.9699969 91.9050051,21.8999962 C91.9050051,16.7849954 85.6350041,15.7399952 81.3450034,15.7399952 C70.8950017,15.7399952 62.8650004,24.2099966 62.8650004,33.6149981 C62.8650004,40.9849993 67.5950011,45.3850001 74.2500022,45.3850001 C80.6300033,45.3850001 86.4600042,41.3149994 89.9250048,35.5949985 L89.7875048,35.5124984 C87.2025043,38.674999 83.9575038,39.7474991 81.4275034,39.7474991 C75.6800025,39.7474991 73.2325021,34.8524983 73.2325021,29.4349974 C73.2325021,23.7974965 76.1200025,15.9324952 80.9875033,15.9324952 C83.1600037,15.9324952 84.0400038,17.6099955 84.0400038,19.7549959 C84.0400038,23.6599965 81.8125035,28.3349973 73.8375022,27.3449971 L73.8375022,27.3449971 Z M112.090003,16.0699953 C115.005004,16.0699953 114.675004,19.8374959 114.152504,22.6974963 L113.547504,26.0524969 C112.117503,34.1374982 108.487503,42.7174996 105.132502,42.7174996 C103.702502,42.7174996 102.960002,40.3249992 102.960002,38.0699989 C102.960002,29.2424974 106.672503,16.0699953 112.090003,16.0699953 L112.090003,16.0699953 Z M124.685006,15.9599952 C123.777505,17.6099955 122.650005,18.1599956 121.302505,18.1599956 C118.497505,18.1599956 114.812504,15.7399952 110.412503,15.7399952 C101.172502,15.7399952 93.0050004,26.464997 93.0050004,35.2099984 C93.0050004,40.2699992 95.0400007,45.3850001 100.815002,45.3850001 C105.765002,45.3850001 110.000003,41.6999995 113.465004,28.0049972 L113.575004,28.0324972 L109.725003,48.5750006 C108.707503,54.0475015 107.387503,57.182502 103.152502,57.182502 C99.8800015,57.182502 98.8900013,55.2850017 98.8900013,53.7725014 C98.8900013,52.3150012 99.8250015,50.857501 101.970002,50.6100009 C102.300002,47.6400004 99.8250015,46.0450002 97.5700011,46.0450002 C94.4350006,46.0450002 91.9600002,48.3000005 91.9600002,51.380001 C91.9600002,56.3850019 98.2850012,57.375002 102.850002,57.375002 C113.300004,57.375002 118.992505,52.1500012 120.175005,44.6149999 L124.685006,15.9599952 Z M132.220001,13.5949949 C138.215002,13.4299948 142.835003,10.0199943 142.835003,5.72999356 C142.835003,2.64999306 140.360003,1.38499285 138.270002,1.38499285 C136.015002,1.38499285 133.485002,2.9249931 132.165001,5.3449935 C133.815002,7.43499384 133.347502,11.7249945 132.192501,13.5399948 L132.220001,13.5949949 Z M139.315002,20.634996 C139.920003,16.8949954 138.820002,15.7399952 135.685002,15.7399952 C133.045001,15.7399952 129.195001,16.9499954 127.270001,17.8849956 L127.352501,17.9674956 C129.140001,17.2799955 129.937501,17.8849956 129.690001,19.4799958 L126.83,36.8049987 C125.7025,43.5699998 129.195001,45.4400001 133.320002,45.4400001 C134.585002,45.4400001 135.905002,45.275 137.170002,45 L137.225002,44.89 C135.355002,43.9549998 136.592502,37.1349987 137.225002,33.2849981 L139.315002,20.634996 Z M151.222502,45.3850001 C159.417503,45.3850001 168.575005,41.8099995 168.575005,34.4674983 C168.575005,24.4024966 151.690002,26.3549969 151.690002,20.2774959 C151.690002,18.0224956 154.027502,15.9324952 158.235003,15.9324952 C161.452504,15.9324952 163.295004,17.1699954 163.295004,19.0399957 C163.295004,20.414996 162.250004,21.5699962 161.040004,22.0099962 C160.765003,24.4299966 162.525004,25.6949968 164.395004,25.6949968 C167.090005,25.6949968 168.960005,23.4399965 168.960005,20.9649961 C168.960005,16.7849954 163.047504,15.7399952 158.785003,15.7399952 C151.580002,15.7399952 143.220001,18.7099957 143.220001,26.2999969 C143.220001,35.6224985 160.380003,35.0449984 160.380003,40.9024993 C160.380003,44.1474999 155.127503,45.1925 151.772502,45.1925 C147.730001,45.1925 146.850001,43.6524998 146.850001,41.9749995 C146.850001,40.3799992 147.840001,38.894999 149.435002,38.3449989 C149.765002,35.6499985 147.620001,34.3299983 145.475001,34.3299983 C142.45,34.3299983 140.36,36.8599987 140.36,39.6099991 C140.36,44.3399999 146.795001,45.3850001 151.222502,45.3850001 L151.222502,45.3850001 Z M184.910003,16.2899953 L188.705003,16.2899953 L188.732503,16.1249953 L184.937503,16.1249953 L186.670003,5.67499355 L186.505003,5.67499355 C184.910003,14.282495 181.335002,16.0699953 173.442501,16.1249953 L172.700001,16.1249953 L172.672501,16.2899953 L175.010001,16.2899953 L171.8475,36.5299986 C170.775,43.4324997 174.570001,45.4125001 179.107502,45.4125001 C180.427502,45.4125001 181.802502,45.2475 183.122502,45 L183.232502,44.89 C180.647502,44.4499999 181.417502,37.7399988 182.187502,33.009998 L184.910003,16.2899953 Z M209.495004,19.7274959 C209.495004,22.5049963 207.460004,24.2099966 205.425003,24.2099966 C205.095003,27.5099971 207.460004,29.0499974 209.935004,29.0499974 C214.830005,29.0499974 217.580005,25.3649968 217.580005,21.6799962 C217.580005,18.3799956 215.325005,15.2999951 210.705004,15.2999951 C205.700003,15.2999951 201.465003,18.9299957 197.697502,33.1199981 L197.532502,33.064998 L200.475003,20.634996 C201.327503,16.9499954 199.870002,15.7399952 196.735002,15.7399952 C194.095002,15.7399952 190.245001,16.9499954 188.320001,17.8849956 L188.402501,17.9674956 C190.190001,17.2799955 191.015001,17.8849956 190.740001,19.4799958 L187.66,36.8049987 C186.45,43.5974998 189.447501,45.4400001 193.792501,45.4400001 C195.332502,45.4400001 196.020002,45.3025 197.477502,45 L197.587502,44.89 C195.580002,44.0649998 197.175002,37.0249987 198.027502,33.2299981 C199.897502,24.9524967 203.912503,16.8949954 207.322504,16.8949954 C208.945004,16.8949954 209.495004,18.4624957 209.495004,19.7274959 L209.495004,19.7274959 Z M247.362505,24.3749966 C248.435006,17.5549955 246.620005,15.7399952 242.275004,15.7399952 C240.955004,15.7399952 239.140004,15.7674952 237.627504,15.9599952 L237.517504,16.0699953 C239.525004,16.8949954 238.012504,24.1549966 237.077504,27.9499972 C235.042503,36.1449985 231.247503,43.0474997 228.415002,43.0474997 C226.957502,43.0474997 226.517502,41.2324994 227.012502,38.2899989 L229.927502,20.634996 C230.532503,16.8949954 229.432502,15.7399952 226.297502,15.7399952 C223.657501,15.7399952 219.807501,16.9499954 217.882501,17.8849956 L217.965001,17.9674956 C219.752501,17.2799955 220.577501,17.8849956 220.302501,19.4799958 L217.5525,35.9799985 C216.92,39.7199991 216.9475,45.4400001 223.575001,45.4400001 C228.525002,45.4400001 233.557503,42.2224995 237.270004,28.0599972 L237.435004,28.1149972 L233.750003,48.5750006 C232.760003,54.0475015 231.412503,57.182502 227.177502,57.182502 C223.905001,57.182502 222.915001,55.2850017 222.915001,53.7725014 C222.915001,52.3150012 223.850001,50.857501 225.995002,50.6100009 C226.325002,47.6400004 223.850001,46.0450002 221.595001,46.0450002 C218.460001,46.0450002 215.985,48.3000005 215.985,51.380001 C215.985,56.3850019 222.310001,57.375002 226.875002,57.375002 C237.325004,57.375002 243.017505,52.1500012 244.200005,44.6149999 L247.362505,24.3749966 Z" id="Registry"></path>
                </g>
            </g>
        </g>
    </g>
</svg>