<?xml version="1.0" encoding="UTF-8" standalone="no"?>
<svg width="550px" height="103px" viewBox="0 0 550 103" version="1.1" xmlns="http://www.w3.org/2000/svg" xmlns:xlink="http://www.w3.org/1999/xlink">
    <!-- Generator: Sketch 3.7.2 (28276) - http://www.bohemiancoding.com/sketch -->
    <title>Group 18</title>
    <desc>Created with Sketch.</desc>
    <defs></defs>
    <g id="Page-1" stroke="none" stroke-width="1" fill="none" fill-rule="evenodd">
        <g id="Desktop-HD" transform="translate(-281.000000, -544.000000)">
            <g id="Group" transform="translate(-88.000000, 0.000000)">
                <g id="Group-18" transform="translate(369.000000, 544.000000)">
                    <g id="Group-15">
                        <polygon id="Rectangle-18" fill="#87CAB9" transform="translate(499.000000, 57.500000) scale(-1, 1) translate(-499.000000, -57.500000) " points="474.777879 57.5 448 12 550 12 550 103 448 103"></polygon>
                        <polygon id="Rectangle-18" fill="#87CAB9" points="26.7778788 57.5 0 12 102 12 102 103 0 103"></polygon>
                        <polygon id="Rectangle-21" fill="#D8D8D8" points="39.5 0 102.472343 11.8191195 102.472343 102.819119 39.5 91"></polygon>
                        <polygon id="Rectangle-21" fill="#D8D8D8" transform="translate(478.986172, 51.409560) scale(-1, 1) translate(-478.986172, -51.409560) " points="447.5 0 510.472343 11.8191195 510.472343 102.819119 447.5 91"></polygon>
                        <rect id="Rectangle-18" fill="#97E3D0" x="39.5" y="0" width="471" height="91"></rect>
                    </g>
                    <g id="Group-17" transform="translate(64.000000, 19.000000)" fill="#FFFFFF">
                        <path d="M47.9700077,3.08999313 C47.9700077,1.19249282 46.4300074,0.312492675 45.0550072,0.312492675 C42.9375069,0.312492675 41.1500066,2.264993 42.4150068,4.68499339 C43.955007,3.74999324 44.8900072,4.62999338 44.8900072,5.50999353 C44.8900072,6.16999364 44.4500071,6.88499375 43.1300069,6.88499375 C36.5850058,6.88499375 29.9300047,1.38499285 22.9450036,1.38499285 C17.0050026,1.38499285 12.7700019,5.39999351 12.7700019,10.5149943 C12.7700019,15.3549951 16.8400026,18.4349956 20.9100033,18.4349956 C27.3450043,18.4349956 31.525005,10.3499943 25.0900039,7.43499384 C23.9350038,8.91999409 22.3950035,9.6349942 20.9100033,9.6349942 C19.205003,9.6349942 17.2800027,8.75499406 17.2800027,6.16999364 C17.2800027,3.25499316 19.9475031,1.57749288 22.9450036,1.57749288 C26.4650042,1.57749288 29.9025047,2.97999311 33.2850053,4.35499334 C36.6125058,5.72999356 40.1325064,7.21499381 43.735007,7.07749378 L43.735007,7.13249379 C39.3900063,7.35249383 30.4525048,9.13999412 29.3250046,16.3999953 L26.4650042,35.0999984 C25.0075039,44.6149999 20.6900032,49.6200008 13.8150021,49.6200008 C6.44500089,49.6200008 3.20000036,45.055 3.20000036,38.839999 C3.20000036,33.064998 6.80250095,28.6924973 11.4500017,28.6924973 C13.7600021,28.6924973 15.8500024,30.0399975 15.8500024,32.927498 C15.8500024,35.8149985 13.7600021,38.0149989 11.1200017,38.0699989 C10.1300015,41.4249994 12.8250019,43.9549998 15.9600025,43.9549998 C20.3050032,43.9549998 23.1100036,40.8749993 23.1100036,37.1899987 C23.1100036,31.6349978 17.4175027,28.4999973 12.0275018,28.4999973 C5.92250081,28.4999973 0.944999991,32.514998 0.944999991,38.949999 C0.944999991,46.1550002 5.92250081,49.8125008 14.4475022,49.8125008 C20.9375033,49.8125008 35.4850057,47.7225004 37.630006,33.6699981 L40.5450065,14.749995 C42.0575067,4.90499343 47.9700077,6.96749377 47.9700077,3.08999313 L47.9700077,3.08999313 Z M63.5350033,15.7399952 C53.6625017,15.7399952 45.4950004,23.4674965 45.4950004,33.009998 C45.4950004,40.2699992 50.9950013,45.3850001 58.8325025,45.3850001 C68.6775042,45.3850001 76.9000055,37.2724987 76.9000055,28.1149972 C76.9000055,20.827496 71.4275046,15.7399952 63.5350033,15.7399952 L63.5350033,15.7399952 Z M58.8600026,45.1925 C56.4400022,45.1925 55.532502,42.8274996 55.532502,39.5824991 C55.532502,33.6699981 57.4575023,15.9324952 63.5075033,15.9324952 C66.0925037,15.9324952 66.8625039,18.3524956 66.8625039,21.6249962 C66.8625039,28.0874972 64.9375035,45.1925 58.8600026,45.1925 L58.8600026,45.1925 Z M108.882505,24.3749966 C109.955006,17.5549955 108.140005,15.7399952 103.795004,15.7399952 C102.475004,15.7399952 100.660004,15.7674952 99.1475037,15.9599952 L99.0375037,16.0699953 C101.045004,16.8949954 99.5325038,24.1549966 98.5975036,27.9499972 C96.5625033,36.1449985 92.7675027,43.0474997 89.9350022,43.0474997 C88.477502,43.0474997 88.0375019,41.2324994 88.532502,38.2899989 L91.4475025,20.634996 C92.0525026,16.8949954 90.9525024,15.7399952 87.8175019,15.7399952 C85.1775014,15.7399952 81.3275008,16.9499954 79.4025005,17.8849956 L79.4850005,17.9674956 C81.2725008,17.2799955 82.0975009,17.8849956 81.8225009,19.4799958 L79.0725004,35.9799985 C78.4400003,39.7199991 78.4675003,45.4400001 85.0950014,45.4400001 C90.0450022,45.4400001 95.0775031,42.2224995 98.7900037,28.0599972 L98.9550037,28.1149972 L95.2700031,48.5750006 C94.2800029,54.0475015 92.9325027,57.182502 88.697502,57.182502 C85.4250015,57.182502 84.4350013,55.2850017 84.4350013,53.7725014 C84.4350013,52.3150012 85.3700015,50.857501 87.5150018,50.6100009 C87.8450019,47.6400004 85.3700015,46.0450002 83.1150011,46.0450002 C79.9800006,46.0450002 77.5050002,48.3000005 77.5050002,51.380001 C77.5050002,56.3850019 83.8300012,57.375002 88.395002,57.375002 C98.8450037,57.375002 104.537505,52.1500012 105.720005,44.6149999 L108.882505,24.3749966 Z" id="Joy"></path>
                        <path d="M238.59001,25.9699969 C234.21751,34.8249983 225.912508,42.8274996 218.130007,47.4200004 L218.102507,47.3650004 C221.237507,44.725 224.290008,42.3324996 224.290008,39.114999 C224.290008,36.0349985 222.365008,31.9099979 220.990007,27.3174971 C222.502508,24.0449966 223.355008,20.827496 223.355008,17.8849956 C223.355008,12.7149947 220.605007,10.1849943 217.690007,10.1849943 C214.335006,10.1849943 210.540006,13.3749948 210.540006,20.0849959 C210.540006,25.6399968 213.125006,31.1399977 215.352506,35.8974985 C211.722506,40.4074992 207.157505,44.4774999 202.262504,47.3650004 L202.235004,47.3100004 C205.370005,44.6699999 207.570005,42.6349996 207.570005,39.9399992 C207.570005,35.6499985 202.895004,26.3549969 202.895004,18.0499956 C202.895004,13.7049949 204.160005,9.79999423 207.845005,6.88499375 C208.780005,6.08749362 211.200006,5.23499348 211.200006,3.36499318 C211.200006,1.27499283 209.660006,0.394992689 208.175005,0.394992689 C206.195005,0.394992689 204.380005,2.319993 205.645005,4.68499339 C207.185005,3.74999324 208.120005,4.62999338 208.120005,5.50999353 C208.120005,6.16999364 207.570005,6.88499375 206.360005,6.88499375 C199.815004,6.88499375 193.160003,1.38499285 186.175002,1.38499285 C180.235001,1.38499285 176,5.39999351 176,10.5149943 C176,15.3549951 180.070001,18.4349956 184.140001,18.4349956 C190.575002,18.4349956 194.755003,10.3499943 188.320002,7.43499384 C187.165002,8.91999409 185.625002,9.6349942 184.140001,9.6349942 C182.435001,9.6349942 180.510001,8.75499406 180.510001,6.16999364 C180.510001,3.25499316 183.177501,1.57749288 186.175002,1.57749288 C189.695002,1.57749288 193.132503,2.97999311 196.515003,4.35499334 C199.842504,5.72999356 203.362504,7.21499381 206.965005,7.07749378 L206.965005,7.13249379 C199.155004,7.68249388 191.345003,11.5599945 191.345003,19.8649959 C191.345003,30.4799976 202.455004,39.2249991 202.455004,45.11 C202.455004,45.9350002 202.235004,46.7600003 201.795004,47.4200004 L201.960004,47.7500005 C206.992505,44.8625 211.722506,40.6824993 215.435006,36.0624985 C217.085007,39.5824991 218.515007,42.6899996 218.515007,45.11 C218.515007,45.9350002 218.240007,46.7600003 217.800007,47.4200004 L217.965007,47.7500005 C229.130009,41.2049994 241.835011,27.5649971 241.835011,14.199995 C241.835011,7.54499386 237.82001,4.46499336 233.97001,4.46499336 C230.395009,4.46499336 227.150008,7.1599938 227.150008,11.2849945 C227.150008,14.1449949 228.827509,16.3999953 232.072509,16.6199953 C232.842509,14.309995 234.76751,13.2649948 236.63751,13.2649948 C239.30501,13.2649948 241.010011,15.2999951 241.010011,17.9399956 C241.010011,20.524996 239.88251,23.4124965 238.59001,25.9699969 L238.59001,25.9699969 Z M219.560007,19.0949958 C219.560007,17.4449955 219.807507,13.9524949 221.457507,13.9524949 C222.667508,13.9524949 223.162508,16.1799953 223.162508,17.8849956 C223.162508,20.744996 222.337508,23.8799965 220.907507,27.0424971 C220.137507,24.5124966 219.560007,21.8174962 219.560007,19.0949958 L219.560007,19.0949958 Z M253.632502,27.3449971 L253.605002,27.3999971 C267.135004,30.9749977 271.700005,25.9699969 271.700005,21.8999962 C271.700005,16.7849954 265.430004,15.7399952 261.140003,15.7399952 C250.690002,15.7399952 242.66,24.2099966 242.66,33.6149981 C242.66,40.9849993 247.390001,45.3850001 254.045002,45.3850001 C260.425003,45.3850001 266.255004,41.3149994 269.720005,35.5949985 L269.582505,35.5124984 C266.997504,38.674999 263.752504,39.7474991 261.222503,39.7474991 C255.475002,39.7474991 253.027502,34.8524983 253.027502,29.4349974 C253.027502,23.7974965 255.915003,15.9324952 260.782503,15.9324952 C262.955004,15.9324952 263.835004,17.6099955 263.835004,19.7549959 C263.835004,23.6599965 261.607503,28.3349973 253.632502,27.3449971 L253.632502,27.3449971 Z M293.260004,26.0524969 C291.830003,34.1374982 287.815003,43.5424998 284.295002,43.5424998 C283.030002,43.5424998 282.645002,41.9199995 282.645002,39.6649991 C282.645002,29.5999975 287.485003,16.0974953 294.222504,16.2899953 L294.250004,16.2349953 C293.040004,15.8499952 292.050004,15.7399952 290.510003,15.7399952 C279.015001,15.7399952 272.8,27.2349971 272.8,36.1449985 C272.8,41.2049994 274.890001,45.3850001 280.665002,45.3850001 C285.615002,45.3850001 289.712503,41.6999995 293.177504,28.0049972 L293.287504,28.0324972 L291.857503,36.5299986 C290.675003,43.5149998 294.470004,45.3850001 299.145005,45.3850001 C300.465005,45.3850001 301.785005,45.275 303.050005,45 L303.132505,44.89 C300.300005,44.9725 301.290005,37.7399988 302.115005,33.009998 L306.405006,6.44499368 C307.010006,2.70499307 305.772506,1.54999288 302.637505,1.54999288 C299.997505,1.54999288 296.147504,2.75999308 294.222504,3.69499323 L294.305004,3.77749324 C296.092504,3.08999313 296.890004,3.69499323 296.642504,5.28999349 L293.260004,26.0524969 Z M327.030004,26.0524969 C325.600003,34.1374982 321.585003,43.5424998 318.065002,43.5424998 C316.800002,43.5424998 316.415002,41.9199995 316.415002,39.6649991 C316.415002,29.5999975 321.255003,16.0974953 327.992504,16.2899953 L328.020004,16.2349953 C326.810004,15.8499952 325.820004,15.7399952 324.280003,15.7399952 C312.785001,15.7399952 306.57,27.2349971 306.57,36.1449985 C306.57,41.2049994 308.660001,45.3850001 314.435002,45.3850001 C319.385002,45.3850001 323.482503,41.6999995 326.947504,28.0049972 L327.057504,28.0324972 L325.627503,36.5299986 C324.445003,43.5149998 328.240004,45.3850001 332.915005,45.3850001 C334.235005,45.3850001 335.555005,45.275 336.820005,45 L336.902505,44.89 C334.070005,44.9725 335.060005,37.7399988 335.885005,33.009998 L340.175006,6.44499368 C340.780006,2.70499307 339.542506,1.54999288 336.407505,1.54999288 C333.767505,1.54999288 329.917504,2.75999308 327.992504,3.69499323 L328.075004,3.77749324 C329.862504,3.08999313 330.660004,3.69499323 330.412504,5.28999349 L327.030004,26.0524969 Z M346.225001,13.5949949 C352.220002,13.4299948 356.840003,10.0199943 356.840003,5.72999356 C356.840003,2.64999306 354.365003,1.38499285 352.275002,1.38499285 C350.020002,1.38499285 347.490002,2.9249931 346.170001,5.3449935 C347.820002,7.43499384 347.352502,11.7249945 346.197501,13.5399948 L346.225001,13.5949949 Z M353.320002,20.634996 C353.925003,16.8949954 352.825002,15.7399952 349.690002,15.7399952 C347.050001,15.7399952 343.200001,16.9499954 341.275001,17.8849956 L341.357501,17.9674956 C343.145001,17.2799955 343.942501,17.8849956 343.695001,19.4799958 L340.835,36.8049987 C339.7075,43.5699998 343.200001,45.4400001 347.325002,45.4400001 C348.590002,45.4400001 349.910002,45.275 351.175002,45 L351.230002,44.89 C349.360002,43.9549998 350.597502,37.1349987 351.230002,33.2849981 L353.320002,20.634996 Z M369.215003,20.634996 C370.067503,16.9499954 368.610002,15.7399952 365.475002,15.7399952 C362.835002,15.7399952 358.985001,16.9499954 357.060001,17.8849956 L357.142501,17.9674956 C358.930001,17.2799955 359.755001,17.8849956 359.480001,19.4799958 L356.4,36.8049987 C355.19,43.5974998 357.142501,45.4400001 361.487501,45.4400001 C362.807502,45.4400001 364.375002,45.2475 366.135002,45 L366.245002,44.89 C364.237502,44.0649998 365.750002,37.0249987 366.685002,33.2299981 C368.720002,25.0349967 372.790003,18.1324956 375.622504,18.1324956 C377.080004,18.1324956 377.217504,19.9474959 376.750004,22.8899964 L374.550003,36.5299986 C373.450003,43.4324997 377.272504,45.4125001 381.810005,45.4125001 C383.130005,45.4125001 384.505005,45.2475 385.825005,45 L385.935005,44.89 C383.350005,44.4499999 384.065005,37.7399988 384.890005,33.009998 L386.210005,25.1999968 C386.842505,21.4599961 387.090005,15.7399952 380.462504,15.7399952 C375.512504,15.7399952 370.205003,18.9574957 366.492502,33.1199981 L366.327502,33.064998 L369.215003,20.634996 Z M408.155003,16.0699953 C411.070004,16.0699953 410.740004,19.8374959 410.217504,22.6974963 L409.612504,26.0524969 C408.182503,34.1374982 404.552503,42.7174996 401.197502,42.7174996 C399.767502,42.7174996 399.025002,40.3249992 399.025002,38.0699989 C399.025002,29.2424974 402.737503,16.0699953 408.155003,16.0699953 L408.155003,16.0699953 Z M420.750006,15.9599952 C419.842505,17.6099955 418.715005,18.1599956 417.367505,18.1599956 C414.562505,18.1599956 410.877504,15.7399952 406.477503,15.7399952 C397.237502,15.7399952 389.07,26.464997 389.07,35.2099984 C389.07,40.2699992 391.105001,45.3850001 396.880002,45.3850001 C401.830002,45.3850001 406.065003,41.6999995 409.530004,28.0049972 L409.640004,28.0324972 L405.790003,48.5750006 C404.772503,54.0475015 403.452503,57.182502 399.217502,57.182502 C395.945001,57.182502 394.955001,55.2850017 394.955001,53.7725014 C394.955001,52.3150012 395.890001,50.857501 398.035002,50.6100009 C398.365002,47.6400004 395.890001,46.0450002 393.635001,46.0450002 C390.500001,46.0450002 388.025,48.3000005 388.025,51.380001 C388.025,56.3850019 394.350001,57.375002 398.915002,57.375002 C409.365004,57.375002 415.057505,52.1500012 416.240005,44.6149999 L420.750006,15.9599952 Z" id="Wedding"></path>
                        <g id="Group-16" transform="translate(120.000000, 4.000000)">
                            <path d="M27.8250015,6.69999782 C23.3375008,6.69999782 19.6250002,10.2124984 19.6250002,14.5499991 C19.6250002,17.8499996 22.1250006,20.175 25.6875012,20.175 C30.1625019,20.175 33.9000025,16.4874994 33.9000025,12.3249987 C33.9000025,9.0124982 31.4125021,6.69999782 27.8250015,6.69999782 L27.8250015,6.69999782 Z M25.7000012,20.0875 C24.600001,20.0875 24.1875009,19.0124998 24.1875009,17.5374996 C24.1875009,14.8499992 25.0625011,6.78749783 27.8125015,6.78749783 C28.9875017,6.78749783 29.3375018,7.88749801 29.3375018,9.37499826 C29.3375018,12.3124987 28.4625016,20.0875 25.7000012,20.0875 L25.7000012,20.0875 Z M35.5500003,6.87499785 L35.5375003,6.94999786 L36.8500005,6.94999786 L35.0250002,18.4249997 C34.6750002,20.6500001 37.0750006,21.2875002 37.0750006,23.4125006 C37.0750006,24.5250007 36.5375005,25.5375009 35.5250003,25.5375009 C34.7875002,25.5375009 34.4375001,25.0125008 34.4375001,24.4375007 C34.4375001,23.7375006 34.9750002,23.2750005 35.9000004,23.3250005 C36.0750004,21.6250003 34.8250002,20.7750001 33.525,20.7750001 C32.1499998,20.7750001 30.6999995,21.5500003 30.6999995,23.4000006 C30.6999995,24.9750008 31.9999997,26.100001 33.9375,26.100001 C37.2750006,26.100001 38.8375009,22.7375004 39.3250009,19.6749999 L41.3250013,6.94999786 L43.0375015,6.94999786 L43.0500015,6.87499785 L40.9250012,6.87499785 C41.3625013,5.78749767 38.5125008,5.3749976 38.5125008,3.17499724 C38.5125008,1.82499702 39.700001,0.674996832 40.7625012,0.674996832 C41.5500013,0.674996832 41.9125014,1.29999693 41.9125014,1.92499704 C41.9125014,2.77499718 41.1500012,3.32499727 40.3000011,3.14999724 C39.662501,4.62499748 40.7875012,5.9874977 42.5875015,5.9874977 C44.3125017,5.9874977 45.3750019,4.7249975 45.3750019,3.23749725 C45.3750019,1.54999698 44.0125017,0.449996796 41.7625013,0.449996796 C37.8625007,0.449996796 37.3625006,3.81249735 36.8625005,6.87499785 L35.5500003,6.87499785 Z" id="of"></path>
                            <path d="M6.52500119,29.9499979 L8.25000147,29.9499979 L8.26250147,29.8749978 L6.53750119,29.8749978 L7.32500132,25.1249971 L7.25000131,25.1249971 C6.52500119,29.0374977 4.90000092,29.8499978 1.31250033,29.8749978 L0.975000279,29.8749978 L0.962500277,29.9499979 L2.02500045,29.9499979 L0.587500215,39.1499994 C0.100000135,42.2874999 1.82500042,43.1875 3.88750076,43.1875 C4.48750085,43.1875 5.11250096,43.1125 5.71250106,43 L5.76250106,42.95 C4.58750087,42.75 4.93750093,39.6999995 5.28750099,37.5499991 L6.52500119,29.9499979 Z M14.3500013,25.4749971 C14.6250013,23.7749968 14.0750012,23.2499968 12.650001,23.2499968 C11.4500008,23.2499968 9.70000052,23.7999969 8.82500038,24.2249969 L8.86250038,24.2624969 C9.67500052,23.9499969 10.0375006,24.2249969 9.92500056,24.949997 L7.57500017,39.2749994 C7.06250009,42.3749999 7.91250023,43.2 9.88750055,43.2 C10.4875006,43.2 11.2000008,43.1125 12.0000009,43 L12.0500009,42.95 C11.1375008,42.5749999 11.8250009,39.3749994 12.2500009,37.6499991 C13.1750011,33.9249985 15.0250014,30.787498 16.3125016,30.787498 C16.9750017,30.787498 17.0250017,31.6124981 16.8250017,32.9499984 L15.8250015,39.1499994 C15.3250014,42.2874999 17.0625017,43.1875 19.1250021,43.1875 C19.7250022,43.1875 20.3500023,43.1125 20.9500024,43 L21.0000024,42.95 C19.8250022,42.75 20.1500022,39.6999995 20.5250023,37.5499991 L21.1250024,33.9999985 C21.4125024,32.2999982 21.5250025,29.6999978 18.512502,29.6999978 C16.2625016,29.6999978 13.8500012,31.1624981 12.1625009,37.5999991 L12.0875009,37.5749991 L14.3500013,25.4749971 Z M27.412501,34.9749987 L27.400001,34.9999987 C33.550002,36.624999 35.6250023,34.3499986 35.6250023,32.4999983 C35.6250023,30.1749979 32.7750019,29.6999978 30.8250015,29.6999978 C26.0750008,29.6999978 22.4250002,33.5499985 22.4250002,37.8249992 C22.4250002,41.1749997 24.5750005,43.175 27.600001,43.175 C30.5000015,43.175 33.1500019,41.3249997 34.7250022,38.7249993 L34.6625022,38.6874993 C33.487502,40.1249995 32.0125017,40.6124996 30.8625015,40.6124996 C28.2500011,40.6124996 27.1375009,38.3874992 27.1375009,35.9249988 C27.1375009,33.3624984 28.4500012,29.7874978 30.6625015,29.7874978 C31.6500017,29.7874978 32.0500017,30.549998 32.0500017,31.5249981 C32.0500017,33.2999984 31.0375016,35.4249988 27.412501,34.9749987 L27.412501,34.9749987 Z M38.8000006,28.7249977 C41.525001,28.6499976 43.6250014,27.0999974 43.6250014,25.1499971 C43.6250014,23.7499968 42.5000012,23.1749968 41.5500011,23.1749968 C40.5250009,23.1749968 39.3750007,23.8749969 38.7750006,24.974997 C39.5250007,25.9249972 39.3125007,27.8749975 38.7875006,28.6999977 L38.8000006,28.7249977 Z M42.0250011,31.9249982 C42.3000012,30.2249979 41.8000011,29.6999978 40.3750009,29.6999978 C39.1750007,29.6999978 37.4250004,30.2499979 36.5500002,30.674998 L36.5875002,30.712498 C37.4000004,30.3999979 37.7625004,30.674998 37.6500004,31.3999981 L36.3500002,39.2749994 C35.8375001,42.3499999 37.4250004,43.2 39.3000007,43.2 C39.8750008,43.2 40.4750009,43.125 41.050001,43 L41.075001,42.95 C40.2250008,42.5249999 40.7875009,39.4249994 41.075001,37.6749991 L42.0250011,31.9249982 Z M53.3000018,31.5124981 C53.3000018,32.7749983 52.3750017,33.5499985 51.4500015,33.5499985 C51.3000015,35.0499987 52.3750017,35.7499988 53.5000019,35.7499988 C55.7250022,35.7499988 56.9750024,34.0749985 56.9750024,32.3999983 C56.9750024,30.899998 55.9500023,29.4999978 53.8500019,29.4999978 C51.5750015,29.4999978 49.6500012,31.1499981 47.937501,37.5999991 L47.8625009,37.5749991 L49.2000012,31.9249982 C49.5875012,30.2499979 48.9250011,29.6999978 47.5000009,29.6999978 C46.3000007,29.6999978 44.5500004,30.2499979 43.6750003,30.674998 L43.7125003,30.712498 C44.5250004,30.3999979 44.9000005,30.674998 44.7750004,31.3999981 L43.3750002,39.2749994 C42.8250001,42.3624999 44.1875003,43.2 46.1625007,43.2 C46.8625008,43.2 47.1750008,43.1375 47.8375009,43 L47.8875009,42.95 C46.9750008,42.5749999 47.7000009,39.3749994 48.087501,37.6499991 C48.9375011,33.8874985 50.7625014,30.2249979 52.3125017,30.2249979 C53.0500018,30.2249979 53.3000018,30.937498 53.3000018,31.5124981 L53.3000018,31.5124981 Z" id="their"></path>
                        </g>
                    </g>
                </g>
            </g>
        </g>
    </g>
</svg>