<?xml version="1.0" encoding="UTF-8" standalone="no"?>
<svg width="550px" height="103px" viewBox="0 0 550 103" version="1.1" xmlns="http://www.w3.org/2000/svg" xmlns:xlink="http://www.w3.org/1999/xlink">
    <!-- Generator: Sketch 3.7.2 (28276) - http://www.bohemiancoding.com/sketch -->
    <title>Group 18</title>
    <desc>Created with Sketch.</desc>
    <defs></defs>
    <g id="Page-1" stroke="none" stroke-width="1" fill="none" fill-rule="evenodd">
        <g id="Desktop-HD" transform="translate(-445.000000, -4933.000000)">
            <g id="Group-35" transform="translate(166.000000, 4933.000000)">
                <g id="Group-18" transform="translate(279.000000, 0.000000)">
                    <g id="Group-15">
                        <polygon id="Rectangle-18" fill="#87CAB9" transform="translate(499.000000, 57.500000) scale(-1, 1) translate(-499.000000, -57.500000) " points="474.777879 57.5 448 12 550 12 550 103 448 103"></polygon>
                        <polygon id="Rectangle-18" fill="#87CAB9" points="26.7778788 57.5 0 12 102 12 102 103 0 103"></polygon>
                        <polygon id="Rectangle-21" fill="#D8D8D8" points="39.5 0 102.472343 11.8191195 102.472343 102.819119 39.5 91"></polygon>
                        <polygon id="Rectangle-21" fill="#D8D8D8" transform="translate(478.986172, 51.409560) scale(-1, 1) translate(-478.986172, -51.409560) " points="447.5 0 510.472343 11.8191195 510.472343 102.819119 447.5 91"></polygon>
                        <rect id="Rectangle-18" fill="#97E3D0" x="39.5" y="0" width="471" height="91"></rect>
                    </g>
                    <path d="M180.582506,50.0049972 C185.340007,50.9399974 186.742507,56.2749982 187.650007,59.9599988 C189.272508,66.5049999 191.720008,70.8500006 202.25251,70.8500006 C203.62751,70.8500006 205.03001,70.7125006 206.487511,70.4375006 L206.515011,70.3000005 C201.86751,69.5300004 201.20751,62.7649993 199.227509,57.5674985 C196.697509,50.8574974 192.022508,47.4749968 180.555006,49.9499972 C189.355008,47.8874969 202.28001,45.1374964 202.28001,36.9149951 C202.28001,30.644994 196.725009,28.4449937 188.750008,28.4449937 C187.760008,28.4449937 186.715007,28.5824937 185.780007,28.8299937 L185.780007,28.7749937 C186.825007,28.4449937 189.025008,27.4549935 189.025008,25.3649932 C189.025008,23.2749928 187.485007,22.3949927 186.000007,22.3949927 C184.020007,22.3949927 182.205007,24.319993 183.470007,26.6849934 C185.010007,25.7499932 185.945007,26.6299934 185.945007,27.5099935 C185.945007,28.1699936 185.395007,28.8849938 184.185007,28.8849938 C177.640006,28.8849938 170.985005,23.3849929 164.000004,23.3849929 C158.060003,23.3849929 153.825002,27.3999935 153.825002,32.5149943 C153.825002,37.3549951 157.895003,40.4349956 161.965003,40.4349956 C168.400004,40.4349956 172.580005,32.3499943 166.145004,29.4349938 C164.990004,30.9199941 163.450004,31.6349942 161.965003,31.6349942 C160.260003,31.6349942 158.335003,30.7549941 158.335003,28.1699936 C158.335003,25.2549932 161.002503,23.5774929 164.000004,23.5774929 C167.520004,23.5774929 170.957505,24.9799931 174.340005,26.3549933 C177.667506,27.7299936 181.187506,29.2149938 184.790007,29.0774938 L184.790007,29.1324938 C180.445006,29.3524938 171.507505,31.1399941 170.380005,38.3999953 L167.520004,57.0999984 C166.062504,66.6149999 161.745003,71.6200008 154.870002,71.6200008 C147.500001,71.6200008 144.255,67.055 144.255,60.839999 C144.255,55.064998 147.857501,50.6924973 152.505002,50.6924973 C154.815002,50.6924973 156.905002,52.0399975 156.905002,54.927498 C156.905002,57.8149985 154.815002,60.0149989 152.175002,60.0699989 C151.185002,63.4249994 153.880002,65.9549998 157.015002,65.9549998 C161.360003,65.9549998 164.165004,62.8749993 164.165004,59.1899987 C164.165004,53.6349978 158.472503,50.4999973 153.082502,50.4999973 C146.977501,50.4999973 142,54.514998 142,60.949999 C142,68.1550002 146.977501,71.8125008 155.502502,71.8125008 C161.992503,71.8125008 176.540006,69.7225004 178.685006,55.6699981 L181.600006,36.749995 C182.452507,31.3049941 183.937507,29.0224938 186.440007,29.0224938 C189.190008,29.0224938 190.565008,31.1949941 190.565008,34.9899948 C190.565008,41.8099959 188.915008,47.9974969 180.527506,49.8949972 L180.582506,50.0049972 Z M211.547501,56.8249983 C208.220001,56.8249983 205.525,59.8499988 205.525,62.9299993 C205.525,65.4599997 207.312501,67.3850001 209.870001,67.3850001 C213.197502,67.3850001 215.892502,64.3324996 215.892502,61.2249991 C215.892502,58.7224986 214.077502,56.8249983 211.547501,56.8249983 L211.547501,56.8249983 Z M226.452502,40.0499956 C226.452502,51.8199975 248.342505,52.6999977 248.342505,62.8749993 C248.342505,68.2650002 243.227504,74.0675012 233.465003,74.0675012 C222.932501,74.0675012 219.4675,67.165 219.4675,61.3349991 C219.4675,55.8899982 222.987501,50.9949974 227.552502,50.9949974 C229.587502,50.9949974 232.117502,52.0949976 232.117502,54.954998 C232.117502,57.8699985 230.027502,60.0699989 227.387502,60.1249989 C226.397502,63.4799994 229.092502,66.0099998 232.227502,66.0099998 C236.572503,66.0099998 239.377504,62.9299993 239.377504,59.2449987 C239.377504,53.6899978 233.657503,50.5549973 228.377502,50.5549973 C221.997501,50.5549973 217.2125,55.3399981 217.2125,61.4999991 C217.2125,67.9350002 222.492501,74.2050012 233.272503,74.2050012 C245.757505,74.2050012 256.262506,65.8449998 256.262506,55.8349982 C256.262506,41.8649959 235.747503,42.524996 235.747503,34.1099946 C235.747503,30.314994 239.295004,27.6474935 243.007504,27.6474935 C246.197505,27.6474935 248.507505,29.5999939 248.507505,33.2849945 C248.507505,35.3199948 247.352505,37.1349951 245.152505,37.5749952 C244.327504,40.8749957 247.022505,42.854996 249.772505,42.854996 C252.962506,42.854996 256.537506,40.0499956 256.537506,35.8699949 C256.537506,30.204994 250.652505,27.4549935 244.107504,27.4549935 C235.802503,27.4549935 226.452502,31.8549942 226.452502,40.0499956 L226.452502,40.0499956 Z M265.420001,56.8249983 C262.092501,56.8249983 259.3975,59.8499988 259.3975,62.9299993 C259.3975,65.4599997 261.185001,67.3850001 263.742501,67.3850001 C267.070002,67.3850001 269.765002,64.3324996 269.765002,61.2249991 C269.765002,58.7224986 267.950002,56.8249983 265.420001,56.8249983 L265.420001,56.8249983 Z M320.640008,39.9399956 C320.640008,42.524996 319.430008,45.3849965 318.137508,47.9424969 C313.627507,56.8249983 304.965006,64.8274996 297.210004,69.4200004 L297.182504,69.3650004 C300.317505,66.725 302.655005,64.6349996 302.655005,61.9399992 C302.655005,58.0349985 298.035004,48.574997 298.035004,40.1599956 C298.035004,35.8149949 299.245005,31.7999942 302.930005,28.8849938 C303.865005,28.0874936 306.285006,27.2349935 306.285006,25.3649932 C306.285006,23.2749928 304.745006,22.3949927 303.260005,22.3949927 C301.280005,22.3949927 299.465005,24.319993 300.730005,26.6849934 C302.270005,25.7499932 303.205005,26.6299934 303.205005,27.5099935 C303.205005,28.1699936 302.655005,28.8849938 301.445005,28.8849938 C294.900004,28.8849938 288.245003,23.3849929 281.260002,23.3849929 C275.320001,23.3849929 271.085,27.3999935 271.085,32.5149943 C271.085,37.3549951 275.155001,40.4349956 279.225001,40.4349956 C285.660002,40.4349956 289.840003,32.3499943 283.405002,29.4349938 C282.250002,30.9199941 280.710002,31.6349942 279.225001,31.6349942 C277.520001,31.6349942 275.595001,30.7549941 275.595001,28.1699936 C275.595001,25.2549932 278.262501,23.5774929 281.260002,23.5774929 C284.780002,23.5774929 288.217503,24.9799931 291.600003,26.3549933 C294.927504,27.7299936 298.447504,29.2149938 302.050005,29.0774938 L302.050005,29.1324938 C294.240004,29.6824939 286.430003,33.5599945 286.430003,41.8649959 C286.430003,52.4799976 297.540004,61.2249991 297.540004,67.11 C297.540004,67.9350002 297.320004,68.7600003 296.880004,69.4200004 L297.045004,69.7500005 C308.210006,63.2049994 321.465008,49.5649971 321.465008,36.199995 C321.465008,29.5449939 317.450008,26.4649934 313.600007,26.4649934 C310.025006,26.4649934 306.780006,29.1599938 306.780006,33.2849945 C306.780006,36.1449949 308.457506,38.3999953 311.702507,38.6199953 C312.472507,36.309995 314.397507,35.2649948 316.267507,35.2649948 C318.935008,35.2649948 320.640008,37.2999951 320.640008,39.9399956 L320.640008,39.9399956 Z M329.247501,56.8249983 C325.920001,56.8249983 323.225,59.8499988 323.225,62.9299993 C323.225,65.4599997 325.012501,67.3850001 327.570001,67.3850001 C330.897502,67.3850001 333.592502,64.3324996 333.592502,61.2249991 C333.592502,58.7224986 331.777502,56.8249983 329.247501,56.8249983 L329.247501,56.8249983 Z M378.692507,28.7749937 C379.737507,28.4449937 381.937508,27.4549935 381.937508,25.3649932 C381.937508,23.2749928 380.397507,22.3949927 378.912507,22.3949927 C376.932507,22.3949927 375.117507,24.319993 376.382507,26.6849934 C377.922507,25.7499932 378.857507,26.6299934 378.857507,27.5099935 C378.857507,28.1699936 378.307507,28.8849938 377.097507,28.8849938 C370.552506,28.8849938 363.897505,23.3849929 356.912504,23.3849929 C350.972503,23.3849929 346.737502,27.3999935 346.737502,32.5149943 C346.737502,37.3549951 350.807503,40.4349956 354.877503,40.4349956 C361.312504,40.4349956 365.492505,32.3499943 359.057504,29.4349938 C357.902504,30.9199941 356.362504,31.6349942 354.877503,31.6349942 C353.172503,31.6349942 351.247503,30.7549941 351.247503,28.1699936 C351.247503,25.2549932 353.915003,23.5774929 356.912504,23.5774929 C360.432504,23.5774929 363.870005,24.9799931 367.252505,26.3549933 C370.580006,27.7299936 374.100006,29.2149938 377.702507,29.0774938 L377.702507,29.1324938 C373.357506,29.3524938 364.420005,31.1399941 363.292505,38.3999953 L360.432504,57.0999984 C358.975004,66.6149999 354.657503,71.6200008 347.782502,71.6200008 C340.412501,71.6200008 337.1675,67.055 337.1675,60.839999 C337.1675,55.064998 340.770001,50.6924973 345.417502,50.6924973 C347.727502,50.6924973 349.817502,52.0399975 349.817502,54.927498 C349.817502,57.8149985 347.727502,60.0149989 345.087502,60.0699989 C344.097502,63.4249994 346.792502,65.9549998 349.927502,65.9549998 C354.272503,65.9549998 357.077504,62.8749993 357.077504,59.1899987 C357.077504,53.6349978 351.385003,50.4999973 345.995002,50.4999973 C339.890001,50.4999973 334.9125,54.514998 334.9125,60.949999 C334.9125,68.1550002 339.890001,71.8125008 348.415002,71.8125008 C354.905003,71.8125008 369.452506,69.7225004 371.597506,55.6699981 L374.512506,36.749995 C375.365007,31.3049941 376.850007,29.0499938 379.352507,29.0499938 C382.102508,29.0499938 383.477508,31.8549942 383.477508,35.6499949 C383.477508,42.469996 381.635008,53.0849977 373.495006,51.9574975 L373.467506,52.1499976 C382.047508,53.5249978 394.91751,49.2349971 394.91751,38.1799953 C394.91751,31.4149942 389.637509,28.4449937 381.662508,28.4449937 C380.672508,28.4449937 379.627507,28.5824937 378.692507,28.8299937 L378.692507,28.7749937 Z M402.150001,56.8249983 C398.822501,56.8249983 396.1275,59.8499988 396.1275,62.9299993 C396.1275,65.4599997 397.915001,67.3850001 400.472501,67.3850001 C403.800002,67.3850001 406.495002,64.3324996 406.495002,61.2249991 C406.495002,58.7224986 404.680002,56.8249983 402.150001,56.8249983 L402.150001,56.8249983 Z" id="R.S.V.P." fill="#FFFFFF"></path>
                </g>
            </g>
        </g>
    </g>
</svg>