<?xml version="1.0" encoding="UTF-8" standalone="no"?>
<svg width="164px" height="153px" viewBox="0 0 164 153" version="1.1" xmlns="http://www.w3.org/2000/svg" xmlns:xlink="http://www.w3.org/1999/xlink">
    <!-- Generator: Sketch 3.7.2 (28276) - http://www.bohemiancoding.com/sketch -->
    <title>Page 1</title>
    <desc>Created with Sketch.</desc>
    <defs>
        <filter x="-50%" y="-50%" width="200%" height="200%" filterUnits="objectBoundingBox" id="filter-1">
            <feOffset dx="0" dy="0" in="SourceAlpha" result="shadowOffsetOuter1"></feOffset>
            <feGaussianBlur stdDeviation="5" in="shadowOffsetOuter1" result="shadowBlurOuter1"></feGaussianBlur>
            <feColorMatrix values="0 0 0 0 0   0 0 0 0 0   0 0 0 0 0  0 0 0 0.5 0" type="matrix" in="shadowBlurOuter1" result="shadowMatrixOuter1"></feColorMatrix>
            <feMerge>
                <feMergeNode in="shadowMatrixOuter1"></feMergeNode>
                <feMergeNode in="SourceGraphic"></feMergeNode>
            </feMerge>
        </filter>
        <polygon id="path-2" points="0.671269737 133.223684 133.05298 133.223684 133.05298 0.842151316 0.671269737 0.842151316 0.671269737 133.223684"></polygon>
    </defs>
    <g id="Page-1" stroke="none" stroke-width="1" fill="none" fill-rule="evenodd">
        <g id="Desktop-HD" transform="translate(-972.000000, -2016.000000)">
            <g id="Page-1" filter="url(#filter-1)" transform="translate(980.282895, 2024.384241)">
                <g id="Group-3" transform="translate(3.552632, 0.933809)">
                    <mask id="mask-3" fill="white">
                        <use xlink:href="#path-2"></use>
                    </mask>
                    <g id="Clip-2"></g>
                    <path d="M133.05298,67.0330066 C133.05298,103.589586 103.418704,133.223862 66.862125,133.223862 C30.3055461,133.223862 0.671269737,103.589586 0.671269737,67.0330066 C0.671269737,30.4764276 30.3055461,0.842151316 66.862125,0.842151316 C103.418704,0.842151316 133.05298,30.4764276 133.05298,67.0330066" id="Fill-1" fill="#FFFFFF" mask="url(#mask-3)"></path>
                </g>
                <path d="M123.688243,67.9668158 C123.688243,38.5439211 99.835875,14.6933289 70.4147566,14.6933289 C40.9918618,14.6933289 17.1412697,38.5439211 17.1412697,67.9668158 C17.1412697,97.3897105 40.9918618,121.240303 70.4147566,121.240303 C99.835875,121.240303 123.688243,97.3897105 123.688243,67.9668158" id="Fill-4" fill="#BEE0D6"></path>
                <path d="M0,95.9842895 C0,95.9842895 2.36605263,95.6041579 4.10151316,96.5438289 C5.83697368,97.4835 15.3029605,96.1423816 17.2746711,96.9310658 C19.2463816,97.71975 29.5525658,98.1140921 30.6698684,97.956 C31.7871711,97.7979079 32.9826316,97.0465263 34.59375,96.9488289 C36.2048684,96.8511316 43.0756579,98.2721842 45.1610526,98.7446842 C47.2482237,99.2189605 86.5971711,99.3361974 98.1769737,99.4996184 C109.755,99.6630395 144.315,98.8459342 144.315,98.8459342 C144.315,98.8459342 143.744803,96.2098816 143.963289,95.6059342 L144.183553,95.0019868 C144.183553,95.0019868 145.720066,96.2986974 145.720066,96.9967895 C145.720066,97.6931053 146.332895,98.6807368 146.332895,98.6807368 C146.332895,98.6807368 146.672171,98.3148158 146.332895,95.9718553 L145.297303,94.2879079 C145.297303,94.2879079 144.799934,92.6412632 144.711118,92.4760658 C144.622303,92.3108684 144.553026,90.4439605 144.553026,90.4439605 L140.449737,90.0531711 L138.906118,89.2129737 L138.906118,90.6091579 L137.813684,90.9395526 L136.989474,90.4439605 L134.793947,91.7619868 L133.255658,91.4333684 L134.847237,90.0531711 L134.134934,87.9180395 L132.980329,87.6444868 L131.882566,87.3336316 L131.168487,84.0740921 L129.466776,84.0740921 L127.983553,83.5642895 L126.610461,83.8005395 L125.441645,82.2800132 L122.658158,82.1716579 L119.967039,82.2800132 L119.967039,80.8127763 L121.283289,81.1751447 L123.921118,81.6032368 L124.525066,81.1413947 L126.704605,82.4807368 L127.434671,81.9211974 L128.697632,82.3599474 L129.631974,82.9514605 L131.717368,83.1113289 L132.486513,86.1061974 L134.134934,86.9304079 L135.452961,88.1933684 L137.795921,88.6356711 L137.703553,87.3336316 L138.906118,86.6692895 L137.978882,85.0084342 L136.550724,84.2943553 L136.715921,83.1113289 C136.715921,83.1113289 132.871974,83.0420526 131.278618,80.4841579 C129.687039,77.9244868 129.742105,75.4767237 129.742105,75.4767237 C129.742105,75.4767237 131.005066,79.7025789 132.980329,80.2958684 C134.957368,80.8891579 136.392632,81.1751447 136.392632,81.1751447 L135.452961,78.0221842 L137.483289,78.7593553 L138.3075,80.2958684 L139.128158,81.1413947 L139.680592,77.4821842 L138.906118,76.1463947 L138.087237,76.9368553 L136.344671,76.1463947 L136.605789,75.2937632 L138.215132,75.2937632 L133.969737,73.8052105 L132.376382,72.8726447 L122.054211,61.2306711 C122.054211,61.2306711 122.382829,60.9020526 123.425526,61.2306711 C124.47,61.5610658 128.807763,66.7230395 128.807763,66.7230395 L130.839868,69.1388289 L131.772434,69.4123816 L133.859605,72.6523816 L134.902303,72.6523816 L137.319868,73.5867237 C137.319868,73.5867237 137.428224,70.8405395 137.428224,69.7427763 C137.428224,68.6450132 137.813684,68.7533684 137.813684,68.7533684 C137.813684,68.7533684 139.064211,68.8990263 138.906118,67.4264605 C138.74625,65.9538947 135.781579,64.6358684 135.781579,64.6358684 L133.365789,64.2504079 L132.541579,61.8896842 L131.058355,61.5610658 L131.005066,61.0850132 L129.631974,61.8896842 L129.466776,61.3408026 L127.489737,60.8469868 L127.269474,60.1329079 L125.441645,60.1329079 L123.921118,57.3316579 L123.921118,55.1361316 L121.613684,56.4541579 L119.252961,57.4968553 L118.483816,55.7951447 L118.704079,54.8608026 L118.869276,52.8286974 L120.022105,52.8286974 L119.746776,50.4129079 L120.350724,50.1393553 L120.954671,50.4679737 L122.162566,49.5354079 L121.283289,48.546 C121.283289,48.546 124.525066,48.8213289 124.525066,46.8442895 C124.525066,44.86725 122.876645,41.9025789 122.109276,42.0109342 C121.340132,42.1210658 119.856908,42.0091579 119.856908,42.0091579 L119.856908,40.6378421 C119.856908,40.6378421 118.924342,40.1440263 117.824803,40.0338947 C116.727039,39.9255395 115.689671,41.1334342 115.549342,38.6625789 C115.409013,36.1899474 116.210132,35.7511974 116.210132,35.7511974 L110.051645,33.8292237 L109.802961,35.8613289 L108.822434,37.8934342 L99.5944737,30.7544211 C99.5944737,30.7544211 99.8680263,33.6640263 99.5394079,34.0494868 C99.2090132,34.4331711 98.0206579,34.4331711 98.1769737,34.8736974 C98.3315132,35.3124474 98.8803947,37.6731711 98.8803947,37.6731711 C98.8803947,37.6731711 94.87125,43.1655395 94.3223684,43.1655395 C93.7734868,43.1655395 92.2351974,43.3840263 92.2351974,43.3840263 L91.4678289,44.9773816 L90.9171711,45.306 L90.75375,46.8442895 L87.6238816,45.1408026 L85.7019079,47.2830395 C85.7019079,47.2830395 86.5243421,48.4909342 85.9203947,49.4803421 C85.3164474,50.4679737 84.5473026,50.9067237 84.5473026,50.9067237 C84.5473026,50.9067237 83.4495395,55.2995526 82.6803947,55.46475 C81.9130263,55.6299474 79.7707895,54.3119211 79.7707895,54.3119211 C79.7707895,54.3119211 79.2219079,55.026 78.9465789,54.6423158 C78.6730263,54.2568553 78.8364474,53.6529079 78.8364474,53.6529079 L78.2875658,52.5000789 C78.2875658,52.5000789 76.5307895,50.8516579 75.7616447,51.8410658 C74.9925,52.8286974 75.5413816,55.2462632 75.5413816,55.2462632 L73.2410526,56.7827763 L73.67625,58.1558684 L72.2480921,60.5716579 L70.875,61.0654737 L68.4041447,66.9965921 L66.3720395,67.4264605 L66.0434211,70.0163289 L64.2298026,71.9933684 L64.7804605,74.6294211 L64.1214474,75.7271842 L63.6809211,77.5940921 L60.3858553,78.8037632 L59.8920395,77.3756053 L56.2683553,80.0116579 L53.3569737,78.4183026 L52.0940132,82.2800132 L51.3817105,82.2800132 L50.99625,81.1644868 L49.8984868,82.2800132 L46.3831579,82.7560658 L46.3831579,82.2800132 L44.0775,80.8340921 L43.0348026,82.0419868 L42.2105921,82.2800132 L40.6172368,83.5802763 C40.6172368,83.5802763 37.3239474,83.6353421 35.8407237,81.9886974 C34.3575,80.3402763 33.48,78.5835 33.48,78.5835 L32.6557895,76.6064605 L33.0945395,75.6188289 L32.0518421,75.2333684 L31.2276316,77.0452105 C31.2276316,77.0452105 28.4832237,79.4627763 26.6145395,80.9442237 C24.7476316,82.4274474 19.8059211,82.5926447 19.2570395,83.5802763 C18.7081579,84.5696842 18.4967763,86.9304079 18.4967763,86.9304079 L16.0170395,87.2039605 L14.6990132,90.5540921 L11.2955921,91.1029737 L10.1409868,92.9698816 L6.38230263,93.7603421 L5.96842105,94.3429737 C5.96842105,94.3429737 2.94868421,94.5081711 2.01434211,94.5081711 C1.08177632,94.5081711 0,95.9842895 0,95.9842895" id="Fill-6" fill="#93278F"></path>
                <polygon id="Fill-8" fill="#FFFF00" points="103.574132 71.141625 104.849526 73.7261645 107.702289 74.1400461 105.638211 76.1526118 106.124921 78.9929408 103.574132 77.6518224 101.023342 78.9929408 101.510053 76.1526118 99.4459737 74.1400461 102.298737 73.7261645"></polygon>
            </g>
        </g>
    </g>
</svg>