<?xml version="1.0" encoding="UTF-8" standalone="no"?>
<svg width="153px" height="153px" viewBox="0 0 153 153" version="1.1" xmlns="http://www.w3.org/2000/svg" xmlns:xlink="http://www.w3.org/1999/xlink">
    <!-- Generator: Sketch 3.7.2 (28276) - http://www.bohemiancoding.com/sketch -->
    <title>Page 1</title>
    <desc>Created with Sketch.</desc>
    <defs>
        <filter x="-50%" y="-50%" width="200%" height="200%" filterUnits="objectBoundingBox" id="filter-1">
            <feOffset dx="0" dy="0" in="SourceAlpha" result="shadowOffsetOuter1"></feOffset>
            <feGaussianBlur stdDeviation="5" in="shadowOffsetOuter1" result="shadowBlurOuter1"></feGaussianBlur>
            <feColorMatrix values="0 0 0 0 0   0 0 0 0 0   0 0 0 0 0  0 0 0 0.5 0" type="matrix" in="shadowBlurOuter1" result="shadowMatrixOuter1"></feColorMatrix>
            <feMerge>
                <feMergeNode in="shadowMatrixOuter1"></feMergeNode>
                <feMergeNode in="SourceGraphic"></feMergeNode>
            </feMerge>
        </filter>
        <polygon id="path-2" points="1 133.223684 133.381711 133.223684 133.381711 0.841973684 1 0.841973684"></polygon>
        <polygon id="path-4" points="44.3422368 46.0307368 44.3422368 0.0454736842 0.628881579 0.0454736842 0.628881579 46.0307368"></polygon>
        <polygon id="path-6" points="44.3422368 46.0307368 44.3422368 0.0454736842 0.628881579 0.0454736842 0.628881579 46.0307368"></polygon>
        <polygon id="path-8" points="44.3422368 21.6985855 44.3422368 0.0452960526 0.628881579 0.0452960526 0.628881579 21.6985855 44.3422368 21.6985855"></polygon>
        <polygon id="path-10" points="44.3422368 11.9448249 44.3422368 0.515922751 0.628881579 0.515922751 0.628881579 11.9448249 44.3422368 11.9448249"></polygon>
        <polygon id="path-12" points="44.4115132 27.8249211 44.4115132 0.242289474 0.698157895 0.242289474 0.698157895 27.8249211"></polygon>
        <polygon id="path-14" points="44.4115132 42.5743816 44.4115132 0.552078947 0.698157895 0.552078947 0.698157895 42.5743816"></polygon>
        <polygon id="path-16" points="44.4115132 42.5743816 44.4115132 0.552078947 0.698157895 0.552078947 0.698157895 42.5743816"></polygon>
        <polygon id="path-18" points="44.4115132 20.2203355 44.4115132 0.487243421 0.698157895 0.487243421 0.698157895 20.2203355"></polygon>
    </defs>
    <g id="Page-1" stroke="none" stroke-width="1" fill="none" fill-rule="evenodd">
        <g id="Desktop-HD" transform="translate(-818.000000, -2016.000000)">
            <g id="Page-1" filter="url(#filter-1)" transform="translate(827.000000, 2024.384241)">
                <g id="Group-41" transform="translate(0.000000, 0.933809)">
                    <path d="M133.381178,67.0330066 C133.381178,103.589586 103.746901,133.223862 67.1903224,133.223862 C30.6337434,133.223862 0.999467105,103.589586 0.999467105,67.0330066 C0.999467105,30.4764276 30.6337434,0.842151316 67.1903224,0.842151316 C103.746901,0.842151316 133.381178,30.4764276 133.381178,67.0330066" id="Fill-1" fill="#FFFFFF"></path>
                    <path d="M120.463987,67.0330066 C120.463987,37.6101118 96.6116184,13.7595197 67.1905,13.7595197 C37.7676053,13.7595197 13.9170132,37.6101118 13.9170132,67.0330066 C13.9170132,96.4559013 37.7676053,120.306493 67.1905,120.306493 C96.6116184,120.306493 120.463987,96.4559013 120.463987,67.0330066" id="Fill-4" fill="#BEE0D6"></path>
                    <path d="M16.7180855,45.6458092 L16.7180855,45.6458092 C16.1816382,45.6458092 15.7428882,45.2070592 15.7428882,44.6706118 L15.7428882,39.2439671 C15.7428882,38.7092961 16.1816382,38.2705461 16.7180855,38.2705461 L16.7180855,38.2705461 C17.2545329,38.2705461 17.6932829,38.7092961 17.6932829,39.2439671 L17.6932829,44.6706118 C17.6932829,45.2070592 17.2545329,45.6458092 16.7180855,45.6458092" id="Fill-6" fill="#CCCCCC"></path>
                    <path d="M16.7180855,54.8908224 L16.7180855,54.8908224 C16.1816382,54.8908224 15.7428882,54.4520724 15.7428882,53.915625 L15.7428882,48.4889803 C15.7428882,47.9543092 16.1816382,47.5155592 16.7180855,47.5155592 L16.7180855,47.5155592 C17.2545329,47.5155592 17.6932829,47.9543092 17.6932829,48.4889803 L17.6932829,53.915625 C17.6932829,54.4520724 17.2545329,54.8908224 16.7180855,54.8908224" id="Fill-8" fill="#CCCCCC"></path>
                    <path d="M64.8716974,45.2454276 L64.8716974,45.2454276 C64.33525,45.2454276 63.8965,44.8066776 63.8965,44.2702303 L63.8965,38.8435855 C63.8965,38.3089145 64.33525,37.8701645 64.8716974,37.8701645 C65.4081447,37.8701645 65.8468947,38.3089145 65.8468947,38.8435855 L65.8468947,44.2702303 C65.8468947,44.8066776 65.4081447,45.2454276 64.8716974,45.2454276" id="Fill-10" fill="#CCCCCC"></path>
                    <path d="M58.4723421,118.120382 L23.0526053,118.120382 C19.2726053,118.120382 16.1800395,115.027816 16.1800395,111.246039 L16.1800395,23.8655132 C16.1800395,20.0837368 19.2726053,16.9911711 23.0526053,16.9911711 L58.4723421,16.9911711 C62.2523421,16.9911711 65.3466842,20.0837368 65.3466842,23.8655132 L65.3466842,111.246039 C65.3466842,115.027816 62.2523421,118.120382 58.4723421,118.120382" id="Fill-12" fill="#E6E6E6"></path>
                    <path d="M58.4723421,118.120382 L23.0526053,118.120382 C19.2726053,118.120382 16.1800395,115.027816 16.1800395,111.246039 L16.1800395,23.8655132 C16.1800395,20.0837368 19.2726053,16.9911711 23.0526053,16.9911711 L58.4723421,16.9911711 C62.2523421,16.9911711 65.3466842,20.0837368 65.3466842,23.8655132 L65.3466842,111.246039 C65.3466842,115.027816 62.2523421,118.120382 58.4723421,118.120382 L58.4723421,118.120382 Z" id="Stroke-14" stroke="#333333" stroke-width="0.25"></path>
                    <path d="M44.1337434,23.4152171 L37.0302566,23.4152171 C36.8508487,23.4152171 36.7034145,23.2677829 36.7034145,23.088375 C36.7034145,22.9089671 36.8508487,22.7615329 37.0302566,22.7615329 L44.1337434,22.7615329 C44.3131513,22.7615329 44.4605855,22.9089671 44.4605855,23.088375 C44.4605855,23.2677829 44.3131513,23.4152171 44.1337434,23.4152171" id="Fill-16" fill="#231F1F"></path>
                    <path d="M33.2738816,23.0885526 C33.2738816,23.5166447 32.9257237,23.8648026 32.4976316,23.8648026 C32.0695395,23.8648026 31.7231579,23.5166447 31.7231579,23.0885526 C31.7231579,22.6604605 32.0695395,22.3123026 32.4976316,22.3123026 C32.9257237,22.3123026 33.2738816,22.6604605 33.2738816,23.0885526" id="Fill-18" fill="#231F1F"></path>
                    <path d="M40.9695921,19.68975 C40.9695921,19.9100132 40.7919605,20.0876447 40.5716974,20.0876447 C40.3514342,20.0876447 40.1738026,19.9100132 40.1738026,19.68975 C40.1738026,19.4694868 40.3514342,19.2918553 40.5716974,19.2918553 C40.7919605,19.2918553 40.9695921,19.4694868 40.9695921,19.68975" id="Fill-20" fill="#231F1F"></path>
                    <path d="M43.9431447,111.382993 C43.9431447,113.262336 42.4190658,114.786414 40.5397237,114.786414 C38.6603816,114.786414 37.1380789,113.262336 37.1380789,111.382993 C37.1380789,109.503651 38.6603816,107.979572 40.5397237,107.979572 C42.4190658,107.979572 43.9431447,109.503651 43.9431447,111.382993" id="Fill-22" fill="#FFFFFF"></path>
                    <path d="M43.9431447,111.382993 C43.9431447,113.262336 42.4190658,114.786414 40.5397237,114.786414 C38.6603816,114.786414 37.1380789,113.262336 37.1380789,111.382993 C37.1380789,109.503651 38.6603816,107.979572 40.5397237,107.979572 C42.4190658,107.979572 43.9431447,109.503651 43.9431447,111.382993 L43.9431447,111.382993 Z" id="Stroke-24" stroke="#999999" stroke-width="0.5"></path>
                    <mask id="mask-3" fill="white">
                        <use xlink:href="#path-2"></use>
                    </mask>
                    <g id="Clip-27"></g>
                    <polygon id="Fill-26" fill="#FFFFFF" mask="url(#mask-3)" points="18.7773684 105.9075 62.4907237 105.9075 62.4907237 28.7194737 18.7773684 28.7194737"></polygon>
                    <polygon id="Stroke-28" stroke="#333333" stroke-width="0.5" mask="url(#mask-3)" points="18.7773684 105.9075 62.4907237 105.9075 62.4907237 28.7194737 18.7773684 28.7194737"></polygon>
                    <path d="M69.5094803,45.6458092 L69.5094803,45.6458092 C68.9730329,45.6458092 68.5342829,45.2070592 68.5342829,44.6706118 L68.5342829,39.2439671 C68.5342829,38.7092961 68.9730329,38.2705461 69.5094803,38.2705461 L69.5094803,38.2705461 C70.0459276,38.2705461 70.4846776,38.7092961 70.4846776,39.2439671 L70.4846776,44.6706118 C70.4846776,45.2070592 70.0459276,45.6458092 69.5094803,45.6458092" id="Fill-29" fill="#CCCCCC" mask="url(#mask-3)"></path>
                    <path d="M69.5094803,54.8908224 L69.5094803,54.8908224 C68.9730329,54.8908224 68.5342829,54.4520724 68.5342829,53.915625 L68.5342829,48.4889803 C68.5342829,47.9543092 68.9730329,47.5155592 69.5094803,47.5155592 L69.5094803,47.5155592 C70.0459276,47.5155592 70.4846776,47.9543092 70.4846776,48.4889803 L70.4846776,53.915625 C70.4846776,54.4520724 70.0459276,54.8908224 69.5094803,54.8908224" id="Fill-30" fill="#CCCCCC" mask="url(#mask-3)"></path>
                    <path d="M117.663092,45.2454276 L117.663092,45.2454276 C117.126645,45.2454276 116.687895,44.8066776 116.687895,44.2702303 L116.687895,38.8435855 C116.687895,38.3089145 117.126645,37.8701645 117.663092,37.8701645 C118.199539,37.8701645 118.638289,38.3089145 118.638289,38.8435855 L118.638289,44.2702303 C118.638289,44.8066776 118.199539,45.2454276 117.663092,45.2454276" id="Fill-31" fill="#CCCCCC" mask="url(#mask-3)"></path>
                    <path d="M111.263737,118.120382 L75.844,118.120382 C72.064,118.120382 68.9714342,115.027816 68.9714342,111.246039 L68.9714342,23.8655132 C68.9714342,20.0837368 72.064,16.9911711 75.844,16.9911711 L111.263737,16.9911711 C115.043737,16.9911711 118.138079,20.0837368 118.138079,23.8655132 L118.138079,111.246039 C118.138079,115.027816 115.043737,118.120382 111.263737,118.120382" id="Fill-32" fill="#E6E6E6" mask="url(#mask-3)"></path>
                    <path d="M111.263737,118.120382 L75.844,118.120382 C72.064,118.120382 68.9714342,115.027816 68.9714342,111.246039 L68.9714342,23.8655132 C68.9714342,20.0837368 72.064,16.9911711 75.844,16.9911711 L111.263737,16.9911711 C115.043737,16.9911711 118.138079,20.0837368 118.138079,23.8655132 L118.138079,111.246039 C118.138079,115.027816 115.043737,118.120382 111.263737,118.120382 L111.263737,118.120382 Z" id="Stroke-33" stroke="#333333" stroke-width="0.25" mask="url(#mask-3)"></path>
                    <path d="M96.9251382,23.4152171 L89.8216513,23.4152171 C89.6422434,23.4152171 89.4948092,23.2677829 89.4948092,23.088375 C89.4948092,22.9089671 89.6422434,22.7615329 89.8216513,22.7615329 L96.9251382,22.7615329 C97.1045461,22.7615329 97.2519803,22.9089671 97.2519803,23.088375 C97.2519803,23.2677829 97.1045461,23.4152171 96.9251382,23.4152171" id="Fill-34" fill="#231F1F" mask="url(#mask-3)"></path>
                    <path d="M86.0652763,23.0885526 C86.0652763,23.5166447 85.7171184,23.8648026 85.2890263,23.8648026 C84.8609342,23.8648026 84.5145526,23.5166447 84.5145526,23.0885526 C84.5145526,22.6604605 84.8609342,22.3123026 85.2890263,22.3123026 C85.7171184,22.3123026 86.0652763,22.6604605 86.0652763,23.0885526" id="Fill-35" fill="#231F1F" mask="url(#mask-3)"></path>
                    <path d="M93.7611645,19.68975 C93.7611645,19.9100132 93.5835329,20.0876447 93.3632697,20.0876447 C93.1430066,20.0876447 92.965375,19.9100132 92.965375,19.68975 C92.965375,19.4694868 93.1430066,19.2918553 93.3632697,19.2918553 C93.5835329,19.2918553 93.7611645,19.4694868 93.7611645,19.68975" id="Fill-36" fill="#231F1F" mask="url(#mask-3)"></path>
                    <path d="M96.7347171,111.382993 C96.7347171,113.262336 95.2106382,114.786414 93.3312961,114.786414 C91.4519539,114.786414 89.9296513,113.262336 89.9296513,111.382993 C89.9296513,109.503651 91.4519539,107.979572 93.3312961,107.979572 C95.2106382,107.979572 96.7347171,109.503651 96.7347171,111.382993" id="Fill-37" fill="#FFFFFF" mask="url(#mask-3)"></path>
                    <path d="M96.7347171,111.382993 C96.7347171,113.262336 95.2106382,114.786414 93.3312961,114.786414 C91.4519539,114.786414 89.9296513,113.262336 89.9296513,111.382993 C89.9296513,109.503651 91.4519539,107.979572 93.3312961,107.979572 C95.2106382,107.979572 96.7347171,109.503651 96.7347171,111.382993 L96.7347171,111.382993 Z" id="Stroke-38" stroke="#999999" stroke-width="0.5" mask="url(#mask-3)"></path>
                    <polygon id="Fill-39" fill="#FFFFFF" mask="url(#mask-3)" points="71.5676974 105.9075 115.281053 105.9075 115.281053 28.7194737 71.5676974 28.7194737"></polygon>
                    <polygon id="Stroke-40" stroke="#333333" stroke-width="0.5" mask="url(#mask-3)" points="71.5676974 105.9075 115.281053 105.9075 115.281053 28.7194737 71.5676974 28.7194737"></polygon>
                </g>
                <g id="Group-60" transform="translate(71.276316, 43.565388)">
                    <g id="Group-44">
                        <mask id="mask-5" fill="white">
                            <use xlink:href="#path-4"></use>
                        </mask>
                        <g id="Clip-43"></g>
                        <path d="M45.6488947,19.6186974 C45.5636316,19.6186974 45.4819211,19.6382368 45.3984342,19.6435658 C43.7571184,8.55580263 34.2023158,0.0454736842 22.6562632,0.0454736842 C11.0373816,0.0454736842 1.43817105,8.66593421 -0.110776316,19.8585 C-0.496236842,19.7092895 -0.913671053,19.6186974 -1.35242105,19.6186974 C-3.24064474,19.6186974 -4.77182895,21.1498816 -4.77182895,23.0381053 C-4.77182895,24.9263289 -3.24064474,26.4575132 -1.35242105,26.4575132 C-0.913671053,26.4575132 -0.496236842,26.3669211 -0.110776316,26.2159342 C1.43817105,37.4102763 11.0373816,46.0307368 22.6562632,46.0307368 C34.2023158,46.0307368 43.7571184,37.5204079 45.3984342,26.4326447 C45.4819211,26.4379737 45.5636316,26.4575132 45.6488947,26.4575132 C47.5371184,26.4575132 49.0683026,24.9263289 49.0683026,23.0381053 C49.0683026,21.1498816 47.5371184,19.6186974 45.6488947,19.6186974" id="Fill-42" fill="#FFEED7" mask="url(#mask-5)"></path>
                    </g>
                    <g id="Group-47">
                        <mask id="mask-7" fill="white">
                            <use xlink:href="#path-6"></use>
                        </mask>
                        <g id="Clip-46"></g>
                        <path d="M45.6488947,19.6186974 C45.5636316,19.6186974 45.4819211,19.6382368 45.3984342,19.6435658 C43.7571184,8.55580263 34.2023158,0.0454736842 22.6562632,0.0454736842 C11.0373816,0.0454736842 1.43817105,8.66593421 -0.110776316,19.8585 C-0.496236842,19.7092895 -0.913671053,19.6186974 -1.35242105,19.6186974 C-3.24064474,19.6186974 -4.77182895,21.1498816 -4.77182895,23.0381053 C-4.77182895,24.9263289 -3.24064474,26.4575132 -1.35242105,26.4575132 C-0.913671053,26.4575132 -0.496236842,26.3669211 -0.110776316,26.2159342 C1.43817105,37.4102763 11.0373816,46.0307368 22.6562632,46.0307368 C34.2023158,46.0307368 43.7571184,37.5204079 45.3984342,26.4326447 C45.4819211,26.4379737 45.5636316,26.4575132 45.6488947,26.4575132 C47.5371184,26.4575132 49.0683026,24.9263289 49.0683026,23.0381053 C49.0683026,21.1498816 47.5371184,19.6186974 45.6488947,19.6186974 L45.6488947,19.6186974 Z" id="Stroke-45" stroke="#000000" stroke-width="2" mask="url(#mask-7)"></path>
                    </g>
                    <path d="M17.05625,23.0381053 C17.05625,24.2761974 16.0526316,25.2780395 14.8163158,25.2780395 C13.5782237,25.2780395 12.5763816,24.2761974 12.5763816,23.0381053 C12.5763816,21.8000132 13.5782237,20.7981711 14.8163158,20.7981711 C16.0526316,20.7981711 17.05625,21.8000132 17.05625,23.0381053" id="Fill-48" fill="#000000"></path>
                    <path d="M32.7380987,23.0381053 C32.7380987,24.2761974 31.7344803,25.2780395 30.4981645,25.2780395 C29.2600724,25.2780395 28.2582303,24.2761974 28.2582303,23.0381053 C28.2582303,21.8000132 29.2600724,20.7981711 30.4981645,20.7981711 C31.7344803,20.7981711 32.7380987,21.8000132 32.7380987,23.0381053" id="Fill-50" fill="#000000"></path>
                    <path d="M14.8161382,32.8339539 C14.8161382,36.1254671 18.0952171,38.7881645 22.1487697,38.7881645" id="Stroke-52" stroke="#000000" stroke-width="2"></path>
                    <g id="Group-56">
                        <mask id="mask-9" fill="white">
                            <use xlink:href="#path-8"></use>
                        </mask>
                        <g id="Clip-55"></g>
                        <path d="M2.62741447,21.6985855 C2.81392763,12.8134539 10.1252434,5.59805921 19.0530066,5.59805921 L26.7799803,5.59805921 C35.7077434,5.59805921 43.0208355,12.8134539 43.2055724,21.6985855 L48.7956382,21.6985855 C48.2734013,20.4764803 47.0619539,19.6185197 45.6497829,19.6185197 C45.5627434,19.6185197 45.4828092,19.6380592 45.3975461,19.6433882 C43.7562303,8.555625 34.2014276,0.0452960526 22.6571513,0.0452960526 C11.0382697,0.0452960526 1.43728289,8.66575658 -0.111664474,19.8600987 C-0.497125,19.7091118 -0.912782895,19.6185197 -1.35153289,19.6185197 C-2.76548026,19.6185197 -3.97692763,20.4764803 -4.49738816,21.6985855 L2.62741447,21.6985855 Z" id="Fill-54" fill="#000000" mask="url(#mask-9)"></path>
                    </g>
                    <g id="Group-59" transform="translate(0.000000, 17.763158)">
                        <mask id="mask-11" fill="white">
                            <use xlink:href="#path-10"></use>
                        </mask>
                        <g id="Clip-58"></g>
                        <path d="M41.9859539,9.94292763 C41.1191118,11.0637829 34.5378618,11.2094408 33.6070724,11.1650329 C32.6745066,11.120625 28.5800987,11.1632566 27.9939145,10.3674671 C27.4041776,9.568125 24.6650987,4.37773026 25.3649671,3.16983553 C26.0470724,1.99213816 31.1220066,1.31536184 34.9233224,1.299375 C38.7761513,1.28338816 41.6999671,1.19457237 42.1902303,2.12003289 C42.6787171,3.04726974 42.7550987,4.09351974 42.7550987,4.09351974 C42.7550987,4.09351974 43.2560197,8.30161184 41.9859539,9.94292763 M17.7037171,10.2555592 C17.1583882,11.0815461 13.0675329,11.2520724 12.1385197,11.3462171 C11.2112829,11.4385855 4.63180921,11.6375329 3.708125,10.5628618 C2.35279605,8.99082237 2.63345395,4.76141447 2.63345395,4.76141447 C2.63345395,4.76141447 2.65476974,3.71338816 3.09529605,2.76128289 C3.53582237,1.81095395 6.45963816,1.74700658 10.3071382,1.56226974 C14.1049013,1.37930921 19.2100329,1.78963816 19.9525329,2.93003289 C20.7145724,4.100625 18.2508224,9.42601974 17.7037171,10.2555592 M46.2420066,1.72391447 C46.0732566,1.198125 38.8969408,0.293980263 34.6035855,0.565756579 C30.3102303,0.835756579 24.1908224,1.96549342 24.1908224,1.96549342 C24.1908224,1.96549342 23.2635855,2.46819079 22.3736513,2.46819079 C21.4837171,2.46819079 19.6470066,1.73990132 18.8920724,1.57825658 C18.288125,1.44858553 15.1849013,0.860625 10.7707566,0.960098684 C5.33878289,1.08088816 0.945953947,1.96549342 0.945953947,1.96549342 L0.272730263,2.63694079 L0.199901316,5.67621711 C0.199901316,5.67621711 0.940625,6.20378289 1.34917763,6.55549342 C1.75950658,6.90542763 2.61036184,10.513125 3.18944079,10.9376645 C3.77029605,11.3639803 7.05825658,11.9821382 11.6979934,11.9430592 C16.3395066,11.9039803 17.5775987,11.1312829 18.4284539,10.5504276 C19.2793092,9.97134868 20.1852303,7.02976974 20.6257566,5.98174342 C20.9650329,5.17351974 21.3416118,4.46299342 22.3079276,4.43457237 C23.249375,4.40615132 23.5211513,4.87154605 23.7875987,5.29075658 C24.1748355,5.90358553 24.6526645,7.56088816 25.0025987,8.42417763 C25.3134539,9.18976974 25.8872039,10.8364145 26.7433882,11.0922039 C28.2052961,11.5309539 33.4738487,11.7885197 36.4900329,11.7494408 C39.5062171,11.7121382 40.8988487,11.4794408 41.9433224,11.0158224 C42.9877961,10.5504276 44.3839803,6.31036184 44.7712171,5.96753289 C45.1584539,5.62470395 45.794375,5.69398026 46.1016776,5.34049342 C46.7074013,4.64773026 46.4089803,2.25148026 46.2420066,1.72391447" id="Fill-57" fill="#040067" mask="url(#mask-11)"></path>
                    </g>
                </g>
                <g id="Group-81" transform="translate(17.986842, 41.789072)">
                    <g id="Group-63" transform="translate(0.000000, 21.315789)">
                        <mask id="mask-13" fill="white">
                            <use xlink:href="#path-12"></use>
                        </mask>
                        <g id="Clip-62"></g>
                        <path d="M43.6052434,22.4764342 L43.5395197,0.242289474 L0.748072368,0.242289474 L0.813796053,22.4764342 C-0.664098684,22.4764342 -1.86133553,23.6736711 -1.86133553,25.1515658 C-1.86133553,26.6276842 -0.664098684,27.8249211 0.813796053,27.8249211 C2.28991447,27.8249211 3.48715132,26.6276842 3.48715132,25.1515658 C3.48715132,23.6736711 4.68438816,22.4764342 6.16228289,22.4764342 C7.63840132,22.4764342 8.83741447,23.6736711 8.83741447,25.1515658 C8.83741447,26.6276842 10.0346513,27.8249211 11.5107697,27.8249211 C12.9886645,27.8249211 14.1859013,26.6276842 14.1859013,25.1515658 C14.1859013,23.6736711 15.3831382,22.4764342 16.8592566,22.4764342 C18.3371513,22.4764342 19.5343882,23.6736711 19.5343882,25.1515658 C19.5343882,26.6276842 20.731625,27.8249211 22.2095197,27.8249211 C23.6856382,27.8249211 24.882875,26.6276842 24.882875,25.1515658 C24.882875,23.6736711 26.0818882,22.4764342 27.5580066,22.4764342 C29.0359013,22.4764342 30.2331382,23.6736711 30.2331382,25.1515658 C30.2331382,26.6276842 31.430375,27.8249211 32.9064934,27.8249211 C34.3843882,27.8249211 35.581625,26.6276842 35.581625,25.1515658 C35.581625,23.6736711 36.7788618,22.4764342 38.2567566,22.4764342 C39.732875,22.4764342 40.9301118,23.6736711 40.9301118,25.1515658 C40.9301118,26.6276842 42.1273487,27.8249211 43.6052434,27.8249211 C45.0831382,27.8249211 46.280375,26.6276842 46.280375,25.1515658 C46.280375,23.6736711 45.0831382,22.4764342 43.6052434,22.4764342" id="Fill-61" fill="#FBB03B" mask="url(#mask-13)"></path>
                    </g>
                    <g id="Group-66" transform="translate(0.000000, 1.776316)">
                        <mask id="mask-15" fill="white">
                            <use xlink:href="#path-14"></use>
                        </mask>
                        <g id="Clip-65"></g>
                        <path d="M43.1549474,18.4378026 C43.0767895,18.4378026 43.0021842,18.4555658 42.9258026,18.4608947 C41.4265921,8.32701316 32.6942237,0.552078947 22.1446842,0.552078947 C11.5258684,0.552078947 2.75264474,8.42826316 1.33692105,18.6580658 C0.985210526,18.5195132 0.605078947,18.4378026 0.203631579,18.4378026 C-1.52294737,18.4378026 -2.92090789,19.8375395 -2.92090789,21.5623421 C-2.92090789,23.2889211 -1.52294737,24.6868816 0.203631579,24.6868816 C0.605078947,24.6868816 0.985210526,24.6051711 1.33692105,24.4666184 C2.75264474,34.6964211 11.5258684,42.5743816 22.1446842,42.5743816 C32.6942237,42.5743816 41.4265921,34.7976711 42.9258026,24.6637895 C43.0021842,24.6691184 43.0767895,24.6868816 43.1549474,24.6868816 C44.8815263,24.6868816 46.2794868,23.2889211 46.2794868,21.5623421 C46.2794868,19.8375395 44.8815263,18.4378026 43.1549474,18.4378026" id="Fill-64" fill="#FFEED7" mask="url(#mask-15)"></path>
                    </g>
                    <g id="Group-69" transform="translate(0.000000, 1.776316)">
                        <mask id="mask-17" fill="white">
                            <use xlink:href="#path-16"></use>
                        </mask>
                        <g id="Clip-68"></g>
                        <path d="M43.1549474,18.4378026 C43.0767895,18.4378026 43.0021842,18.4555658 42.9258026,18.4608947 C41.4265921,8.32701316 32.6942237,0.552078947 22.1446842,0.552078947 C11.5258684,0.552078947 2.75264474,8.42826316 1.33692105,18.6580658 C0.985210526,18.5195132 0.605078947,18.4378026 0.203631579,18.4378026 C-1.52294737,18.4378026 -2.92090789,19.8375395 -2.92090789,21.5623421 C-2.92090789,23.2889211 -1.52294737,24.6868816 0.203631579,24.6868816 C0.605078947,24.6868816 0.985210526,24.6051711 1.33692105,24.4666184 C2.75264474,34.6964211 11.5258684,42.5743816 22.1446842,42.5743816 C32.6942237,42.5743816 41.4265921,34.7976711 42.9258026,24.6637895 C43.0021842,24.6691184 43.0767895,24.6868816 43.1549474,24.6868816 C44.8815263,24.6868816 46.2794868,23.2889211 46.2794868,21.5623421 C46.2794868,19.8375395 44.8815263,18.4378026 43.1549474,18.4378026 L43.1549474,18.4378026 Z" id="Stroke-67" stroke="#000000" stroke-width="2" mask="url(#mask-17)"></path>
                    </g>
                    <path d="M17.0256974,23.3388355 C17.0256974,24.4703487 16.1091184,25.3869276 14.9776053,25.3869276 C13.8478684,25.3869276 12.9312895,24.4703487 12.9312895,23.3388355 C12.9312895,22.2073224 13.8478684,21.2907434 14.9776053,21.2907434 C16.1091184,21.2907434 17.0256974,22.2073224 17.0256974,23.3388355" id="Fill-70" fill="#000000"></path>
                    <path d="M31.3564803,23.3388355 C31.3564803,24.4703487 30.4399013,25.3869276 29.3083882,25.3869276 C28.1786513,25.3869276 27.2620724,24.4703487 27.2620724,23.3388355 C27.2620724,22.2073224 28.1786513,21.2907434 29.3083882,21.2907434 C30.4399013,21.2907434 31.3564803,22.2073224 31.3564803,23.3388355" id="Fill-72" fill="#000000"></path>
                    <path d="M14.9784934,32.2907566 C14.9784934,35.2980592 17.9751382,37.7316118 21.6787566,37.7316118" id="Stroke-74" stroke="#000000" stroke-width="2"></path>
                    <g id="Group-78">
                        <mask id="mask-19" fill="white">
                            <use xlink:href="#path-18"></use>
                        </mask>
                        <g id="Clip-77"></g>
                        <path d="M43.69175,15.0263882 C40.2687895,6.50540132 31.9378684,0.487243421 22.193,0.487243421 C12.5618158,0.487243421 4.31260526,6.36684868 0.816815789,14.7279671 C0.671157895,14.7030987 0.521947368,14.6835592 0.369184211,14.6835592 C-1.09627632,14.6835592 -2.28463158,15.8719145 -2.28463158,17.337375 C-2.28463158,18.8028355 -1.09627632,19.9911908 0.369184211,19.9911908 C1.75648684,19.9911908 2.88089474,18.923625 2.99990789,17.5665197 L3.04609211,17.5665197 C3.03898684,17.4901382 3.023,17.4155329 3.023,17.337375 C3.023,15.8719145 4.21135526,14.6835592 5.67681579,14.6835592 C7.14227632,14.6835592 8.33063158,15.8719145 8.33063158,17.337375 C8.33063158,17.4155329 8.31286842,17.4901382 8.30576316,17.5665197 L8.35372368,17.5665197 C8.47096053,18.923625 9.59714474,19.9911908 10.9826711,19.9911908 C12.3699737,19.9911908 13.4943816,18.923625 13.6133947,17.5665197 L13.6595789,17.5665197 C13.6524737,17.4901382 13.6364868,17.4155329 13.6364868,17.337375 C13.6364868,15.8719145 14.8248421,14.6835592 16.2903026,14.6835592 C17.7557632,14.6835592 18.9441184,15.8719145 18.9441184,17.337375 C18.9441184,17.4155329 18.9281316,17.4901382 18.9210263,17.5665197 L19.0506974,17.5665197 C19.1679342,18.923625 20.2941184,19.9911908 21.6796447,19.9911908 C23.0669474,19.9911908 24.1931316,18.923625 24.3103684,17.5665197 L24.3565526,17.5665197 C24.3512237,17.4901382 24.3334605,17.4155329 24.3334605,17.337375 C24.3334605,15.8719145 25.5218158,14.6835592 26.9872763,14.6835592 C28.4527368,14.6835592 29.6410921,15.8719145 29.6410921,17.337375 C29.6410921,17.4155329 29.6251053,17.4901382 29.618,17.5665197 L29.6997105,17.5665197 C29.6997105,19.0319803 30.8880658,20.2203355 32.3535263,20.2203355 C33.8189868,20.2203355 35.0055658,19.0319803 35.0055658,17.5665197 C35.0055658,16.1010592 36.1939211,14.9127039 37.6593816,14.9127039 C39.1248421,14.9127039 40.3131974,16.1010592 40.3131974,17.5665197 C40.3131974,19.0319803 41.5015526,20.2203355 42.9670132,20.2203355 C44.4324737,20.2203355 45.6208289,19.0319803 45.6208289,17.5665197 C45.6208289,16.3550724 44.8019474,15.3425724 43.69175,15.0263882" id="Fill-76" fill="#FBB03B" mask="url(#mask-19)"></path>
                    </g>
                    <path d="M37.4353882,29.2280329 C36.236375,30.1304013 35.1528224,30.6579671 31.7547303,30.668625 C30.1969013,30.6739539 28.7492039,30.7823092 27.7722303,30.0042829 C26.7952566,29.2262566 24.5837434,25.7713224 24.5055855,23.2880329 C24.4292039,20.8047434 26.4133487,19.7531645 28.2163092,19.6625724 C30.0192697,19.5719803 36.843875,19.0692829 38.0020329,21.0001382 C39.1619671,22.9309934 38.7853882,25.4444803 38.7853882,25.4444803 C38.7853882,25.4444803 38.6344013,28.3256645 37.4353882,29.2280329 M15.8140724,29.1818487 C14.8211118,29.9385592 13.3751908,29.7982303 11.8173618,29.7609276 C8.42282237,29.6792171 7.34992763,29.1285592 6.16867763,28.2013224 C4.98920395,27.2740855 4.90038816,24.3893487 4.90038816,24.3893487 C4.90038816,24.3893487 4.57709868,21.8687566 5.77611184,19.9627697 C6.975125,18.0567829 13.7872961,18.7033618 15.5884803,18.8330329 C17.3878882,18.9609276 19.3507171,20.0551382 19.2210461,22.534875 C19.091375,25.0163882 16.8070329,28.4233618 15.8140724,29.1818487 M41.3876908,20.3961908 C41.3876908,20.3961908 40.8334803,20.2949408 40.3929539,20.1688224 C39.9542039,20.0444803 40.4160461,19.6430329 39.5190066,19.5417829 C38.6237434,19.4405329 37.5774934,19.3215197 37.5774934,19.3215197 L31.6659145,19.1048092 C31.6659145,19.1048092 27.4205197,19.0337566 26.2534803,19.3250724 C25.0864408,19.6181645 24.8501908,20.1848092 24.3350592,20.3908618 C23.8199276,20.5969145 20.2868355,20.2718487 19.8924934,20.2274408 C19.496375,20.1830329 19.6722303,20.0444803 18.5744671,19.1669803 C17.370125,18.2006645 10.3252566,17.8951382 10.3252566,17.8951382 C10.3252566,17.8951382 6.98578289,17.6677697 4.99986184,18.5026382 C4.31953289,18.788625 3.59657237,18.3427697 3.21999342,18.5275066 C2.72440132,18.7690855 2.81321711,19.2522434 2.81321711,19.2522434 C2.85051974,19.6643487 3.11519079,20.0213882 3.50065132,20.172375 L4.60907237,20.6129013 C4.60907237,20.6129013 4.27334868,22.669875 4.36571711,23.7623092 C4.55045395,25.9258618 4.42611184,27.496125 5.77078289,28.7235592 C7.380125,30.1925724 14.6647961,31.3187566 16.0609803,30.3400066 C17.4571645,29.3594803 20.0754539,23.6130987 20.6083487,22.9185592 C21.1412434,22.2222434 22.2816382,22.1618487 23.0436776,22.7782303 C23.8057171,23.3946118 24.7347303,29.2138224 27.0972303,30.3844145 C27.9196645,30.7911908 29.6764408,31.3205329 30.9198618,31.3471776 C32.1650592,31.3755987 36.5010461,31.1482303 37.6911776,29.9971776 C38.8795329,28.846125 39.6806513,23.4550066 40.0519013,22.8528355 C40.421375,22.2524408 41.4480855,21.5365855 41.5990724,21.2132961 C41.7482829,20.8900066 41.3876908,20.3961908 41.3876908,20.3961908" id="Fill-79" fill="#42210B"></path>
                </g>
            </g>
        </g>
    </g>
</svg>