<?xml version="1.0" encoding="UTF-8" standalone="no"?>
<svg width="154px" height="155px" viewBox="0 0 154 155" version="1.1" xmlns="http://www.w3.org/2000/svg" xmlns:xlink="http://www.w3.org/1999/xlink">
    <!-- Generator: Sketch 3.7.2 (28276) - http://www.bohemiancoding.com/sketch -->
    <title>Page 1</title>
    <desc>Created with Sketch.</desc>
    <defs>
        <filter x="-50%" y="-50%" width="200%" height="200%" filterUnits="objectBoundingBox" id="filter-1">
            <feOffset dx="0" dy="0" in="SourceAlpha" result="shadowOffsetOuter1"></feOffset>
            <feGaussianBlur stdDeviation="5" in="shadowOffsetOuter1" result="shadowBlurOuter1"></feGaussianBlur>
            <feColorMatrix values="0 0 0 0 0   0 0 0 0 0   0 0 0 0 0  0 0 0 0.5 0" type="matrix" in="shadowBlurOuter1" result="shadowMatrixOuter1"></feColorMatrix>
            <feMerge>
                <feMergeNode in="shadowMatrixOuter1"></feMergeNode>
                <feMergeNode in="SourceGraphic"></feMergeNode>
            </feMerge>
        </filter>
    </defs>
    <g id="Page-1" stroke="none" stroke-width="1" fill="none" fill-rule="evenodd">
        <g id="Desktop-HD" transform="translate(-234.000000, -1242.000000)">
            <g id="Page-1" filter="url(#filter-1)" transform="translate(243.801339, 1252.000000)">
                <path d="M134.202118,67.6165261 C134.202118,104.692807 104.172718,134.748375 67.128718,134.748375 C30.084718,134.748375 0.0553180139,104.692807 0.0553180139,67.6165261 C0.0553180139,30.5402454 30.084718,0.484677372 67.128718,0.484677372 C104.172718,0.484677372 134.202118,30.5402454 134.202118,67.6165261" id="Fill-1" fill="#FFFFFF"></path>
                <path d="M121.113058,67.6165261 C121.113058,37.7753447 96.942658,13.5856838 67.129258,13.5856838 C37.314058,13.5856838 13.145458,37.7753447 13.145458,67.6165261 C13.145458,97.4577075 37.314058,121.647368 67.129258,121.647368 C96.942658,121.647368 121.113058,97.4577075 121.113058,67.6165261" id="Fill-4" fill="#BEE0D6"></path>
                <path d="M82.748218,96.8022968 C74.572618,100.893659 65.641018,102.034052 62.849218,102.034052 C60.057418,102.034052 48.487018,101.938569 44.078818,95.1989008 C39.670618,88.4610345 37.591618,83.0383131 38.709418,69.7679592 C39.911818,55.4869254 45.900418,45.9602309 50.812618,39.4421559 C53.042818,36.4821788 57.377218,31.4251759 61.796218,28.6381493 C42.709018,31.2432175 27.999418,47.6122693 27.999418,67.4313248 C27.999418,89.0609568 45.517018,106.595623 67.129618,106.595623 C82.073218,106.595623 95.056618,98.2075203 101.648218,85.8829899 C96.399418,89.1150038 88.036618,94.1557926 82.748218,96.8022968" id="Fill-6" fill="#231F1F"></path>
                <path d="M85.062118,54.6574832 C85.062118,57.1058149 83.080318,59.0893418 80.634118,59.0893418 C78.187918,59.0893418 76.206118,57.1058149 76.206118,54.6574832 C76.206118,52.2091516 78.187918,50.2256246 80.634118,50.2256246 C83.080318,50.2256246 85.062118,52.2091516 85.062118,54.6574832 L85.062118,54.6574832 Z M96.798118,60.1864971 C97.334518,60.2603614 97.381318,60.4963669 97.397518,60.6350876 C97.467718,61.2422162 91.164118,66.6343109 90.562918,66.9351728 C89.959918,67.2378364 85.933318,66.821674 84.423118,67.2738677 C83.222518,67.6341814 81.003118,71.3598252 80.634118,73.0154667 C80.263318,74.6729097 79.876318,80.2793911 79.537918,80.8054491 C79.199518,81.3333087 70.350718,83.3726843 69.898918,83.6753478 C69.447118,83.9762097 67.130518,85.5111461 66.451918,85.0589524 C65.775118,84.6067587 66.489718,83.327645 66.489718,83.327645 C66.489718,83.327645 72.534118,72.3308706 73.671718,68.3548089 C73.729318,68.1566363 73.162318,67.7098473 73.162318,67.7098473 L63.370318,68.3494042 C63.370318,68.3494042 62.918518,68.42507 62.848318,67.9728763 C62.778118,67.5224842 68.181718,60.2585598 68.181718,60.2585598 L96.798118,60.1864971 Z M78.304918,34.3880355 C79.507318,36.7156621 81.751918,41.4483826 81.832918,45.058726 C81.912118,48.6690694 81.350518,49.0077643 80.549518,48.9266937 C79.748518,48.8474247 79.071718,47.3395118 79.071718,46.6170828 C79.071718,45.8964554 77.664118,43.0517786 76.542718,41.2069725 C75.419518,39.3621663 73.644718,34.6564692 68.113318,34.4961296 C62.581918,34.33579 54.804118,48.6744741 53.695318,51.4885241 C50.408518,59.8207787 50.847718,71.3670315 52.577518,76.1303787 C53.961718,79.9388946 61.262518,88.2080942 71.970718,88.1792691 C82.475518,88.1522456 98.333518,80.1676938 105.213118,76.413225 C105.889918,73.5289137 106.258918,70.5238974 106.258918,67.4306042 C106.258918,47.9268231 92.013718,31.759547 73.369318,28.7671416 C75.838918,30.5723133 77.624518,33.0710889 78.304918,34.3880355 L78.304918,34.3880355 Z" id="Fill-8" fill="#231F1F"></path>
            </g>
        </g>
    </g>
</svg>