<?xml version="1.0" encoding="UTF-8" standalone="no"?>
<svg width="155px" height="155px" viewBox="0 0 155 155" version="1.1" xmlns="http://www.w3.org/2000/svg" xmlns:xlink="http://www.w3.org/1999/xlink">
    <!-- Generator: Sketch 3.7.2 (28276) - http://www.bohemiancoding.com/sketch -->
    <title>Page 1</title>
    <desc>Created with Sketch.</desc>
    <defs>
        <filter x="-50%" y="-50%" width="200%" height="200%" filterUnits="objectBoundingBox" id="filter-1">
            <feOffset dx="0" dy="0" in="SourceAlpha" result="shadowOffsetOuter1"></feOffset>
            <feGaussianBlur stdDeviation="5" in="shadowOffsetOuter1" result="shadowBlurOuter1"></feGaussianBlur>
            <feColorMatrix values="0 0 0 0 0   0 0 0 0 0   0 0 0 0 0  0 0 0 0.5 0" type="matrix" in="shadowBlurOuter1" result="shadowMatrixOuter1"></feColorMatrix>
            <feMerge>
                <feMergeNode in="shadowMatrixOuter1"></feMergeNode>
                <feMergeNode in="SourceGraphic"></feMergeNode>
            </feMerge>
        </filter>
    </defs>
    <g id="Page-1" stroke="none" stroke-width="1" fill="none" fill-rule="evenodd">
        <g id="Desktop-HD" transform="translate(-63.000000, -1240.000000)">
            <g id="Page-1" filter="url(#filter-1)" transform="translate(73.000000, 1250.000000)">
                <path d="M67.6312536,134.74424 C30.4335441,134.74424 0.279540747,104.609077 0.279540747,67.4346084 C0.279540747,30.2601398 30.4335441,0.124976581 67.6312536,0.124976581 C104.828963,0.124976581 134.982966,30.2601398 134.982966,67.4346084 C134.982966,104.609077 104.828963,134.74424 67.6312536,134.74424 Z" id="Fill-1" fill="#FFFFFF"></path>
                <path d="M67.6317959,13.260678 C37.6928813,13.260678 13.4239967,37.5143996 13.4239967,67.4346084 C13.4239967,97.3548172 37.6928813,121.608539 67.6317959,121.608539 C97.5689029,121.608539 121.839595,97.3548172 121.839595,67.4346084 C121.839595,37.5143996 97.5689029,13.260678 67.6317959,13.260678 Z" id="Fill-4" fill="#BEE0D6"></path>
                <path d="M57.4635182,93.337518 L14.9825771,93.337518 C10.3174999,93.337518 6.49831817,89.5225288 6.49831817,84.85856 L6.49831817,40.4731838 C6.49831817,35.809215 10.3174999,31.9924195 14.9825771,31.9924195 L57.4635182,31.9924195 C62.1304028,31.9924195 65.9477771,35.809215 65.9477771,40.4731838 L65.9477771,84.85856 C65.9477771,89.5225288 62.1304028,93.337518 57.4635182,93.337518" id="Fill-6" fill="#FFFFFF"></path>
                <path d="M57.4635182,93.337518 L14.9825771,93.337518 C10.3174999,93.337518 6.49831817,89.5225288 6.49831817,84.85856 L6.49831817,40.4731838 C6.49831817,35.809215 10.3174999,31.9924195 14.9825771,31.9924195 L57.4635182,31.9924195 C62.1304028,31.9924195 65.9477771,35.809215 65.9477771,40.4731838 L65.9477771,84.85856 C65.9477771,89.5225288 62.1304028,93.337518 57.4635182,93.337518 L57.4635182,93.337518 Z" id="Stroke-8" stroke="#999999" stroke-width="0.5"></path>
                <path d="M36.5426081,93.2932626 L35.9045716,32.0366748" id="Stroke-10" stroke="#999999" stroke-width="0.5"></path>
                <path d="M10.6632687,84.5059625 L10.6632687,84.5059625 C8.60456166,84.5059625 6.92000066,86.189471 6.92000066,88.2468917 L6.92000066,99.1355067 C6.92000066,101.192928 8.60456166,102.876436 10.6632687,102.876436 L10.6632687,102.876436 C12.7219758,102.876436 14.4065368,101.192928 14.4065368,99.1355067 L14.4065368,88.2468917 C14.4065368,86.189471 12.7219758,84.5059625 10.6632687,84.5059625" id="Fill-12" fill="#42210B"></path>
                <path d="M10.6632687,84.5059625 L10.6632687,84.5059625 C8.60456166,84.5059625 6.92000066,86.189471 6.92000066,88.2468917 L6.92000066,99.1355067 C6.92000066,101.192928 8.60456166,102.876436 10.6632687,102.876436 L10.6632687,102.876436 C12.7219758,102.876436 14.4065368,101.192928 14.4065368,99.1355067 L14.4065368,88.2468917 C14.4065368,86.189471 12.7219758,84.5059625 10.6632687,84.5059625 L10.6632687,84.5059625 Z" id="Stroke-14" stroke="#000000" stroke-width="0.5"></path>
                <path d="M61.0253163,84.5059625 L61.0253163,84.5059625 C58.9666093,84.5059625 57.2820483,86.189471 57.2820483,88.2468917 L57.2820483,99.1355067 C57.2820483,101.192928 58.9666093,102.876436 61.0253163,102.876436 L61.0253163,102.876436 C63.0840234,102.876436 64.7685844,101.192928 64.7685844,99.1355067 L64.7685844,88.2468917 C64.7685844,86.189471 63.0840234,84.5059625 61.0253163,84.5059625" id="Fill-16" fill="#42210B"></path>
                <path d="M61.0253163,84.5059625 L61.0253163,84.5059625 C58.9666093,84.5059625 57.2820483,86.189471 57.2820483,88.2468917 L57.2820483,99.1355067 C57.2820483,101.192928 58.9666093,102.876436 61.0253163,102.876436 L61.0253163,102.876436 C63.0840234,102.876436 64.7685844,101.192928 64.7685844,99.1355067 L64.7685844,88.2468917 C64.7685844,86.189471 63.0840234,84.5059625 61.0253163,84.5059625 L61.0253163,84.5059625 Z" id="Stroke-18" stroke="#000000" stroke-width="0.5"></path>
                <path d="M7.41000548,80.0638122 C7.41000548,80.0638122 7.31240216,71.6498824 9.75971502,63.626122 C12.2070279,55.6023616 14.520588,49.5348669 15.4207076,48.6551796 C16.3208271,47.7736858 23.2723524,46.9915408 36.6855789,46.7964561 C50.1006129,46.5995651 53.5275739,47.0890831 55.7796802,47.9705769 C58.0317864,48.8502642 61.3611441,59.9086751 62.3407922,65.7792788 C63.3186329,71.6498824 64.8857084,82.3163176 63.1234262,83.9799564 C61.3611441,85.6435951 49.5131856,85.4485105 36.5879756,85.4485105 C23.6645731,85.4485105 9.26989095,86.0355708 8.09503618,84.7621014 C6.92018141,83.4904384 7.41000548,80.0638122 7.41000548,80.0638122" id="Fill-20" fill="#FFFFFF"></path>
                <path d="M7.41000548,80.0638122 C7.41000548,80.0638122 7.31240216,71.6498824 9.75971502,63.626122 C12.2070279,55.6023616 14.520588,49.5348669 15.4207076,48.6551796 C16.3208271,47.7736858 23.2723524,46.9915408 36.6855789,46.7964561 C50.1006129,46.5995651 53.5275739,47.0890831 55.7796802,47.9705769 C58.0317864,48.8502642 61.3611441,59.9086751 62.3407922,65.7792788 C63.3186329,71.6498824 64.8857084,82.3163176 63.1234262,83.9799564 C61.3611441,85.6435951 49.5131856,85.4485105 36.5879756,85.4485105 C23.6645731,85.4485105 9.26989095,86.0355708 8.09503618,84.7621014 C6.92018141,83.4904384 7.41000548,80.0638122 7.41000548,80.0638122 L7.41000548,80.0638122 Z" id="Stroke-22" stroke="#000000" stroke-width="0.5"></path>
                <path d="M60.9962161,91.1951992 L10.1123522,91.1951992 C8.35729992,91.1951992 6.92036216,89.7591592 6.92036216,88.0052035 L6.92036216,88.0052035 C6.92036216,86.2512478 8.35729992,84.8152078 10.1123522,84.8152078 L60.9962161,84.8152078 C62.7512684,84.8152078 64.1882061,86.2512478 64.1882061,88.0052035 L64.1882061,88.0052035 C64.1882061,89.7591592 62.7512684,91.1951992 60.9962161,91.1951992" id="Fill-24" fill="#E6E6E6"></path>
                <path d="M60.9962161,91.1951992 L10.1123522,91.1951992 C8.35729992,91.1951992 6.92036216,89.7591592 6.92036216,88.0052035 L6.92036216,88.0052035 C6.92036216,86.2512478 8.35729992,84.8152078 10.1123522,84.8152078 L60.9962161,84.8152078 C62.7512684,84.8152078 64.1882061,86.2512478 64.1882061,88.0052035 L64.1882061,88.0052035 C64.1882061,89.7591592 62.7512684,91.1951992 60.9962161,91.1951992 L60.9962161,91.1951992 Z" id="Stroke-26" stroke="#000000"></path>
                <path d="M53.0728148,84.5059625 L19.0887849,84.5059625 C17.2975832,84.5059625 15.831726,83.0410211 15.831726,81.2509386 L15.831726,72.2336914 C15.831726,70.4436088 17.2975832,68.9786674 19.0887849,68.9786674 L53.0728148,68.9786674 C54.8640164,68.9786674 56.3298737,70.4436088 56.3298737,72.2336914 L56.3298737,81.2509386 C56.3298737,83.0410211 54.8640164,84.5059625 53.0728148,84.5059625" id="Fill-28" fill="#CCCCCC"></path>
                <path d="M47.2010714,74.7893006 L25.2457469,74.7893006 C24.6836241,74.7893006 24.224527,74.3304904 24.224527,73.7687187 C24.224527,73.2069471 24.6836241,72.7481369 25.2457469,72.7481369 L47.2010714,72.7481369 C47.7631942,72.7481369 48.2222913,73.2069471 48.2222913,73.7687187 C48.2222913,74.3304904 47.7631942,74.7893006 47.2010714,74.7893006" id="Fill-30" fill="#000000"></path>
                <path d="M47.2010714,78.5016897 L25.2457469,78.5016897 C24.6836241,78.5016897 24.224527,78.0428795 24.224527,77.4811078 L24.224527,77.4811078 C24.224527,76.9193362 24.6836241,76.460526 25.2457469,76.460526 L47.2010714,76.460526 C47.7631942,76.460526 48.2222913,76.9193362 48.2222913,77.4811078 L48.2222913,77.4811078 C48.2222913,78.0428795 47.7631942,78.5016897 47.2010714,78.5016897" id="Fill-32" fill="#000000"></path>
                <path d="M47.2010714,82.2140788 L25.2457469,82.2140788 C24.6836241,82.2140788 24.224527,81.7552686 24.224527,81.193497 L24.224527,81.193497 C24.224527,80.6317253 24.6836241,80.1729151 25.2457469,80.1729151 L47.2010714,80.1729151 C47.7631942,80.1729151 48.2222913,80.6317253 48.2222913,81.193497 L48.2222913,81.193497 C48.2222913,81.7552686 47.7631942,82.2140788 47.2010714,82.2140788" id="Fill-34" fill="#000000"></path>
                <path d="M20.2679776,82.2140788 L20.2679776,82.2140788 C19.4491942,82.2140788 18.7804307,81.5457332 18.7804307,80.7274613 L18.7804307,73.980783 C18.7804307,73.1625112 19.4491942,72.4941655 20.2679776,72.4941655 L20.2679776,72.4941655 C21.086761,72.4941655 21.7555245,73.1625112 21.7555245,73.980783 L21.7555245,80.7274613 C21.7555245,81.5457332 21.086761,82.2140788 20.2679776,82.2140788" id="Fill-36" fill="#000000"></path>
                <path d="M52.1790214,82.2140788 L52.1790214,82.2140788 C51.360238,82.2140788 50.6914745,81.5457332 50.6914745,80.7274613 L50.6914745,73.980783 C50.6914745,73.1625112 51.360238,72.4941655 52.1790214,72.4941655 L52.1790214,72.4941655 C52.9978048,72.4941655 53.6665683,73.1625112 53.6665683,73.980783 L53.6665683,80.7274613 C53.6665683,81.5457332 52.9978048,82.2140788 52.1790214,82.2140788" id="Fill-38" fill="#000000"></path>
                <path d="M40.0192745,77.5159702 C40.0192745,78.5762915 38.0635932,79.4379155 35.6524297,79.4379155 C33.2394588,79.4379155 31.2837774,78.5762915 31.2837774,77.5159702 C31.2837774,76.4556489 33.2394588,75.5940249 35.6524297,75.5940249 C38.0635932,75.5940249 40.0192745,76.4556489 40.0192745,77.5159702" id="Fill-40" fill="#170046"></path>
                <path d="M11.879153,84.2053876 L11.879153,84.2053876 C9.87828498,84.2053876 8.24071817,82.5688439 8.24071817,80.569226 L8.24071817,76.0840848 C8.24071817,74.0844669 9.87828498,72.4479232 11.879153,72.4479232 L11.879153,72.4479232 C13.8800211,72.4479232 15.5175879,74.0844669 15.5175879,76.0840848 L15.5175879,80.569226 C15.5175879,82.5688439 13.8800211,84.2053876 11.879153,84.2053876" id="Fill-42" fill="#E6E6E6"></path>
                <path d="M11.879153,84.2053876 L11.879153,84.2053876 C9.87828498,84.2053876 8.24071817,82.5688439 8.24071817,80.569226 L8.24071817,76.0840848 C8.24071817,74.0844669 9.87828498,72.4479232 11.879153,72.4479232 L11.879153,72.4479232 C13.8800211,72.4479232 15.5175879,74.0844669 15.5175879,76.0840848 L15.5175879,80.569226 C15.5175879,82.5688439 13.8800211,84.2053876 11.879153,84.2053876 L11.879153,84.2053876 Z" id="Stroke-44" stroke="#000000" stroke-width="0.5"></path>
                <path d="M13.1485384,76.281879 L10.6343492,76.281879 C9.94208863,76.281879 9.37635087,75.7164947 9.37635087,75.0246667 C9.37635087,74.3346449 9.94208863,73.7692606 10.6343492,73.7692606 L13.1485384,73.7692606 C13.840799,73.7692606 14.4065368,74.3346449 14.4065368,75.0246667 C14.4065368,75.7164947 13.840799,76.281879 13.1485384,76.281879" id="Fill-46" fill="#F8931E"></path>
                <path d="M13.4675567,78.8562742 L9.56161643,78.8562742 C8.93442473,78.8562742 8.42110357,78.3432737 8.42110357,77.7164739 L8.42110357,77.7164739 C8.42110357,77.0896741 8.93442473,76.5766736 9.56161643,76.5766736 L13.4675567,76.5766736 C14.0947484,76.5766736 14.6080695,77.0896741 14.6080695,77.7164739 L14.6080695,77.7164739 C14.6080695,78.3432737 14.0947484,78.8562742 13.4675567,78.8562742" id="Fill-48" fill="#F2F2F2"></path>
                <path d="M9.94877627,78.9735056 L9.94877627,78.9735056 C9.25651568,78.9735056 8.69077793,78.4081213 8.69077793,77.7162933 L8.69077793,77.7162933 C8.69077793,77.0262715 9.25651568,76.4608873 9.94877627,76.4608873 L9.94877627,76.4608873 C10.6410368,76.4608873 11.2067746,77.0262715 11.2067746,77.7162933 L11.2067746,77.7162933 C11.2067746,78.4081213 10.6410368,78.9735056 9.94877627,78.9735056" id="Fill-50" fill="#F8931E"></path>
                <path d="M12.7181801,82.8845921 L10.5799444,82.8845921 C9.54245726,82.8845921 8.69113942,82.0356125 8.69113942,80.9969672 L8.69113942,80.9969672 C8.69113942,79.958322 9.54245726,79.107536 10.5799444,79.107536 L12.7181801,79.107536 C13.7574747,79.107536 14.6069851,79.958322 14.6069851,80.9969672 L14.6069851,80.9969672 C14.6069851,82.0356125 13.7574747,82.8845921 12.7181801,82.8845921" id="Fill-52" fill="#FFFFFF"></path>
                <path d="M60.2822659,83.5955673 L60.2822659,83.5955673 C62.2831339,83.5955673 63.9207007,81.9590237 63.9207007,79.9594058 L63.9207007,75.4742646 C63.9207007,73.4746467 62.2831339,71.838103 60.2822659,71.838103 L60.2822659,71.838103 C58.2813978,71.838103 56.643831,73.4746467 56.643831,75.4742646 L56.643831,79.9594058 C56.643831,81.9590237 58.2813978,83.5955673 60.2822659,83.5955673" id="Fill-54" fill="#E6E6E6"></path>
                <path d="M60.2822659,83.5955673 L60.2822659,83.5955673 C62.2831339,83.5955673 63.9207007,81.9590237 63.9207007,79.9594058 L63.9207007,75.4742646 C63.9207007,73.4746467 62.2831339,71.838103 60.2822659,71.838103 L60.2822659,71.838103 C58.2813978,71.838103 56.643831,73.4746467 56.643831,75.4742646 L56.643831,79.9594058 C56.643831,81.9590237 58.2813978,83.5955673 60.2822659,83.5955673 L60.2822659,83.5955673 Z" id="Stroke-56" stroke="#000000" stroke-width="0.5"></path>
                <path d="M59.0128805,75.6722394 L61.5270697,75.6722394 C62.2193303,75.6722394 62.785068,75.1068551 62.785068,74.415027 C62.785068,73.7250053 62.2193303,73.159621 61.5270697,73.159621 L59.0128805,73.159621 C58.3206199,73.159621 57.7548822,73.7250053 57.7548822,74.415027 C57.7548822,75.1068551 58.3206199,75.6722394 59.0128805,75.6722394" id="Fill-58" fill="#F8931E"></path>
                <path d="M58.694043,78.2464539 L62.5999832,78.2464539 C63.2271749,78.2464539 63.7404961,77.7334535 63.7404961,77.1066537 L63.7404961,77.1066537 C63.7404961,76.4798538 63.2271749,75.9668534 62.5999832,75.9668534 L58.694043,75.9668534 C58.0668513,75.9668534 57.5535301,76.4798538 57.5535301,77.1066537 L57.5535301,77.1066537 C57.5535301,77.7334535 58.0668513,78.2464539 58.694043,78.2464539" id="Fill-60" fill="#F2F2F2"></path>
                <path d="M62.2126427,78.3636854 L62.2126427,78.3636854 C62.9049032,78.3636854 63.470641,77.7983011 63.470641,77.106473 L63.470641,77.106473 C63.470641,76.4164513 62.9049032,75.851067 62.2126427,75.851067 C61.5203821,75.851067 60.9546443,76.4164513 60.9546443,77.106473 L60.9546443,77.106473 C60.9546443,77.7983011 61.5203821,78.3636854 62.2126427,78.3636854" id="Fill-62" fill="#F8931E"></path>
                <path d="M59.4432388,82.2747718 L61.5814745,82.2747718 C62.6189617,82.2747718 63.4702795,81.4257922 63.4702795,80.387147 L63.4702795,80.387147 C63.4702795,79.3485017 62.6189617,78.4977158 61.5814745,78.4977158 L59.4432388,78.4977158 C58.4039442,78.4977158 57.5544339,79.3485017 57.5544339,80.387147 L57.5544339,80.387147 C57.5544339,81.4257922 58.4039442,82.2747718 59.4432388,82.2747718" id="Fill-64" fill="#FFFFFF"></path>
                <path d="M57.9408707,64.373766 L14.3646035,64.373766 C13.0469587,64.373766 12.0709255,63.1508741 12.3637354,61.8665666 L14.9773354,50.3890849 C15.1888093,49.4552074 16.020245,48.7922807 16.9782035,48.7922807 L54.6946566,48.7922807 C55.6146583,48.7922807 56.4207894,49.4010172 56.6720276,50.2861236 L59.9164342,61.7636053 C60.2869653,63.0732015 59.3018948,64.373766 57.9408707,64.373766" id="Fill-66" fill="#E6E6E6"></path>
                <path d="M57.9408707,64.373766 L14.3646035,64.373766 C13.0469587,64.373766 12.0709255,63.1508741 12.3637354,61.8665666 L14.9773354,50.3890849 C15.1888093,49.4552074 16.020245,48.7922807 16.9782035,48.7922807 L54.6946566,48.7922807 C55.6146583,48.7922807 56.4207894,49.4010172 56.6720276,50.2861236 L59.9164342,61.7636053 C60.2869653,63.0732015 59.3018948,64.373766 57.9408707,64.373766 L57.9408707,64.373766 Z" id="Stroke-68" stroke="#000000" stroke-width="0.5"></path>
                <path d="M60.4673507,94.6834216 L10.7836461,94.6834216 C9.82388017,94.6834216 9.03943867,93.8976639 9.03943867,92.9384975 L9.03943867,92.9384975 C9.03943867,91.9793312 9.82388017,91.1953798 10.7836461,91.1953798 L60.4673507,91.1953798 C61.4271167,91.1953798 62.2133656,91.9793312 62.2133656,92.9384975 L62.2133656,92.9384975 C62.2133656,93.8976639 61.4271167,94.6834216 60.4673507,94.6834216" id="Fill-70" fill="#000000"></path>
                <path d="M60.4673507,94.6834216 L10.7836461,94.6834216 C9.82388017,94.6834216 9.03943867,93.8976639 9.03943867,92.9384975 L9.03943867,92.9384975 C9.03943867,91.9793312 9.82388017,91.1953798 10.7836461,91.1953798 L60.4673507,91.1953798 C61.4271167,91.1953798 62.2133656,91.9793312 62.2133656,92.9384975 L62.2133656,92.9384975 C62.2133656,93.8976639 61.4271167,94.6834216 60.4673507,94.6834216 L60.4673507,94.6834216 Z" id="Stroke-72" stroke="#000000"></path>
                <path d="M10.0087842,62.0479231 L8.2392722,62.0479231 L8.2392722,59.8423825 C8.2392722,58.5851701 7.21082241,57.5555566 5.9510166,57.5555566 C4.69301826,57.5555566 3.662761,58.5851701 3.662761,59.8423825 L3.662761,63.0594733 C3.662761,64.318492 4.69301826,65.3462992 5.9510166,65.3462992 C6.12091867,65.3462992 6.28539834,65.3246231 6.4444556,65.2903027 L9.12493195,64.9796122 L10.0087842,62.0479231 Z" id="Fill-74" fill="#000000"></path>
                <path d="M61.595392,62.0479231 L63.3649041,62.0479231 L63.3649041,59.8423825 C63.3649041,58.5851701 64.3933539,57.5555566 65.6531597,57.5555566 C66.911158,57.5555566 67.9414153,58.5851701 67.9414153,59.8423825 L67.9414153,63.0594733 C67.9414153,64.318492 66.911158,65.3462992 65.6531597,65.3462992 C65.4832576,65.3462992 65.3187779,65.3246231 65.1597207,65.2903027 L62.4792443,64.9796122 L61.595392,62.0479231 Z" id="Fill-76" fill="#000000"></path>
                <path d="M53.4760611,62.295211 L53.4579864,55.8664484 L41.0768246,55.8664484 L41.0967067,62.295211 C40.6683366,62.295211 40.32311,62.6420282 40.32311,63.0683243 C40.32311,63.4946205 40.6683366,63.8414377 41.0967067,63.8414377 C41.5232694,63.8414377 41.8703034,63.4946205 41.8703034,63.0683243 C41.8703034,62.6420282 42.2173374,62.295211 42.6439001,62.295211 C43.0704627,62.295211 43.4174968,62.6420282 43.4174968,63.0683243 C43.4174968,63.4946205 43.7645308,63.8414377 44.1910934,63.8414377 C44.6194636,63.8414377 44.9646901,63.4946205 44.9646901,63.0683243 C44.9646901,62.6420282 45.3117241,62.295211 45.7382868,62.295211 C46.1666569,62.295211 46.5118835,62.6420282 46.5118835,63.0683243 C46.5118835,63.4946205 46.8589175,63.8414377 47.2854802,63.8414377 C47.7138503,63.8414377 48.0608843,63.4946205 48.0608843,63.0683243 C48.0608843,62.6420282 48.4061109,62.295211 48.834481,62.295211 C49.2610437,62.295211 49.6080777,62.6420282 49.6080777,63.0683243 C49.6080777,63.4946205 49.9533042,63.8414377 50.3816744,63.8414377 C50.808237,63.8414377 51.155271,63.4946205 51.155271,63.0683243 C51.155271,62.6420282 51.5004976,62.295211 51.9288677,62.295211 C52.3554304,62.295211 52.7024644,62.6420282 52.7024644,63.0683243 C52.7024644,63.4946205 53.0494984,63.8414377 53.4760611,63.8414377 C53.9026237,63.8414377 54.2496578,63.4946205 54.2496578,63.0683243 C54.2496578,62.6420282 53.9026237,62.295211 53.4760611,62.295211" id="Fill-78" fill="#FBB03B"></path>
                <path d="M53.3457426,55.4784467 C53.3222455,55.4784467 53.3023633,55.4838657 53.2788662,55.485672 C52.8450737,52.5557892 50.3200397,50.3068965 47.2672247,50.3068965 C44.1963351,50.3068965 41.6568413,52.5846907 41.2483534,55.5416686 C41.1453276,55.5019291 41.0368795,55.4784467 40.919394,55.4784467 C40.4205326,55.4784467 40.0156596,55.8830668 40.0156596,56.3816165 C40.0156596,56.8801662 40.4205326,57.2847863 40.919394,57.2847863 C41.0368795,57.2847863 41.1453276,57.2613039 41.2483534,57.2215644 C41.6568413,60.1785423 44.1963351,62.4563365 47.2672247,62.4563365 C50.3200397,62.4563365 52.8450737,60.2074437 53.2788662,57.2793672 C53.3023633,57.2793672 53.3222455,57.2847863 53.3457426,57.2847863 C53.844604,57.2847863 54.249477,56.8801662 54.249477,56.3816165 C54.249477,55.8830668 53.844604,55.4784467 53.3457426,55.4784467" id="Fill-80" fill="#FFEED7"></path>
                <path d="M53.3457426,55.4784467 C53.3222455,55.4784467 53.3023633,55.4838657 53.2788662,55.485672 C52.8450737,52.5557892 50.3200397,50.3068965 47.2672247,50.3068965 C44.1963351,50.3068965 41.6568413,52.5846907 41.2483534,55.5416686 C41.1453276,55.5019291 41.0368795,55.4784467 40.919394,55.4784467 C40.4205326,55.4784467 40.0156596,55.8830668 40.0156596,56.3816165 C40.0156596,56.8801662 40.4205326,57.2847863 40.919394,57.2847863 C41.0368795,57.2847863 41.1453276,57.2613039 41.2483534,57.2215644 C41.6568413,60.1785423 44.1963351,62.4563365 47.2672247,62.4563365 C50.3200397,62.4563365 52.8450737,60.2074437 53.2788662,57.2793672 C53.3023633,57.2793672 53.3222455,57.2847863 53.3457426,57.2847863 C53.844604,57.2847863 54.249477,56.8801662 54.249477,56.3816165 C54.249477,55.8830668 53.844604,55.4784467 53.3457426,55.4784467 L53.3457426,55.4784467 Z" id="Stroke-82" stroke="#000000" stroke-width="0.25"></path>
                <path d="M45.786727,56.3819777 C45.786727,56.7089252 45.521029,56.9744571 45.1938772,56.9744571 C44.8667253,56.9744571 44.6028349,56.7089252 44.6028349,56.3819777 C44.6028349,56.0550303 44.8667253,55.7894984 45.1938772,55.7894984 C45.521029,55.7894984 45.786727,56.0550303 45.786727,56.3819777" id="Fill-84" fill="#000000"></path>
                <path d="M49.9325183,56.3819777 C49.9325183,56.7089252 49.6668204,56.9744571 49.3396685,56.9744571 C49.0125167,56.9744571 48.7486262,56.7089252 48.7486262,56.3819777 C48.7486262,56.0550303 49.0125167,55.7894984 49.3396685,55.7894984 C49.6668204,55.7894984 49.9325183,56.0550303 49.9325183,56.3819777" id="Fill-86" fill="#000000"></path>
                <path d="M45.1944194,58.9701011 C45.1944194,59.8389504 46.0620045,60.5434229 47.1338335,60.5434229" id="Stroke-88" stroke="#000000" stroke-width="0.25"></path>
                <path d="M53.5010041,53.9786429 C52.5105112,51.5147957 50.1011552,49.7752907 47.2815037,49.7752907 C44.4961942,49.7752907 42.1085278,51.4750563 41.0981527,53.8919386 C41.0547734,53.8847133 41.0132017,53.8792943 40.9680149,53.8792943 C40.5432598,53.8792943 40.1998407,54.2224988 40.1998407,54.6469886 C40.1998407,55.069672 40.5432598,55.4146829 40.9680149,55.4146829 C41.369273,55.4146829 41.6946174,55.1057988 41.7289593,54.7138231 L41.7416116,54.7138231 C41.7398041,54.6903407 41.7361892,54.6686647 41.7361892,54.6469886 C41.7361892,54.2224988 42.0796083,53.8792943 42.502556,53.8792943 C42.9273112,53.8792943 43.2707303,54.2224988 43.2707303,54.6469886 C43.2707303,54.6686647 43.2653079,54.6903407 43.2635004,54.7138231 L43.2779602,54.7138231 C43.3123021,55.1057988 43.6376465,55.4146829 44.0389046,55.4146829 C44.4401627,55.4146829 44.7655071,55.1057988 44.799849,54.7138231 L44.8125012,54.7138231 C44.8106938,54.6903407 44.8070788,54.6686647 44.8070788,54.6469886 C44.8070788,54.2224988 45.1504979,53.8792943 45.5734456,53.8792943 C45.9982008,53.8792943 46.3416199,54.2224988 46.3416199,54.6469886 C46.3416199,54.6686647 46.3361975,54.6903407 46.33439,54.7138231 L46.3723469,54.7138231 C46.4066888,55.1057988 46.7320332,55.4146829 47.1332913,55.4146829 C47.5345494,55.4146829 47.8598938,55.1057988 47.8942357,54.7138231 L47.906888,54.7138231 C47.9050805,54.6903407 47.9014656,54.6686647 47.9014656,54.6469886 C47.9014656,54.2224988 48.2448846,53.8792943 48.6678324,53.8792943 C49.0925876,53.8792943 49.4360066,54.2224988 49.4360066,54.6469886 C49.4360066,54.6686647 49.4305842,54.6903407 49.4287768,54.7138231 L49.4522739,54.7138231 C49.4522739,55.1365066 49.7975004,55.4797111 50.2204481,55.4797111 C50.6452033,55.4797111 50.9886224,55.1365066 50.9886224,54.7138231 C50.9886224,54.2893333 51.3320415,53.9461288 51.7567967,53.9461288 C52.1797444,53.9461288 52.5231635,54.2893333 52.5231635,54.7138231 C52.5231635,55.1365066 52.8665826,55.4797111 53.2913378,55.4797111 C53.7160929,55.4797111 54.059512,55.1365066 54.059512,54.7138231 C54.059512,54.3633933 53.8227336,54.0707663 53.5010041,53.9786429" id="Fill-90" fill="#FBB03B"></path>
                <path d="M51.6910048,58.0846334 C51.3439708,58.3465527 51.0312787,58.4982852 50.0480156,58.5018979 C49.5979559,58.5018979 49.1786231,58.534412 48.8948505,58.3086195 C48.6128853,58.0846334 47.9730413,57.0857276 47.9513517,56.3668045 C47.9278546,55.6496877 48.5026297,55.3462226 49.0231807,55.3191275 C49.5455393,55.2938388 51.5192953,55.1475253 51.8554845,55.7056842 C52.1898662,56.2638431 52.0814181,56.9899916 52.0814181,56.9899916 C52.0814181,56.9899916 52.0380388,57.8227142 51.6910048,58.0846334 M45.435355,58.0701827 C45.1479675,58.2905561 44.7304422,58.2490103 44.2803824,58.2381723 C43.2971193,58.2146899 42.9880422,58.055732 42.6464305,57.7883937 C42.3048189,57.5192491 42.2795144,56.6865266 42.2795144,56.6865266 C42.2795144,56.6865266 42.185526,55.9567654 42.53256,55.4058318 C42.879594,54.8548983 44.8497351,55.0427576 45.3702861,55.0788844 C45.8908372,55.1168175 46.4583824,55.4329269 46.422233,56.1500437 C46.3842762,56.8671606 45.7227426,57.8516156 45.435355,58.0701827 M52.8351326,55.5304693 C52.8351326,55.5304693 52.6742679,55.5015678 52.5459376,55.465441 C52.4194148,55.4293143 52.5531675,55.3137085 52.2946994,55.2848071 C52.0344239,55.2540993 51.7325766,55.2197789 51.7325766,55.2197789 L50.022711,55.1583633 C50.022711,55.1583633 48.7936322,55.1366872 48.4556355,55.2215852 C48.1176388,55.3064832 48.0507625,55.4708601 47.9007426,55.5304693 C47.7525301,55.5900785 46.7295027,55.4961488 46.6156322,55.4816981 C46.5017617,55.4690537 46.5523708,55.4293143 46.2342563,55.1764267 C45.8854148,54.8964441 43.8483973,54.8079334 43.8483973,54.8079334 C43.8483973,54.8079334 42.8814015,54.7429052 42.3084339,54.9831484 C42.1114198,55.06624 41.9017534,54.9379899 41.7933052,54.9903737 C41.6487077,55.060821 41.6758198,55.1999091 41.6758198,55.1999091 C41.6848571,55.3191275 41.7625783,55.4220889 41.8746413,55.4672474 L42.1945633,55.5936912 C42.1945633,55.5936912 42.09696,56.1879769 42.124072,56.5040863 C42.1782961,57.1290798 42.1421467,57.5842774 42.5307525,57.9383199 C42.995272,58.3628097 45.1027807,58.6897572 45.5076538,58.4061619 C45.9107193,58.1225666 46.6680488,56.4607342 46.8234911,56.2602305 C46.977126,56.0597268 47.3078928,56.0416634 47.528404,56.220491 C47.7489152,56.3975123 48.0164206,58.0810208 48.6996438,58.4188063 C48.9382297,58.5362183 49.4461285,58.6897572 49.8058148,58.6969826 C50.1673085,58.7060142 51.421692,58.6391797 51.765111,58.3068132 C52.1085301,57.9744467 52.3398861,56.4155757 52.4483343,56.2421671 C52.5549749,56.0687585 52.8513998,55.8610294 52.8947791,55.7670998 C52.9381583,55.6749764 52.8351326,55.5304693 52.8351326,55.5304693" id="Fill-92" fill="#42210B"></path>
                <path d="M120.860128,92.9130282 L78.380994,92.9130282 C73.7141094,92.9130282 69.8949276,89.0962326 69.8949276,84.4340702 L69.8949276,40.048694 C69.8949276,35.3847252 73.7141094,31.5679297 78.380994,31.5679297 L120.860128,31.5679297 C125.527012,31.5679297 129.344387,35.3847252 129.344387,40.048694 L129.344387,84.4340702 C129.344387,89.0962326 125.527012,92.9130282 120.860128,92.9130282" id="Fill-94" fill="#E6E6E6"></path>
                <path d="M120.860128,92.9130282 L78.380994,92.9130282 C73.7141094,92.9130282 69.8949276,89.0962326 69.8949276,84.4340702 L69.8949276,40.048694 C69.8949276,35.3847252 73.7141094,31.5679297 78.380994,31.5679297 L120.860128,31.5679297 C125.527012,31.5679297 129.344387,35.3847252 129.344387,40.048694 L129.344387,84.4340702 C129.344387,89.0962326 125.527012,92.9130282 120.860128,92.9130282 L120.860128,92.9130282 Z" id="Stroke-96" stroke="#999999" stroke-width="0.5"></path>
                <path d="M99.9392176,92.8685922 L99.3011811,31.6120043" id="Stroke-98" stroke="#999999" stroke-width="0.5"></path>
                <path d="M74.6315806,84.9304523 L74.6315806,84.9304523 C72.5728735,84.9304523 70.8883125,86.6139608 70.8883125,88.6713816 L70.8883125,99.5599965 C70.8883125,101.617417 72.5728735,103.300926 74.6315806,103.300926 L74.6315806,103.300926 C76.6902876,103.300926 78.3748486,101.617417 78.3748486,99.5599965 L78.3748486,88.6713816 C78.3748486,86.6139608 76.6902876,84.9304523 74.6315806,84.9304523" id="Fill-100" fill="#42210B"></path>
                <path d="M74.6315806,84.9304523 L74.6315806,84.9304523 C72.5728735,84.9304523 70.8883125,86.6139608 70.8883125,88.6713816 L70.8883125,99.5599965 C70.8883125,101.617417 72.5728735,103.300926 74.6315806,103.300926 L74.6315806,103.300926 C76.6902876,103.300926 78.3748486,101.617417 78.3748486,99.5599965 L78.3748486,88.6713816 C78.3748486,86.6139608 76.6902876,84.9304523 74.6315806,84.9304523 L74.6315806,84.9304523 Z" id="Stroke-102" stroke="#000000" stroke-width="0.5"></path>
                <path d="M124.993628,84.9304523 L124.993628,84.9304523 C122.934921,84.9304523 121.25036,86.6139608 121.25036,88.6713816 L121.25036,99.5599965 C121.25036,101.617417 122.934921,103.300926 124.993628,103.300926 L124.993628,103.300926 C127.052335,103.300926 128.736896,101.617417 128.736896,99.5599965 L128.736896,88.6713816 C128.736896,86.6139608 127.052335,84.9304523 124.993628,84.9304523" id="Fill-104" fill="#42210B"></path>
                <path d="M124.993628,84.9304523 L124.993628,84.9304523 C122.934921,84.9304523 121.25036,86.6139608 121.25036,88.6713816 L121.25036,99.5599965 C121.25036,101.617417 122.934921,103.300926 124.993628,103.300926 L124.993628,103.300926 C127.052335,103.300926 128.736896,101.617417 128.736896,99.5599965 L128.736896,88.6713816 C128.736896,86.6139608 127.052335,84.9304523 124.993628,84.9304523 L124.993628,84.9304523 Z" id="Stroke-106" stroke="#000000" stroke-width="0.5"></path>
                <path d="M71.3783173,80.488302 C71.3783173,80.488302 71.280714,72.0743722 73.7280269,64.0506118 C76.1753398,56.0268514 78.4888999,49.9593567 79.3890194,49.0796694 C80.2891389,48.1981756 87.2406642,47.4160306 100.653891,47.2209459 C114.068925,47.0240549 117.495886,47.5135729 119.747992,48.3950667 C122.000098,49.274754 125.329456,60.3331649 126.309104,66.2037686 C127.286945,72.0743722 128.85402,82.7408074 127.091738,84.4044462 C125.329456,86.0680849 113.481497,85.8730003 100.556287,85.8730003 C87.632885,85.8730003 73.2382028,86.4600606 72.063348,85.1865912 C70.8884933,83.9149282 71.3783173,80.488302 71.3783173,80.488302" id="Fill-108" fill="#FFFFFF"></path>
                <path d="M71.3783173,80.488302 C71.3783173,80.488302 71.280714,72.0743722 73.7280269,64.0506118 C76.1753398,56.0268514 78.4888999,49.9593567 79.3890194,49.0796694 C80.2891389,48.1981756 87.2406642,47.4160306 100.653891,47.2209459 C114.068925,47.0240549 117.495886,47.5135729 119.747992,48.3950667 C122.000098,49.274754 125.329456,60.3331649 126.309104,66.2037686 C127.286945,72.0743722 128.85402,82.7408074 127.091738,84.4044462 C125.329456,86.0680849 113.481497,85.8730003 100.556287,85.8730003 C87.632885,85.8730003 73.2382028,86.4600606 72.063348,85.1865912 C70.8884933,83.9149282 71.3783173,80.488302 71.3783173,80.488302 L71.3783173,80.488302 Z" id="Stroke-110" stroke="#000000" stroke-width="0.5"></path>
                <path d="M124.964528,91.619689 L74.0806641,91.619689 C72.3256118,91.619689 70.888674,90.183649 70.888674,88.4296933 L70.888674,88.4296933 C70.888674,86.6757376 72.3256118,85.2396976 74.0806641,85.2396976 L124.964528,85.2396976 C126.71958,85.2396976 128.156518,86.6757376 128.156518,88.4296933 L128.156518,88.4296933 C128.156518,90.183649 126.71958,91.619689 124.964528,91.619689" id="Fill-112" fill="#E6E6E6"></path>
                <path d="M124.964528,91.619689 L74.0806641,91.619689 C72.3256118,91.619689 70.888674,90.183649 70.888674,88.4296933 L70.888674,88.4296933 C70.888674,86.6757376 72.3256118,85.2396976 74.0806641,85.2396976 L124.964528,85.2396976 C126.71958,85.2396976 128.156518,86.6757376 128.156518,88.4296933 L128.156518,88.4296933 C128.156518,90.183649 126.71958,91.619689 124.964528,91.619689 L124.964528,91.619689 Z" id="Stroke-114" stroke="#000000"></path>
                <path d="M117.041127,84.9304523 L83.0570968,84.9304523 C81.2658951,84.9304523 79.8000378,83.4655109 79.8000378,81.6754284 L79.8000378,72.6581812 C79.8000378,70.8680986 81.2658951,69.4031572 83.0570968,69.4031572 L117.041127,69.4031572 C118.832328,69.4031572 120.298186,70.8680986 120.298186,72.6581812 L120.298186,81.6754284 C120.298186,83.4655109 118.832328,84.9304523 117.041127,84.9304523" id="Fill-116" fill="#CCCCCC"></path>
                <path d="M111.169383,75.2137904 L89.2140588,75.2137904 C88.6519359,75.2137904 88.1928388,74.7549802 88.1928388,74.1932085 L88.1928388,74.1932085 C88.1928388,73.6314369 88.6519359,73.1726267 89.2140588,73.1726267 L111.169383,73.1726267 C111.731506,73.1726267 112.190603,73.6314369 112.190603,74.1932085 L112.190603,74.1932085 C112.190603,74.7549802 111.731506,75.2137904 111.169383,75.2137904" id="Fill-118" fill="#000000"></path>
                <path d="M111.169383,78.9261795 L89.2140588,78.9261795 C88.6519359,78.9261795 88.1928388,78.4673693 88.1928388,77.9055977 C88.1928388,77.343826 88.6519359,76.8850158 89.2140588,76.8850158 L111.169383,76.8850158 C111.731506,76.8850158 112.190603,77.343826 112.190603,77.9055977 C112.190603,78.4673693 111.731506,78.9261795 111.169383,78.9261795" id="Fill-120" fill="#000000"></path>
                <path d="M111.169383,82.6385686 L89.2140588,82.6385686 C88.6519359,82.6385686 88.1928388,82.1797584 88.1928388,81.6179868 C88.1928388,81.0562151 88.6519359,80.5974049 89.2140588,80.5974049 L111.169383,80.5974049 C111.731506,80.5974049 112.190603,81.0562151 112.190603,81.6179868 C112.190603,82.1797584 111.731506,82.6385686 111.169383,82.6385686" id="Fill-122" fill="#000000"></path>
                <path d="M84.2362895,82.6385686 L84.2362895,82.6385686 C83.4175061,82.6385686 82.7487426,81.970223 82.7487426,81.1519511 L82.7487426,74.4052728 C82.7487426,73.587001 83.4175061,72.9186553 84.2362895,72.9186553 C85.0550729,72.9186553 85.7238363,73.587001 85.7238363,74.4052728 L85.7238363,81.1519511 C85.7238363,81.970223 85.0550729,82.6385686 84.2362895,82.6385686" id="Fill-124" fill="#000000"></path>
                <path d="M116.147333,82.6385686 L116.147333,82.6385686 C115.32855,82.6385686 114.659786,81.970223 114.659786,81.1519511 L114.659786,74.4052728 C114.659786,73.587001 115.32855,72.9186553 116.147333,72.9186553 C116.966117,72.9186553 117.63488,73.587001 117.63488,74.4052728 L117.63488,81.1519511 C117.63488,81.970223 116.966117,82.6385686 116.147333,82.6385686" id="Fill-126" fill="#000000"></path>
                <path d="M103.987586,77.9406406 C103.987586,79.000962 102.031905,79.862586 99.6207416,79.862586 C97.2077706,79.862586 95.2520893,79.000962 95.2520893,77.9406406 C95.2520893,76.8803193 97.2077706,76.0186953 99.6207416,76.0186953 C102.031905,76.0186953 103.987586,76.8803193 103.987586,77.9406406" id="Fill-128" fill="#170046"></path>
                <path d="M75.8474649,84.6298774 L75.8474649,84.6298774 C73.8465968,84.6298774 72.20903,82.9933337 72.20903,80.9937158 L72.20903,76.5085746 C72.20903,74.5089567 73.8465968,72.872413 75.8474649,72.872413 L75.8474649,72.872413 C77.8483329,72.872413 79.4858998,74.5089567 79.4858998,76.5085746 L79.4858998,80.9937158 C79.4858998,82.9933337 77.8483329,84.6298774 75.8474649,84.6298774" id="Fill-130" fill="#E6E6E6"></path>
                <path d="M75.8474649,84.6298774 L75.8474649,84.6298774 C73.8465968,84.6298774 72.20903,82.9933337 72.20903,80.9937158 L72.20903,76.5085746 C72.20903,74.5089567 73.8465968,72.872413 75.8474649,72.872413 L75.8474649,72.872413 C77.8483329,72.872413 79.4858998,74.5089567 79.4858998,76.5085746 L79.4858998,80.9937158 C79.4858998,82.9933337 77.8483329,84.6298774 75.8474649,84.6298774 L75.8474649,84.6298774 Z" id="Stroke-132" stroke="#000000" stroke-width="0.5"></path>
                <path d="M77.1168503,76.7065494 L74.6026611,76.7065494 C73.9104005,76.7065494 73.3446627,76.1411651 73.3446627,75.4493371 L73.3446627,75.4493371 C73.3446627,74.7593154 73.9104005,74.1939311 74.6026611,74.1939311 L77.1168503,74.1939311 C77.8091109,74.1939311 78.3748486,74.7593154 78.3748486,75.4493371 L78.3748486,75.4493371 C78.3748486,76.1411651 77.8091109,76.7065494 77.1168503,76.7065494" id="Fill-134" fill="#F8931E"></path>
                <path d="M77.4358685,79.280764 L73.5299283,79.280764 C72.9027366,79.280764 72.3894154,78.7677635 72.3894154,78.1409637 L72.3894154,78.1409637 C72.3894154,77.5141639 72.9027366,77.0011634 73.5299283,77.0011634 L77.4358685,77.0011634 C78.0630602,77.0011634 78.5763814,77.5141639 78.5763814,78.1409637 L78.5763814,78.1409637 C78.5763814,78.7677635 78.0630602,79.280764 77.4358685,79.280764" id="Fill-136" fill="#F2F2F2"></path>
                <path d="M73.9170881,79.3979954 L73.9170881,79.3979954 C73.2248276,79.3979954 72.6590898,78.8326111 72.6590898,78.1407831 L72.6590898,78.1407831 C72.6590898,77.4507613 73.2248276,76.8853771 73.9170881,76.8853771 L73.9170881,76.8853771 C74.6093487,76.8853771 75.1750865,77.4507613 75.1750865,78.1407831 L75.1750865,78.1407831 C75.1750865,78.8326111 74.6093487,79.3979954 73.9170881,79.3979954" id="Fill-138" fill="#F8931E"></path>
                <path d="M76.686492,83.3090819 L74.5482563,83.3090819 C73.5107691,83.3090819 72.6594513,82.4601023 72.6594513,81.421457 L72.6594513,81.421457 C72.6594513,80.3828118 73.5107691,79.5320258 74.5482563,79.5320258 L76.686492,79.5320258 C77.7257866,79.5320258 78.5752969,80.3828118 78.5752969,81.421457 L78.5752969,81.421457 C78.5752969,82.4601023 77.7257866,83.3090819 76.686492,83.3090819" id="Fill-140" fill="#FFFFFF"></path>
                <path d="M124.250578,84.0200571 L124.250578,84.0200571 C126.251446,84.0200571 127.889013,82.3835135 127.889013,80.3838956 L127.889013,75.8987544 C127.889013,73.8991365 126.251446,72.2625928 124.250578,72.2625928 C122.24971,72.2625928 120.612143,73.8991365 120.612143,75.8987544 L120.612143,80.3838956 C120.612143,82.3835135 122.24971,84.0200571 124.250578,84.0200571" id="Fill-142" fill="#E6E6E6"></path>
                <path d="M124.250578,84.0200571 L124.250578,84.0200571 C126.251446,84.0200571 127.889013,82.3835135 127.889013,80.3838956 L127.889013,75.8987544 C127.889013,73.8991365 126.251446,72.2625928 124.250578,72.2625928 C122.24971,72.2625928 120.612143,73.8991365 120.612143,75.8987544 L120.612143,80.3838956 C120.612143,82.3835135 122.24971,84.0200571 124.250578,84.0200571 L124.250578,84.0200571 Z" id="Stroke-144" stroke="#000000" stroke-width="0.5"></path>
                <path d="M122.981192,76.0967292 L125.495382,76.0967292 C126.187642,76.0967292 126.75338,75.5313449 126.75338,74.8395168 C126.75338,74.1494951 126.187642,73.5841108 125.495382,73.5841108 L122.981192,73.5841108 C122.288932,73.5841108 121.723194,74.1494951 121.723194,74.8395168 C121.723194,75.5313449 122.288932,76.0967292 122.981192,76.0967292" id="Fill-146" fill="#F8931E"></path>
                <path d="M122.662355,78.6709437 L126.568295,78.6709437 C127.195487,78.6709437 127.708808,78.1579433 127.708808,77.5311435 L127.708808,77.5311435 C127.708808,76.9043436 127.195487,76.3913432 126.568295,76.3913432 L122.662355,76.3913432 C122.035163,76.3913432 121.521842,76.9043436 121.521842,77.5311435 L121.521842,77.5311435 C121.521842,78.1579433 122.035163,78.6709437 122.662355,78.6709437" id="Fill-148" fill="#F2F2F2"></path>
                <path d="M126.180955,78.7881752 L126.180955,78.7881752 C126.873215,78.7881752 127.438953,78.2227909 127.438953,77.5309628 L127.438953,77.5309628 C127.438953,76.8409411 126.873215,76.2755568 126.180955,76.2755568 C125.488694,76.2755568 124.922956,76.8409411 124.922956,77.5309628 L124.922956,77.5309628 C124.922956,78.2227909 125.488694,78.7881752 126.180955,78.7881752" id="Fill-150" fill="#F8931E"></path>
                <path d="M123.411551,82.6992616 L125.549786,82.6992616 C126.587274,82.6992616 127.438591,81.850282 127.438591,80.8116368 L127.438591,80.8116368 C127.438591,79.7729915 126.587274,78.9222056 125.549786,78.9222056 L123.411551,78.9222056 C122.372256,78.9222056 121.522746,79.7729915 121.522746,80.8116368 L121.522746,80.8116368 C121.522746,81.850282 122.372256,82.6992616 123.411551,82.6992616" id="Fill-152" fill="#FFFFFF"></path>
                <path d="M121.909183,64.7982558 L78.3329154,64.7982558 C77.0152705,64.7982558 76.0392373,63.5753639 76.3320473,62.2910564 L78.9456473,50.8135747 C79.1571212,49.8796972 79.9885568,49.2167705 80.9465154,49.2167705 L118.662968,49.2167705 C119.58297,49.2167705 120.389101,49.825507 120.640339,50.7106134 L123.884746,62.1880951 C124.255277,63.4976913 123.270207,64.7982558 121.909183,64.7982558" id="Fill-154" fill="#E6E6E6"></path>
                <path d="M121.909183,64.7982558 L78.3329154,64.7982558 C77.0152705,64.7982558 76.0392373,63.5753639 76.3320473,62.2910564 L78.9456473,50.8135747 C79.1571212,49.8796972 79.9885568,49.2167705 80.9465154,49.2167705 L118.662968,49.2167705 C119.58297,49.2167705 120.389101,49.825507 120.640339,50.7106134 L123.884746,62.1880951 C124.255277,63.4976913 123.270207,64.7982558 121.909183,64.7982558 L121.909183,64.7982558 Z" id="Stroke-156" stroke="#000000" stroke-width="0.5"></path>
                <path d="M124.435663,95.108092 L74.751958,95.108092 C73.792192,95.108092 73.0077505,94.3223343 73.0077505,93.363168 L73.0077505,93.363168 C73.0077505,92.4040017 73.792192,91.6200503 74.751958,91.6200503 L124.435663,91.6200503 C125.395429,91.6200503 126.181678,92.4040017 126.181678,93.363168 L126.181678,93.363168 C126.181678,94.3223343 125.395429,95.108092 124.435663,95.108092" id="Fill-158" fill="#000000"></path>
                <path d="M124.435663,95.108092 L74.751958,95.108092 C73.792192,95.108092 73.0077505,94.3223343 73.0077505,93.363168 L73.0077505,93.363168 C73.0077505,92.4040017 73.792192,91.6200503 74.751958,91.6200503 L124.435663,91.6200503 C125.395429,91.6200503 126.181678,92.4040017 126.181678,93.363168 L126.181678,93.363168 C126.181678,94.3223343 125.395429,95.108092 124.435663,95.108092 L124.435663,95.108092 Z" id="Stroke-160" stroke="#000000"></path>
                <path d="M73.9770961,62.4724129 L72.2075841,62.4724129 L72.2075841,60.2668723 C72.2075841,59.0096599 71.1791343,57.9800464 69.9193285,57.9800464 C68.6613301,57.9800464 67.6310729,59.0096599 67.6310729,60.2668723 L67.6310729,63.4839631 C67.6310729,64.7429818 68.6613301,65.770789 69.9193285,65.770789 C70.0892305,65.770789 70.2537102,65.7491129 70.4127675,65.7147925 L73.0932438,65.404102 L73.9770961,62.4724129 Z" id="Fill-162" fill="#000000"></path>
                <path d="M125.563704,62.4724129 L127.333216,62.4724129 L127.333216,60.2668723 C127.333216,59.0096599 128.361666,57.9800464 129.621472,57.9800464 C130.87947,57.9800464 131.909727,59.0096599 131.909727,60.2668723 L131.909727,63.4839631 C131.909727,64.7429818 130.87947,65.770789 129.621472,65.770789 C129.451569,65.770789 129.28709,65.7491129 129.128033,65.7147925 L126.447556,65.404102 L125.563704,62.4724129 Z" id="Fill-164" fill="#000000"></path>
                <path d="M118.100665,55.9815123 C118.07536,55.9815123 118.050056,55.9869313 118.024751,55.9887376 C117.53312,52.6632665 114.664667,50.1091023 111.197941,50.1091023 C107.711334,50.1091023 104.828421,52.6957806 104.363901,56.0537658 C104.248223,56.0086074 104.123508,55.9815123 103.991563,55.9815123 C103.424018,55.9815123 102.96492,56.4403225 102.96492,57.0075131 C102.96492,57.5747038 103.424018,58.033514 103.991563,58.033514 C104.123508,58.033514 104.248223,58.0064189 104.363901,57.9612604 C104.828421,61.3192457 107.711334,63.905924 111.197941,63.905924 C114.664667,63.905924 117.53312,61.3517598 118.024751,58.0262887 C118.050056,58.028095 118.07536,58.033514 118.100665,58.033514 C118.66821,58.033514 119.127307,57.5747038 119.127307,57.0075131 C119.127307,56.4403225 118.66821,55.9815123 118.100665,55.9815123" id="Fill-166" fill="#FFEED7"></path>
                <path d="M118.100665,55.9815123 C118.07536,55.9815123 118.050056,55.9869313 118.024751,55.9887376 C117.53312,52.6632665 114.664667,50.1091023 111.197941,50.1091023 C107.711334,50.1091023 104.828421,52.6957806 104.363901,56.0537658 C104.248223,56.0086074 104.123508,55.9815123 103.991563,55.9815123 C103.424018,55.9815123 102.96492,56.4403225 102.96492,57.0075131 C102.96492,57.5747038 103.424018,58.033514 103.991563,58.033514 C104.123508,58.033514 104.248223,58.0064189 104.363901,57.9612604 C104.828421,61.3192457 107.711334,63.905924 111.197941,63.905924 C114.664667,63.905924 117.53312,61.3517598 118.024751,58.0262887 C118.050056,58.028095 118.07536,58.033514 118.100665,58.033514 C118.66821,58.033514 119.127307,57.5747038 119.127307,57.0075131 C119.127307,56.4403225 118.66821,55.9815123 118.100665,55.9815123 L118.100665,55.9815123 Z" id="Stroke-168" stroke="#000000" stroke-width="0.25"></path>
                <path d="M109.517176,57.0073325 C109.517176,57.3776321 109.215329,57.6792908 108.844798,57.6792908 C108.472459,57.6792908 108.172419,57.3776321 108.172419,57.0073325 C108.172419,56.6352266 108.472459,56.3353742 108.844798,56.3353742 C109.215329,56.3353742 109.517176,56.6352266 109.517176,57.0073325" id="Fill-170" fill="#000000"></path>
                <path d="M114.224909,57.0073325 C114.224909,57.3776321 113.923062,57.6792908 113.552531,57.6792908 C113.180192,57.6792908 112.880153,57.3776321 112.880153,57.0073325 C112.880153,56.6352266 113.180192,56.3353742 113.552531,56.3353742 C113.923062,56.3353742 114.224909,56.6352266 114.224909,57.0073325" id="Fill-172" fill="#000000"></path>
                <path d="M108.844617,59.946247 C108.844617,60.9343148 109.829687,61.7327169 111.046114,61.7327169" id="Stroke-174" stroke="#000000" stroke-width="0.25"></path>
                <path d="M105.185758,56.605422 C105.241789,53.9392647 107.436056,51.7752699 110.116533,51.7752699 L112.435515,51.7752699 C115.115992,51.7752699 117.312066,53.9392647 117.368098,56.605422 L119.045429,56.605422 C118.888179,56.238735 118.524878,55.9822348 118.100123,55.9822348 C118.074818,55.9822348 118.051321,55.9876538 118.026016,55.9894602 C117.532577,52.6621826 114.664124,50.1098248 111.199206,50.1098248 C107.710792,50.1098248 104.827879,52.6965031 104.363359,56.0544884 C104.247681,56.0093299 104.122966,55.9822348 103.991021,55.9822348 C103.566265,55.9822348 103.202964,56.238735 103.047522,56.605422 L105.185758,56.605422 Z" id="Fill-176" fill="#000000"></path>
                <path d="M117.001182,58.4077876 C116.740906,58.7437667 114.765343,58.7871189 114.485185,58.7744745 C114.206835,58.7618301 112.975948,58.7744745 112.800624,58.5360377 C112.623492,58.2957945 111.801094,56.7387298 112.01076,56.3756556 C112.216811,56.021613 113.740508,55.819303 114.881021,55.8138839 C116.037801,55.8102713 116.914423,55.7831762 117.062636,56.0613525 C117.20904,56.3395288 117.232538,56.6520255 117.232538,56.6520255 C117.232538,56.6520255 117.382558,57.9146569 117.001182,58.4077876 M109.71166,58.5017172 C109.548987,58.7491858 108.319909,58.8015696 108.041558,58.8286647 C107.763208,58.8557598 105.787645,58.915369 105.509294,58.5938406 C105.104421,58.1223859 105.187565,56.8525292 105.187565,56.8525292 C105.187565,56.8525292 105.194795,56.5382261 105.32674,56.2528245 C105.458685,55.9674228 106.335308,55.9493594 107.492088,55.8933629 C108.630793,55.8391727 110.163527,55.9620038 110.385845,56.303402 C110.615394,56.6556382 109.876139,58.2524424 109.71166,58.5017172 M118.279062,55.9421341 C118.228453,55.7849825 116.07395,55.5140316 114.785225,55.5953169 C113.496499,55.6747958 111.658304,56.0143876 111.658304,56.0143876 C111.658304,56.0143876 111.379953,56.1643138 111.114255,56.1643138 C110.84675,56.1643138 110.295472,55.9457467 110.067731,55.8987819 C109.886984,55.8590424 108.956138,55.6838275 107.629455,55.7127289 C105.999119,55.7488557 104.681474,56.0143876 104.681474,56.0143876 L104.479037,56.2166977 L104.457348,57.1270928 C104.457348,57.1270928 104.679666,57.2860507 104.802574,57.3908184 C104.925482,57.4973924 105.180335,58.5793898 105.353852,58.7058336 C105.529177,58.8340837 106.516055,59.0201367 107.909613,59.0074923 C109.301364,58.9966543 109.673703,58.7636365 109.928556,58.5902279 C110.185216,58.4168193 110.456337,57.5335192 110.588282,57.2192161 C110.691308,56.9771666 110.803371,56.7640186 111.094373,56.7549869 C111.376338,56.7459552 111.457675,56.8868497 111.537203,57.0114871 C111.654689,57.1957337 111.797479,57.6924771 111.902312,57.95259 C111.9963,58.1819951 112.16801,58.6751258 112.42467,58.7527984 C112.863885,58.8846612 114.445421,58.9623338 115.350962,58.9496895 C116.256504,58.9388514 116.675837,58.8684042 116.988529,58.729316 C117.301221,58.5902279 117.720554,57.3185648 117.83804,57.2156035 C117.953718,57.1126421 118.145309,57.1325118 118.23749,57.0277441 C118.418237,56.8200151 118.329671,56.1010919 118.279062,55.9421341" id="Fill-178" fill="#040067"></path>
            </g>
        </g>
    </g>
</svg>