<?xml version="1.0" encoding="UTF-8" standalone="no"?>
<svg width="153px" height="153px" viewBox="0 0 153 153" version="1.1" xmlns="http://www.w3.org/2000/svg" xmlns:xlink="http://www.w3.org/1999/xlink">
    <!-- Generator: Sketch 3.7.2 (28276) - http://www.bohemiancoding.com/sketch -->
    <title>Group 7</title>
    <desc>Created with Sketch.</desc>
    <defs>
        <filter x="-50%" y="-50%" width="200%" height="200%" filterUnits="objectBoundingBox" id="filter-1">
            <feOffset dx="0" dy="0" in="SourceAlpha" result="shadowOffsetOuter1"></feOffset>
            <feGaussianBlur stdDeviation="5" in="shadowOffsetOuter1" result="shadowBlurOuter1"></feGaussianBlur>
            <feColorMatrix values="0 0 0 0 0   0 0 0 0 0   0 0 0 0 0  0 0 0 0.5 0" type="matrix" in="shadowBlurOuter1" result="shadowMatrixOuter1"></feColorMatrix>
            <feMerge>
                <feMergeNode in="shadowMatrixOuter1"></feMergeNode>
                <feMergeNode in="SourceGraphic"></feMergeNode>
            </feMerge>
        </filter>
    </defs>
    <g id="Page-1" stroke="none" stroke-width="1" fill="none" fill-rule="evenodd">
        <g id="Desktop-HD" transform="translate(-983.000000, -999.000000)">
            <g id="Group-7" filter="url(#filter-1)" transform="translate(992.500000, 1008.620370)">
                <path d="M132.878987,66.8474558 C132.878987,103.469225 103.192458,133.156347 66.571422,133.156347 C29.9503857,133.156347 0.263857535,103.469225 0.263857535,66.8474558 C0.263857535,30.2256868 29.9503857,0.538564742 66.571422,0.538564742 C103.192458,0.538564742 132.878987,30.2256868 132.878987,66.8474558" id="Fill-20" fill="#FFFFFF"></path>
                <path d="M119.939376,66.8474558 C119.939376,37.3720923 96.0449503,13.4789683 66.5719559,13.4789683 C37.097182,13.4789683 13.204536,37.3720923 13.204536,66.8474558 C13.204536,96.3228194 37.097182,120.215943 66.5719559,120.215943 C96.0449503,120.215943 119.939376,96.3228194 119.939376,66.8474558" id="Fill-21" fill="#BEE0D6"></path>
                <polygon id="Fill-22" fill="#FFFFFF" points="20.4725127 105.440359 112.671043 105.440359 112.671043 28.2979724 20.4725127 28.2979724"></polygon>
                <polygon id="Stroke-23" stroke="#666666" points="20.4725127 105.440359 112.671043 105.440359 112.671043 28.2979724 20.4725127 28.2979724"></polygon>
                <path d="M27.5669933,33.0500829 C27.5669933,34.3633417 26.5028835,35.4292523 25.1878715,35.4292523 C23.874639,35.4292523 22.8105292,34.3633417 22.8105292,33.0500829 C22.8105292,31.7368241 23.874639,30.6709136 25.1878715,30.6709136 C26.5028835,30.6709136 27.5669933,31.7368241 27.5669933,33.0500829" id="Fill-24" fill="#FF6A6A"></path>
                <path d="M34.5281932,33.0500829 C34.5281932,34.3633417 33.4640834,35.4292523 32.1490714,35.4292523 C30.8358389,35.4292523 29.7717291,34.3633417 29.7717291,33.0500829 C29.7717291,31.7368241 30.8358389,30.6709136 32.1490714,30.6709136 C33.4640834,30.6709136 34.5281932,31.7368241 34.5281932,33.0500829" id="Fill-25" fill="#FFDD33"></path>
                <path d="M41.4892152,33.0500829 C41.4892152,34.3633417 40.4251053,35.4292523 39.1100934,35.4292523 C37.7968609,35.4292523 36.7327511,34.3633417 36.7327511,33.0500829 C36.7327511,31.7368241 37.7968609,30.6709136 39.1100934,30.6709136 C40.4251053,30.6709136 41.4892152,31.7368241 41.4892152,33.0500829" id="Fill-26" fill="#68E000"></path>
                <path d="M97.0882406,64.1675538 C96.9761354,64.1675538 96.8711479,64.1924665 96.7626016,64.1995845 C94.6308231,49.801784 82.2227334,38.7511919 67.2326649,38.7511919 C52.1447267,38.7511919 39.6779152,49.9459222 37.6671392,64.4807429 C37.1653349,64.2849997 36.6243827,64.1675538 36.0549594,64.1675538 C33.6028803,64.1675538 31.6152371,66.1552368 31.6152371,68.6073649 C31.6152371,71.0594931 33.6028803,73.0489556 36.0549594,73.0489556 C36.6243827,73.0489556 37.1653349,72.9315097 37.6671392,72.7357665 C39.6779152,87.2705872 52.1447267,98.4653174 67.2326649,98.4653174 C82.2227334,98.4653174 94.6308231,87.4147253 96.7626016,73.0151454 C96.8711479,73.0240428 96.9761354,73.0489556 97.0882406,73.0489556 C99.5403197,73.0489556 101.527963,71.0594931 101.527963,68.6073649 C101.527963,66.1552368 99.5403197,64.1675538 97.0882406,64.1675538" id="Fill-27" fill="#FFEED7"></path>
                <path d="M97.0882406,64.1675538 C96.9761354,64.1675538 96.8711479,64.1924665 96.7626016,64.1995845 C94.6308231,49.801784 82.2227334,38.7511919 67.2326649,38.7511919 C52.1447267,38.7511919 39.6779152,49.9459222 37.6671392,64.4807429 C37.1653349,64.2849997 36.6243827,64.1675538 36.0549594,64.1675538 C33.6028803,64.1675538 31.6152371,66.1552368 31.6152371,68.6073649 C31.6152371,71.0594931 33.6028803,73.0489556 36.0549594,73.0489556 C36.6243827,73.0489556 37.1653349,72.9315097 37.6671392,72.7357665 C39.6779152,87.2705872 52.1447267,98.4653174 67.2326649,98.4653174 C82.2227334,98.4653174 94.6308231,87.4147253 96.7626016,73.0151454 C96.8711479,73.0240428 96.9761354,73.0489556 97.0882406,73.0489556 C99.5403197,73.0489556 101.527963,71.0594931 101.527963,68.6073649 C101.527963,66.1552368 99.5403197,64.1675538 97.0882406,64.1675538 L97.0882406,64.1675538 Z" id="Stroke-28" stroke="#000000" stroke-width="2"></path>
                <path d="M59.9591719,68.6078988 C59.9591719,70.2147723 58.656616,71.5173542 57.0497747,71.5173542 C55.4429333,71.5173542 54.1403774,70.2147723 54.1403774,68.6078988 C54.1403774,67.0010252 55.4429333,65.6984434 57.0497747,65.6984434 C58.656616,65.6984434 59.9591719,67.0010252 59.9591719,68.6078988" id="Fill-29" fill="#000000"></path>
                <path d="M80.322639,68.6078988 C80.322639,70.2147723 79.0200832,71.5173542 77.4132418,71.5173542 C75.8064004,71.5173542 74.5038446,70.2147723 74.5038446,68.6078988 C74.5038446,67.0010252 75.8064004,65.6984434 77.4132418,65.6984434 C79.0200832,65.6984434 80.322639,67.0010252 80.322639,68.6078988" id="Fill-30" fill="#000000"></path>
                <path d="M57.0501305,81.3285361 C57.0501305,85.6028553 61.3083492,89.0603916 66.5719559,89.0603916" id="Stroke-31" stroke="#000000" stroke-width="2"></path>
                <path d="M41.2224759,66.8684537 C41.4644808,55.3302832 50.9596145,45.9613029 62.5527171,45.9613029 L72.5852439,45.9613029 C84.180126,45.9613029 93.6752596,55.3302832 93.9172645,66.8684537 L101.173853,66.8684537 C100.495883,65.2811545 98.9228513,64.1671979 97.0882406,64.1671979 C96.9761354,64.1671979 96.8711479,64.1921106 96.7626016,64.2010081 C94.6308231,49.8014281 82.2227334,38.750836 67.2308854,38.750836 C52.1429473,38.750836 39.6779152,49.9455663 37.6653597,64.480387 C37.1653349,64.2846438 36.6243827,64.1671979 36.0549594,64.1671979 C34.2203487,64.1671979 32.6473168,65.2811545 31.9693472,66.8684537 L41.2224759,66.8684537 Z" id="Fill-32" fill="#000000"></path>
                <path d="M92.3315986,74.6697091 C91.2069875,76.1235471 82.6585202,76.3139518 81.4502751,76.2570083 C80.24203,76.1982854 74.9232604,76.2552288 74.1616568,75.221349 C73.3964942,74.1821306 69.839378,67.4414474 70.7468964,65.8737225 C71.6330614,64.3451462 78.2241362,63.4660814 83.1603244,63.4447276 C88.1641317,63.4251533 91.959694,63.3077074 92.5949568,64.5106382 C93.2319992,65.713569 93.3298688,67.0730943 93.3298688,67.0730943 C93.3298688,67.0730943 93.9793673,72.5378879 92.3315986,74.6697091 M60.799783,75.0754313 C60.0933422,76.1484598 54.7781316,76.3708952 53.5734454,76.4919001 C52.3705386,76.6111255 43.8238507,76.8691506 42.6245029,75.4758151 C40.8664084,73.4329681 41.2311952,67.9414822 41.2311952,67.9414822 C41.2311952,67.9414822 41.2578869,66.5783979 41.8290897,65.3452159 C42.4020719,64.1102544 46.1994136,64.0283982 51.1961031,63.7863884 C56.126953,63.5497171 62.7553962,64.0817827 63.7198569,65.5623129 C64.7092299,67.0819917 61.5097827,73.9988438 60.799783,75.0754313 M97.8585635,63.998147 C97.6396914,63.3130458 88.3207232,62.1403663 82.7457131,62.492704 C77.1707031,62.8432622 69.223689,64.3095566 69.223689,64.3095566 C69.223689,64.3095566 68.0190029,64.962627 66.8641412,64.962627 C65.7092796,64.962627 63.32304,64.0177213 62.3443437,63.8077422 C61.5578278,63.6386913 57.5291579,62.8770724 51.795777,63.0034157 C44.7438252,63.1600103 39.0406949,64.3095566 39.0406949,64.3095566 L38.1652066,65.1832829 L38.0708959,69.1301772 C38.0708959,69.1301772 39.0317977,69.8134988 39.5638526,70.270826 C40.0959075,70.7263738 41.1991652,75.4099742 41.953651,75.9616141 C42.7063575,76.5132539 46.9752528,77.3175804 53.0022426,77.2677549 C59.0292324,77.2179294 60.6360738,76.2125212 61.7411109,75.4597997 C62.846148,74.7052988 64.022363,70.8883068 64.5935658,69.527002 C65.0366483,68.4753273 65.524217,67.5535548 66.7787277,67.5161857 C67.9994289,67.4788165 68.3553185,68.0856204 68.6987519,68.6283628 C69.2023357,69.4237919 69.8251424,71.5751874 70.2789016,72.696262 C70.6828363,73.6927727 71.4266455,75.8281528 72.5388003,76.1626957 C74.4374712,76.7321304 81.2776686,77.0666733 85.1960128,77.0168477 C89.1125774,76.9652427 90.9204964,76.66451 92.2764357,76.0612651 C93.6323749,75.4597997 95.4456323,69.9522985 95.949216,69.5074277 C96.4510203,69.0625568 97.2784635,69.151531 97.6770599,68.6942037 C98.4635758,67.7937851 98.0756562,64.6814686 97.8585635,63.998147" id="Fill-33" fill="#040067"></path>
            </g>
        </g>
    </g>
</svg>