<?xml version="1.0" encoding="UTF-8" standalone="no"?>
<svg width="153px" height="153px" viewBox="0 0 153 153" version="1.1" xmlns="http://www.w3.org/2000/svg" xmlns:xlink="http://www.w3.org/1999/xlink">
    <!-- Generator: Sketch 3.7.2 (28276) - http://www.bohemiancoding.com/sketch -->
    <title>Page 1</title>
    <desc>Created with Sketch.</desc>
    <defs>
        <filter x="-50%" y="-50%" width="200%" height="200%" filterUnits="objectBoundingBox" id="filter-1">
            <feOffset dx="0" dy="0" in="SourceAlpha" result="shadowOffsetOuter1"></feOffset>
            <feGaussianBlur stdDeviation="5" in="shadowOffsetOuter1" result="shadowBlurOuter1"></feGaussianBlur>
            <feColorMatrix values="0 0 0 0 0   0 0 0 0 0   0 0 0 0 0  0 0 0 0.5 0" type="matrix" in="shadowBlurOuter1" result="shadowMatrixOuter1"></feColorMatrix>
            <feMerge>
                <feMergeNode in="shadowMatrixOuter1"></feMergeNode>
                <feMergeNode in="SourceGraphic"></feMergeNode>
            </feMerge>
        </filter>
    </defs>
    <g id="Page-1" stroke="none" stroke-width="1" fill="none" fill-rule="evenodd">
        <g id="Desktop-HD" transform="translate(-1138.000000, -2016.000000)">
            <g id="Page-1" filter="url(#filter-1)" transform="translate(1147.000000, 2025.384241)">
                <path d="M133.381178,66.9668158 C133.381178,103.523395 103.746901,133.157671 67.1903224,133.157671 C30.6337434,133.157671 0.999467105,103.523395 0.999467105,66.9668158 C0.999467105,30.4102368 30.6337434,0.775960526 67.1903224,0.775960526 C103.746901,0.775960526 133.381178,30.4102368 133.381178,66.9668158" id="Fill-1" fill="#FFFFFF"></path>
                <path d="M120.463987,66.9668158 C120.463987,37.5439211 96.6116184,13.6933289 67.1905,13.6933289 C37.7676053,13.6933289 13.9170132,37.5439211 13.9170132,66.9668158 C13.9170132,96.3897105 37.7676053,120.240303 67.1905,120.240303 C96.6116184,120.240303 120.463987,96.3897105 120.463987,66.9668158" id="Fill-4" fill="#BEE0D6"></path>
                <path d="M33.2701513,114.623237 L33.4015987,113.271461 C33.4015987,113.271461 33.9877829,112.607118 36.0287697,112.644421 C38.0697566,112.681724 42.2387697,112.857579 42.2387697,112.857579 C42.2387697,112.857579 44.0204145,111.296197 45.0506776,108.949684 C46.0809408,106.604947 46.4859408,105.320671 47.0117303,102.805408 C47.5357434,100.290145 48.9852171,85.3921842 48.9852171,85.3921842 C48.9852171,85.3921842 49.8787039,75.3737632 49.3475855,72.5956053 C48.8164671,69.8174474 45.4556776,63.5559342 44.6989671,59.7919211 C43.9404803,56.0296842 42.8391645,47.9829737 43.7006776,37.8810658 C44.5639671,27.7791579 46.5587697,21.2760658 46.5587697,21.2760658 C46.5587697,21.2760658 50.7242303,19.6756053 56.1704145,20.1658684 C61.6165987,20.6543553 66.6719934,23.111 66.6719934,23.111 C66.6719934,23.111 68.7360724,29.5536974 66.9597566,41.1850132 C65.1408092,53.0934342 62.9364013,58.6408684 59.9468618,64.3588289 C57.9556118,68.1690263 55.7334408,69.6078421 55.0762039,71.4285658 C54.4171908,73.2492895 53.4402171,77.5248816 53.0032434,80.7702105 C52.5680461,84.0173158 51.2393618,95.1956711 50.9267303,98.0129079 C50.6123224,100.830145 49.8946908,108.619289 50.8237039,110.193105 C51.7544934,111.766921 53.1240329,113.275013 53.1240329,113.275013 C53.1240329,113.275013 57.905875,114.246658 59.7425855,114.839947 C61.4691645,115.397711 61.7054145,115.824026 61.7054145,115.824026 L61.5668618,117.253961 C61.5668618,117.253961 52.6977171,117.722908 45.9850197,117.069224 C39.2705461,116.417316 33.2701513,114.623237 33.2701513,114.623237" id="Fill-6" fill="#E6E6E6"></path>
                <path d="M33.2701513,114.623237 L33.4015987,113.271461 C33.4015987,113.271461 33.9877829,112.607118 36.0287697,112.644421 C38.0697566,112.681724 42.2387697,112.857579 42.2387697,112.857579 C42.2387697,112.857579 44.0204145,111.296197 45.0506776,108.949684 C46.0809408,106.604947 46.4859408,105.320671 47.0117303,102.805408 C47.5357434,100.290145 48.9852171,85.3921842 48.9852171,85.3921842 C48.9852171,85.3921842 49.8787039,75.3737632 49.3475855,72.5956053 C48.8164671,69.8174474 45.4556776,63.5559342 44.6989671,59.7919211 C43.9404803,56.0296842 42.8391645,47.9829737 43.7006776,37.8810658 C44.5639671,27.7791579 46.5587697,21.2760658 46.5587697,21.2760658 C46.5587697,21.2760658 50.7242303,19.6756053 56.1704145,20.1658684 C61.6165987,20.6543553 66.6719934,23.111 66.6719934,23.111 C66.6719934,23.111 68.7360724,29.5536974 66.9597566,41.1850132 C65.1408092,53.0934342 62.9364013,58.6408684 59.9468618,64.3588289 C57.9556118,68.1690263 55.7334408,69.6078421 55.0762039,71.4285658 C54.4171908,73.2492895 53.4402171,77.5248816 53.0032434,80.7702105 C52.5680461,84.0173158 51.2393618,95.1956711 50.9267303,98.0129079 C50.6123224,100.830145 49.8946908,108.619289 50.8237039,110.193105 C51.7544934,111.766921 53.1240329,113.275013 53.1240329,113.275013 C53.1240329,113.275013 57.905875,114.246658 59.7425855,114.839947 C61.4691645,115.397711 61.7054145,115.824026 61.7054145,115.824026 L61.5668618,117.253961 C61.5668618,117.253961 52.6977171,117.722908 45.9850197,117.069224 C39.2705461,116.417316 33.2701513,114.623237 33.2701513,114.623237 L33.2701513,114.623237 Z" id="Stroke-8" stroke="#999999" stroke-width="0.3"></path>
                <path d="M56.8498553,68.4276579 C57.7433421,67.3583158 58.834,66.0438421 59.8624868,64.0756842 C62.7720921,58.5069342 64.9196579,53.1051579 66.6906447,41.5058158 C66.7545921,41.0848289 66.8043289,40.6851579 66.8576184,40.2783816 C66.6959737,40.2339737 60.5818947,38.5713421 55.7005789,38.0544342 C51.2011711,37.5801579 46.8101184,37.9425263 44.0372895,38.3048947 C43.2006447,48.1350263 44.2735395,55.9650263 45.0089342,59.6277895 C45.4547895,61.8428553 46.8261053,64.9443026 47.9558421,67.6514079 C49.8547237,68.4116711 51.5901842,69.0333816 52.3024868,69.1026579 C53.5157105,69.2198947 54.3328158,69.1914737 56.8498553,68.4276579" id="Fill-10" fill="#FCEC9D"></path>
                <path d="M50.7439474,51.48125 C50.7261842,51.6695395 50.5574342,51.8063158 50.3709211,51.7885526 C50.1826316,51.7707895 50.0440789,51.6038158 50.0618421,51.4155263 C50.0813816,51.2272368 50.2483553,51.0886842 50.4366447,51.1082237 C50.6249342,51.1259868 50.7617105,51.2929605 50.7439474,51.48125" id="Fill-12" fill="#FFFFFF"></path>
                <path d="M54.2823684,54.8116645 C54.2646053,54.9999539 54.0958553,55.1367303 53.9093421,55.1189671 C53.7210526,55.1012039 53.5825,54.9342303 53.6002632,54.7459408 C53.6198026,54.5576513 53.7867763,54.4190987 53.9750658,54.4386382 C54.1633553,54.4564013 54.3001316,54.623375 54.2823684,54.8116645" id="Fill-14" fill="#FFFFFF"></path>
                <path d="M57.6005263,49.7354868 C57.5827632,49.9237763 57.4140132,50.0605526 57.2275,50.0427895 C57.0392105,50.0250263 56.9006579,49.8580526 56.9184211,49.6697632 C56.9379605,49.4814737 57.1049342,49.3429211 57.2932237,49.3624605 C57.4815132,49.3802237 57.6182895,49.5471974 57.6005263,49.7354868" id="Fill-16" fill="#FFFFFF"></path>
                <path d="M52.5566776,44.6713882 C52.5389145,44.8596776 52.3701645,44.9964539 52.1836513,44.9786908 C51.9953618,44.9609276 51.8568092,44.7939539 51.8745724,44.6056645 C51.8941118,44.417375 52.0610855,44.2788224 52.249375,44.2983618 C52.4376645,44.316125 52.5744408,44.4830987 52.5566776,44.6713882" id="Fill-18" fill="#FFFFFF"></path>
                <path d="M52.7820921,60.7868355 C52.7643289,60.975125 52.5955789,61.1119013 52.4090658,61.0941382 C52.2207763,61.076375 52.0822237,60.9094013 52.0999868,60.7211118 C52.1195263,60.5328224 52.2865,60.3942697 52.4747895,60.4138092 C52.6630789,60.4315724 52.7998553,60.5985461 52.7820921,60.7868355" id="Fill-20" fill="#FFFFFF"></path>
                <path d="M56.4445,58.0870132 C56.4267368,58.2753026 56.2579868,58.4120789 56.0714737,58.3943158 C55.8831842,58.3765526 55.7446316,58.2095789 55.7623947,58.0212895 C55.7819342,57.833 55.9489079,57.6944474 56.1371974,57.7139868 C56.3254868,57.73175 56.4622632,57.8987237 56.4445,58.0870132" id="Fill-22" fill="#FFFFFF"></path>
                <path d="M58.1087303,44.5104539 C58.0909671,44.6987434 57.9222171,44.8355197 57.7357039,44.8177566 C57.5474145,44.7999934 57.4088618,44.6330197 57.426625,44.4447303 C57.4461645,44.2564408 57.6131382,44.1178882 57.8014276,44.1374276 C57.9897171,44.1551908 58.1264934,44.3221645 58.1087303,44.5104539" id="Fill-24" fill="#FFFFFF"></path>
                <path d="M55.2907829,47.9788882 C55.2730197,48.1671776 55.1042697,48.3039539 54.9177566,48.2861908 C54.7294671,48.2684276 54.5909145,48.1014539 54.6086776,47.9131645 C54.6282171,47.724875 54.7951908,47.5863224 54.9834803,47.6058618 C55.1717697,47.623625 55.3085461,47.7905987 55.2907829,47.9788882" id="Fill-26" fill="#FFFFFF"></path>
                <path d="M80.5034539,116.392803 L80.2103618,115.065895 C80.2103618,115.065895 80.5602961,114.252342 82.5142434,113.657276 C84.4664145,113.060434 88.4844408,111.93425 88.4844408,111.93425 C88.4844408,111.93425 89.6941118,109.898592 89.9463487,107.349579 C90.1985855,104.798789 90.1861513,103.452342 89.9072697,100.898 C89.6266118,98.3436579 86.3883882,83.7316842 86.3883882,83.7316842 C86.3883882,83.7316842 84.1342434,73.9281974 82.7682566,71.4520132 C81.4004934,68.9740526 76.2651645,64.0625395 74.3804934,60.7195132 C72.4940461,57.3764868 68.9538487,50.0669474 66.6428618,40.1941842 C64.331875,30.3231974 64.2146382,23.5216842 64.2146382,23.5216842 C64.2146382,23.5216842 67.6802303,20.7097763 73.0109539,19.4876711 C78.3399013,18.2655658 83.906875,19.0347105 83.906875,19.0347105 C83.906875,19.0347105 87.8645066,24.52175 89.779375,36.1299737 C91.7404276,48.0170789 91.3638487,53.9730658 90.2945066,60.3358289 C89.5804276,64.5758947 87.9142434,66.6328684 87.8520724,68.5672763 C87.7899013,70.5016842 88.1860197,74.8714211 88.7775329,78.0918816 C89.3690461,81.3141184 91.5699013,92.3539211 92.1436513,95.1285263 C92.7174013,97.9049079 94.4493092,105.534184 95.820625,106.742079 C97.1919408,107.949974 98.9629276,108.958921 98.9629276,108.958921 C98.9629276,108.958921 103.808717,108.401158 105.739572,108.395829 C107.554967,108.392276 107.91023,108.722671 107.91023,108.722671 L108.221086,110.125961 C108.221086,110.125961 99.9363487,113.319776 93.3497697,114.779908 C86.7649671,116.238263 80.5034539,116.392803 80.5034539,116.392803" id="Fill-28" fill="#E6E6E6"></path>
                <path d="M80.5034539,116.392803 L80.2103618,115.065895 C80.2103618,115.065895 80.5602961,114.252342 82.5142434,113.657276 C84.4664145,113.060434 88.4844408,111.93425 88.4844408,111.93425 C88.4844408,111.93425 89.6941118,109.898592 89.9463487,107.349579 C90.1985855,104.798789 90.1861513,103.452342 89.9072697,100.898 C89.6266118,98.3436579 86.3883882,83.7316842 86.3883882,83.7316842 C86.3883882,83.7316842 84.1342434,73.9281974 82.7682566,71.4520132 C81.4004934,68.9740526 76.2651645,64.0625395 74.3804934,60.7195132 C72.4940461,57.3764868 68.9538487,50.0669474 66.6428618,40.1941842 C64.331875,30.3231974 64.2146382,23.5216842 64.2146382,23.5216842 C64.2146382,23.5216842 67.6802303,20.7097763 73.0109539,19.4876711 C78.3399013,18.2655658 83.906875,19.0347105 83.906875,19.0347105 C83.906875,19.0347105 87.8645066,24.52175 89.779375,36.1299737 C91.7404276,48.0170789 91.3638487,53.9730658 90.2945066,60.3358289 C89.5804276,64.5758947 87.9142434,66.6328684 87.8520724,68.5672763 C87.7899013,70.5016842 88.1860197,74.8714211 88.7775329,78.0918816 C89.3690461,81.3141184 91.5699013,92.3539211 92.1436513,95.1285263 C92.7174013,97.9049079 94.4493092,105.534184 95.820625,106.742079 C97.1919408,107.949974 98.9629276,108.958921 98.9629276,108.958921 C98.9629276,108.958921 103.808717,108.401158 105.739572,108.395829 C107.554967,108.392276 107.91023,108.722671 107.91023,108.722671 L108.221086,110.125961 C108.221086,110.125961 99.9363487,113.319776 93.3497697,114.779908 C86.7649671,116.238263 80.5034539,116.392803 80.5034539,116.392803 L80.5034539,116.392803 Z" id="Stroke-30" stroke="#999999" stroke-width="0.3"></path>
                <path d="M88.6091382,65.1647434 C89.1278224,63.8715855 89.7566382,62.2835592 90.1243355,60.0933618 C91.1652566,53.8975724 91.5329539,48.096125 89.6234145,36.519875 C89.5541382,36.0988882 89.4777566,35.7045461 89.4031513,35.2995461 C89.2344013,35.3084276 82.9071645,35.6210592 78.1057829,36.6424408 C73.6809803,37.5838882 69.6185461,39.2909276 67.0944013,40.4934934 C69.3432171,50.0998092 72.7892697,57.2139539 74.6259803,60.4681645 C75.7344013,62.4345461 77.9992039,64.9586908 79.9122961,67.1826382 C81.9532829,67.3176382 83.7953224,67.3709276 84.4951908,67.2146118 C85.6853224,66.9517171 86.4526908,66.6710592 88.6091382,65.1647434" id="Fill-32" fill="#FCEC9D"></path>
                <path d="M77.5529934,50.9440921 C77.5938487,51.1288289 77.4766118,51.3117895 77.2936513,51.3526447 C77.1089145,51.3935 76.9259539,51.2762632 76.8850987,51.0915263 C76.8442434,50.9067895 76.9597039,50.7256053 77.1444408,50.68475 C77.3291776,50.6438947 77.5121382,50.7593553 77.5529934,50.9440921" id="Fill-34" fill="#FFFFFF"></path>
                <path d="M81.9491974,53.0142105 C81.9900526,53.1989474 81.8728158,53.3819079 81.6898553,53.4227632 C81.5051184,53.4636184 81.3221579,53.3463816 81.2813026,53.1616447 C81.2404474,52.9769079 81.3559079,52.7957237 81.5406447,52.7548684 C81.7253816,52.7140132 81.9083421,52.8294737 81.9491974,53.0142105" id="Fill-36" fill="#FFFFFF"></path>
                <path d="M83.5313618,47.1598289 C83.5722171,47.3445658 83.4549803,47.5275263 83.2720197,47.5683816 C83.0872829,47.6092368 82.9043224,47.492 82.8634671,47.3072632 C82.8226118,47.1225263 82.9380724,46.9413421 83.1228092,46.9004868 C83.3075461,46.8596316 83.4905066,46.9750921 83.5313618,47.1598289" id="Fill-38" fill="#FFFFFF"></path>
                <path d="M77.1664671,43.90775 C77.2073224,44.0924868 77.0900855,44.2754474 76.907125,44.3163026 C76.7223882,44.3571579 76.5394276,44.2399211 76.4985724,44.0551842 C76.4577171,43.8704474 76.5731776,43.6892632 76.7579145,43.6484079 C76.9426513,43.6075526 77.1256118,43.7230132 77.1664671,43.90775" id="Fill-40" fill="#FFFFFF"></path>
                <path d="M82.3740921,59.1602632 C82.4149474,59.345 82.2977105,59.5279605 82.11475,59.5688158 C81.9300132,59.6096711 81.7470526,59.4924342 81.7061974,59.3076974 C81.6653421,59.1229605 81.7808026,58.9417763 81.9655395,58.9009211 C82.1502763,58.8600658 82.3332368,58.9755263 82.3740921,59.1602632" id="Fill-42" fill="#FFFFFF"></path>
                <path d="M85.0197368,55.4584211 C85.0605921,55.6431579 84.9433553,55.8261184 84.7603947,55.8669737 C84.5756579,55.9078289 84.3926974,55.7905921 84.3518421,55.6058553 C84.3109868,55.4211184 84.4264474,55.2399342 84.6111842,55.1990789 C84.7959211,55.1582237 84.9788816,55.2736842 85.0197368,55.4584211" id="Fill-44" fill="#FFFFFF"></path>
                <path d="M82.3954079,42.0344474 C82.4362632,42.2191842 82.3190263,42.4021447 82.1360658,42.443 C81.9513289,42.4838553 81.7683684,42.3666184 81.7275132,42.1818816 C81.6866579,41.9971447 81.8021184,41.8159605 81.9868553,41.7751053 C82.1715921,41.73425 82.3545526,41.8497105 82.3954079,42.0344474" id="Fill-46" fill="#FFFFFF"></path>
                <path d="M80.7908618,46.2052368 C80.8317171,46.3899737 80.7144803,46.5729342 80.5315197,46.6137895 C80.3467829,46.6546447 80.1638224,46.5374079 80.1229671,46.3526711 C80.0821118,46.1679342 80.1975724,45.98675 80.3823092,45.9458947 C80.5670461,45.9050395 80.7500066,46.0205 80.7908618,46.2052368" id="Fill-48" fill="#FFFFFF"></path>
            </g>
        </g>
    </g>
</svg>