<?xml version="1.0" encoding="UTF-8" standalone="no"?>
<svg width="154px" height="154px" viewBox="0 0 154 154" version="1.1" xmlns="http://www.w3.org/2000/svg" xmlns:xlink="http://www.w3.org/1999/xlink">
    <!-- Generator: Sketch 3.7.2 (28276) - http://www.bohemiancoding.com/sketch -->
    <title>Page 1</title>
    <desc>Created with Sketch.</desc>
    <defs>
        <filter x="-50%" y="-50%" width="200%" height="200%" filterUnits="objectBoundingBox" id="filter-1">
            <feOffset dx="0" dy="0" in="SourceAlpha" result="shadowOffsetOuter1"></feOffset>
            <feGaussianBlur stdDeviation="5" in="shadowOffsetOuter1" result="shadowBlurOuter1"></feGaussianBlur>
            <feColorMatrix values="0 0 0 0 0   0 0 0 0 0   0 0 0 0 0  0 0 0 0.5 0" type="matrix" in="shadowBlurOuter1" result="shadowMatrixOuter1"></feColorMatrix>
            <feMerge>
                <feMergeNode in="shadowMatrixOuter1"></feMergeNode>
                <feMergeNode in="SourceGraphic"></feMergeNode>
            </feMerge>
        </filter>
        <polygon id="path-2" points="1 135.14626 135.1468 135.14626 135.1468 0.99946 1 0.99946"></polygon>
    </defs>
    <g id="Page-1" stroke="none" stroke-width="1" fill="none" fill-rule="evenodd">
        <g id="Desktop-HD" transform="translate(-1148.000000, -998.000000)">
            <g id="Page-1" filter="url(#filter-1)" transform="translate(1157.000000, 1007.000000)">
                <path d="M135.14626,68.07304 C135.14626,105.11704 105.11686,135.14644 68.07286,135.14644 C31.02886,135.14644 0.99946,105.11704 0.99946,68.07304 C0.99946,31.02904 31.02886,0.99964 68.07286,0.99964 C105.11686,0.99964 135.14626,31.02904 135.14626,68.07304" id="Fill-1" fill="#FFFFFF"></path>
                <path d="M122.0572,68.07304 C122.0572,38.25784 97.8868,14.08924 68.0734,14.08924 C38.2582,14.08924 14.0896,38.25784 14.0896,68.07304 C14.0896,97.88824 38.2582,122.05684 68.0734,122.05684 C97.8868,122.05684 122.0572,97.88824 122.0572,68.07304" id="Fill-4" fill="#BEE0D6"></path>
                <mask id="mask-3" fill="white">
                    <use xlink:href="#path-2"></use>
                </mask>
                <g id="Clip-7"></g>
                <polygon id="Fill-6" fill="#FF0000" mask="url(#mask-3)" points="28.9144 92.16946 109.315 92.16946 109.315 36.93646 28.9144 36.93646"></polygon>
                <polygon id="Fill-8" fill="#180099" mask="url(#mask-3)" points="28.9162 65.46466 69.1156 65.46466 69.1156 36.93466 28.9162 36.93466"></polygon>
                <polygon id="Fill-9" fill="#FFFFFF" mask="url(#mask-3)" points="47.69614 46.1314 48.82834 40.7584 50.15314 46.1818 53.60014 42.2542 52.30594 47.5768 57.14434 46.1458 53.57674 49.942 58.50874 51.3928 53.62534 52.6438 57.33154 56.5876 52.43914 54.9586 53.92594 60.3388 50.33494 56.2672 49.20274 61.6402 47.87794 56.2168 44.43094 60.1462 45.72514 54.8218 40.88674 56.2528 44.45434 52.4566 39.52234 51.0058 44.40574 49.7548 40.69954 45.811 45.59194 47.44 44.10514 42.0598"></polygon>
                <path d="M54.6193,51.19948 C54.6193,54.38548 52.1101,56.96668 49.0159,56.96668 C45.9199,56.96668 43.4125,54.38548 43.4125,51.19948 C43.4125,48.01348 45.9199,45.43228 49.0159,45.43228 C52.1101,45.43228 54.6193,48.01348 54.6193,51.19948" id="Fill-10" fill="#180099" mask="url(#mask-3)"></path>
                <path d="M53.88382,51.19948 C53.88382,53.96608 51.70402,56.21068 49.01482,56.21068 C46.32742,56.21068 44.14762,53.96608 44.14762,51.19948 C44.14762,48.43288 46.32742,46.18828 49.01482,46.18828 C51.70402,46.18828 53.88382,48.43288 53.88382,51.19948" id="Fill-11" fill="#FFFFFF" mask="url(#mask-3)"></path>
                <polygon id="Fill-12" fill="#034459" mask="url(#mask-3)" points="19.76878 96.20362 35.63938 102.37762 22.83418 108.18262 14.08978 98.77762"></polygon>
                <path d="M114.4765,69.58756 L93.1033,79.27696 L51.4657,69.87736 L44.7067,72.94096 L64.5643,92.21356 L27.8209,108.87076 L53.4979,110.33956 L119.4067,80.46316 C119.4067,80.46316 133.1803,73.58716 132.0427,70.92136 C130.9033,68.25376 114.4765,69.58756 114.4765,69.58756" id="Fill-13" fill="#034459" mask="url(#mask-3)"></path>
            </g>
        </g>
    </g>
</svg>