<?xml version="1.0" encoding="UTF-8" standalone="no"?>
<svg width="166px" height="155px" viewBox="0 0 166 155" version="1.1" xmlns="http://www.w3.org/2000/svg" xmlns:xlink="http://www.w3.org/1999/xlink">
    <!-- Generator: Sketch 3.7.2 (28276) - http://www.bohemiancoding.com/sketch -->
    <title>Page 1</title>
    <desc>Created with Sketch.</desc>
    <defs>
        <filter x="-50%" y="-50%" width="200%" height="200%" filterUnits="objectBoundingBox" id="filter-1">
            <feOffset dx="0" dy="0" in="SourceAlpha" result="shadowOffsetOuter1"></feOffset>
            <feGaussianBlur stdDeviation="5" in="shadowOffsetOuter1" result="shadowBlurOuter1"></feGaussianBlur>
            <feColorMatrix values="0 0 0 0 0   0 0 0 0 0   0 0 0 0 0  0 0 0 0.5 0" type="matrix" in="shadowBlurOuter1" result="shadowMatrixOuter1"></feColorMatrix>
            <feMerge>
                <feMergeNode in="shadowMatrixOuter1"></feMergeNode>
                <feMergeNode in="SourceGraphic"></feMergeNode>
            </feMerge>
        </filter>
        <polygon id="path-2" points="0 0.718567147 0 134.231245 132.837398 134.231245 132.837398 0.718567147 0 0.718567147"></polygon>
        <polygon id="path-4" points="0 136.281075 146.562701 136.281075 146.562701 0.846126234 0 0.846126234"></polygon>
    </defs>
    <g id="Page-1" stroke="none" stroke-width="1" fill="none" fill-rule="evenodd">
        <g id="Desktop-HD" transform="translate(-404.000000, -1239.000000)">
            <g id="Page-1" filter="url(#filter-1)" transform="translate(414.000000, 1248.000000)">
                <g id="Group-3" transform="translate(0.000000, 0.127738)">
                    <mask id="mask-3" fill="white">
                        <use xlink:href="#path-2"></use>
                    </mask>
                    <g id="Clip-2"></g>
                    <path d="M132.837398,67.4749062 C132.837398,104.343797 103.100994,134.231245 66.4184317,134.231245 C29.7358691,134.231245 -0.000534731233,104.343797 -0.000534731233,67.4749062 C-0.000534731233,30.606016 29.7358691,0.718567147 66.4184317,0.718567147 C103.100994,0.718567147 132.837398,30.606016 132.837398,67.4749062" id="Fill-1" fill="#FFFFFF" mask="url(#mask-3)"></path>
                </g>
                <path d="M119.875691,67.6026445 C119.875691,37.9283831 95.9411213,13.8740299 66.4186099,13.8740299 C36.8943161,13.8740299 12.9615286,37.9283831 12.9615286,67.6026445 C12.9615286,97.2769058 36.8943161,121.331259 66.4186099,121.331259 C95.9411213,121.331259 119.875691,97.2769058 119.875691,67.6026445" id="Fill-4" fill="#BEE0D6"></path>
                <mask id="mask-5" fill="white">
                    <use xlink:href="#path-4"></use>
                </mask>
                <g id="Clip-7"></g>
                <polygon id="Fill-6" fill="#000000" mask="url(#mask-5)" points="48.8494805 65.5494163 50.3271212 65.5494163 50.3271212 28.9814966 48.8494805 28.9814966"></polygon>
                <path d="M52.0102769,46.7505819 L46.990933,46.7505819 C46.1032792,46.7505819 45.3760447,46.0196534 45.3760447,45.1274908 L45.3760447,44.4341837 C45.3760447,43.5402295 46.1032792,42.8110926 46.990933,42.8110926 L52.0102769,42.8110926 C52.8979307,42.8110926 53.6251652,43.5402295 53.6251652,44.4341837 L53.6251652,45.1274908 C53.6251652,46.0196534 52.8979307,46.7505819 52.0102769,46.7505819" id="Fill-8" fill="#FFFFFF" mask="url(#mask-5)"></path>
                <path d="M52.0102769,46.7505819 L46.990933,46.7505819 C46.1032792,46.7505819 45.3760447,46.0196534 45.3760447,45.1274908 L45.3760447,44.4341837 C45.3760447,43.5402295 46.1032792,42.8110926 46.990933,42.8110926 L52.0102769,42.8110926 C52.8979307,42.8110926 53.6251652,43.5402295 53.6251652,44.4341837 L53.6251652,45.1274908 C53.6251652,46.0196534 52.8979307,46.7505819 52.0102769,46.7505819 L52.0102769,46.7505819 Z" id="Stroke-9" stroke="#000000" stroke-width="0.3" mask="url(#mask-5)"></path>
                <polygon id="Fill-10" fill="#000000" mask="url(#mask-5)" points="60.0414052 65.5494163 61.5190459 65.5494163 61.5190459 28.9814966 60.0414052 28.9814966"></polygon>
                <path d="M63.2886498,57.9461482 L58.2693059,57.9461482 C57.3816521,57.9461482 56.6544176,57.2152198 56.6544176,56.3230572 L56.6544176,55.62975 C56.6544176,54.7357959 57.3816521,54.006659 58.2693059,54.006659 L63.2886498,54.006659 C64.1763036,54.006659 64.9035381,54.7357959 64.9035381,55.62975 L64.9035381,56.3230572 C64.9035381,57.2152198 64.1763036,57.9461482 63.2886498,57.9461482" id="Fill-11" fill="#FFFFFF" mask="url(#mask-5)"></path>
                <path d="M63.2886498,57.9461482 L58.2693059,57.9461482 C57.3816521,57.9461482 56.6544176,57.2152198 56.6544176,56.3230572 L56.6544176,55.62975 C56.6544176,54.7357959 57.3816521,54.006659 58.2693059,54.006659 L63.2886498,54.006659 C64.1763036,54.006659 64.9035381,54.7357959 64.9035381,55.62975 L64.9035381,56.3230572 C64.9035381,57.2152198 64.1763036,57.9461482 63.2886498,57.9461482 L63.2886498,57.9461482 Z" id="Stroke-12" stroke="#000000" stroke-width="0.3" mask="url(#mask-5)"></path>
                <polygon id="Fill-13" fill="#000000" mask="url(#mask-5)" points="71.5274321 65.5494163 73.0050728 65.5494163 73.0050728 28.9814966 71.5274321 28.9814966"></polygon>
                <path d="M74.5672009,41.105772 L69.5478571,41.105772 C68.6602032,41.105772 67.9329688,40.3748436 67.9329688,39.4826809 L67.9329688,38.7893738 C67.9329688,37.8954197 68.6602032,37.1662827 69.5478571,37.1662827 L74.5672009,37.1662827 C75.4548548,37.1662827 76.1820892,37.8954197 76.1820892,38.7893738 L76.1820892,39.4826809 C76.1820892,40.3748436 75.4548548,41.105772 74.5672009,41.105772" id="Fill-14" fill="#FFFFFF" mask="url(#mask-5)"></path>
                <path d="M74.5672009,41.105772 L69.5478571,41.105772 C68.6602032,41.105772 67.9329688,40.3748436 67.9329688,39.4826809 L67.9329688,38.7893738 C67.9329688,37.8954197 68.6602032,37.1662827 69.5478571,37.1662827 L74.5672009,37.1662827 C75.4548548,37.1662827 76.1820892,37.8954197 76.1820892,38.7893738 L76.1820892,39.4826809 C76.1820892,40.3748436 75.4548548,41.105772 74.5672009,41.105772 L74.5672009,41.105772 Z" id="Stroke-15" stroke="#000000" stroke-width="0.3" mask="url(#mask-5)"></path>
                <polygon id="Fill-16" fill="#000000" mask="url(#mask-5)" points="82.5981511 65.5494163 84.0757917 65.5494163 84.0757917 28.9814966 82.5981511 28.9814966"></polygon>
                <path d="M85.8455738,55.513124 L80.82623,55.513124 C79.9385762,55.513124 79.2113417,54.7821955 79.2113417,53.8900329 L79.2113417,53.1967258 C79.2113417,52.3027716 79.9385762,51.5736347 80.82623,51.5736347 L85.8455738,51.5736347 C86.7332277,51.5736347 87.4604622,52.3027716 87.4604622,53.1967258 L87.4604622,53.8900329 C87.4604622,54.7821955 86.7332277,55.513124 85.8455738,55.513124" id="Fill-17" fill="#FFFFFF" mask="url(#mask-5)"></path>
                <path d="M85.8455738,55.513124 L80.82623,55.513124 C79.9385762,55.513124 79.2113417,54.7821955 79.2113417,53.8900329 L79.2113417,53.1967258 C79.2113417,52.3027716 79.9385762,51.5736347 80.82623,51.5736347 L85.8455738,51.5736347 C86.7332277,51.5736347 87.4604622,52.3027716 87.4604622,53.1967258 L87.4604622,53.8900329 C87.4604622,54.7821955 86.7332277,55.513124 85.8455738,55.513124 L85.8455738,55.513124 Z" id="Stroke-18" stroke="#000000" stroke-width="0.3" mask="url(#mask-5)"></path>
                <polygon id="Fill-19" fill="#000000" mask="url(#mask-5)" points="93.8756328 65.5494163 95.3532734 65.5494163 95.3532734 28.9814966 93.8756328 28.9814966"></polygon>
                <path d="M97.1239468,46.1629727 L92.1046029,46.1629727 C91.2169491,46.1629727 90.4897146,45.4320443 90.4897146,44.5398816 L90.4897146,43.8465745 C90.4897146,42.9526204 91.2169491,42.2234834 92.1046029,42.2234834 L97.1239468,42.2234834 C98.0116006,42.2234834 98.7388351,42.9526204 98.7388351,43.8465745 L98.7388351,44.5398816 C98.7388351,45.4320443 98.0116006,46.1629727 97.1239468,46.1629727" id="Fill-20" fill="#FFFFFF" mask="url(#mask-5)"></path>
                <path d="M97.1239468,46.1629727 L92.1046029,46.1629727 C91.2169491,46.1629727 90.4897146,45.4320443 90.4897146,44.5398816 L90.4897146,43.8465745 C90.4897146,42.9526204 91.2169491,42.2234834 92.1046029,42.2234834 L97.1239468,42.2234834 C98.0116006,42.2234834 98.7388351,42.9526204 98.7388351,43.8465745 L98.7388351,44.5398816 C98.7388351,45.4320443 98.0116006,46.1629727 97.1239468,46.1629727 L97.1239468,46.1629727 Z" id="Stroke-21" stroke="#000000" stroke-width="0.3" mask="url(#mask-5)"></path>
                <polygon id="Fill-22" fill="#000000" mask="url(#mask-5)" points="37.4846594 65.5494163 38.9623 65.5494163 38.9623 28.9814966 37.4846594 28.9814966"></polygon>
                <path d="M40.7317257,52.6386762 L35.7123819,52.6386762 C34.824728,52.6386762 34.0974935,51.9077478 34.0974935,51.0155851 L34.0974935,50.322278 C34.0974935,49.4283239 34.824728,48.6991869 35.7123819,48.6991869 L40.7317257,48.6991869 C41.6193795,48.6991869 42.346614,49.4283239 42.346614,50.322278 L42.346614,51.0155851 C42.346614,51.9077478 41.6193795,52.6386762 40.7317257,52.6386762" id="Fill-23" fill="#FFFFFF" mask="url(#mask-5)"></path>
                <path d="M40.7317257,52.6386762 L35.7123819,52.6386762 C34.824728,52.6386762 34.0974935,51.9077478 34.0974935,51.0155851 L34.0974935,50.322278 C34.0974935,49.4283239 34.824728,48.6991869 35.7123819,48.6991869 L40.7317257,48.6991869 C41.6193795,48.6991869 42.346614,49.4283239 42.346614,50.322278 L42.346614,51.0155851 C42.346614,51.9077478 41.6193795,52.6386762 40.7317257,52.6386762 L40.7317257,52.6386762 Z" id="Stroke-24" stroke="#000000" stroke-width="0.3" mask="url(#mask-5)"></path>
                <path d="M25.1869105,122.087806 C18.5901095,113.56389 13.0092979,100.231612 22.2512361,86.7900534 C31.4931742,73.3484944 50.3388853,79.7763651 55.9642578,75.7705906 C60.8802203,72.2718082 60.5272977,66.4440871 66.5038104,63.0760835 C73.2342942,59.281705 81.3247778,67.2018879 82.6776478,69.2137326 C83.7738468,70.8439896 84.2265859,71.490718 84.2265859,71.490718 L89.3368341,78.5939809 C89.3368341,78.5939809 85.9038595,81.0787792 84.9199541,83.7266033 C83.8914877,86.4926658 84.6418938,89.7943843 86.1640954,92.6356894 C87.686297,95.4769946 88.6238591,98.0280781 87.3618934,99.7031225 C84.7452752,103.178616 81.019981,100.869383 77.0504928,104.056446 C72.3822891,107.806037 71.2647008,123.761059 62.9157639,130.50244 C55.0409552,136.862234 40.4089263,141.75838 25.1869105,122.087806" id="Fill-25" fill="#BF7D2A" mask="url(#mask-5)"></path>
                <path d="M25.1869105,122.087806 C18.5901095,113.56389 13.0092979,100.231612 22.2512361,86.7900534 C31.4931742,73.3484944 50.3388853,79.7763651 55.9642578,75.7705906 C60.8802203,72.2718082 60.5272977,66.4440871 66.5038104,63.0760835 C73.2342942,59.281705 81.3247778,67.2018879 82.6776478,69.2137326 C83.7738468,70.8439896 84.2265859,71.490718 84.2265859,71.490718 L89.3368341,78.5939809 C89.3368341,78.5939809 85.9038595,81.0787792 84.9199541,83.7266033 C83.8914877,86.4926658 84.6418938,89.7943843 86.1640954,92.6356894 C87.686297,95.4769946 88.6238591,98.0280781 87.3618934,99.7031225 C84.7452752,103.178616 81.019981,100.869383 77.0504928,104.056446 C72.3822891,107.806037 71.2647008,123.761059 62.9157639,130.50244 C55.0409552,136.862234 40.4089263,141.75838 25.1869105,122.087806 L25.1869105,122.087806 Z" id="Stroke-26" stroke="#FBB03B" stroke-width="0.2" mask="url(#mask-5)"></path>
                <path d="M74.7383149,82.3175955 C77.7381571,85.3326753 77.7381571,90.2216549 74.7383149,93.2385262 C71.7384727,96.253606 66.8742009,96.253606 63.8725763,93.2385262 C60.8727341,90.2216549 60.8727341,85.3326753 63.8725763,82.3175955 C66.8742009,79.3025156 71.7384727,79.3025156 74.7383149,82.3175955" id="Fill-27" fill="#231F1F" mask="url(#mask-5)"></path>
                <path d="M43.0918511,97.0338005 C43.0918511,97.0338005 43.4822049,94.3895594 43.2861368,93.4579839 C43.0918511,92.5281999 42.3610518,91.598416 42.6052457,91.3046114 C42.8476572,91.0108068 43.2130569,90.9857259 43.6283648,90.9122748 C44.0418903,90.8388237 45.3822832,90.9122748 45.3822832,90.9122748 L59.0250594,109.816091 C59.0250594,109.816091 58.2942601,112.118157 58.196226,112.214897 C58.0999744,112.313429 57.8807346,112.875958 57.7096206,112.705766 C57.5385066,112.533783 56.4547846,111.446348 55.6669473,111.066552 C54.8791099,110.686755 52.3658731,109.982699 52.3658731,109.982699 C52.3658731,109.982699 52.4193462,109.407631 52.1270265,109.049332 C51.8364892,108.691034 48.7172237,106.770556 46.8830956,103.864757 C45.0489674,100.957166 44.1310121,97.9743334 43.893948,97.5622904 C43.6568838,97.1502474 43.0918511,97.0338005 43.0918511,97.0338005" id="Fill-28" fill="#603813" mask="url(#mask-5)"></path>
                <path d="M78.2759185,86.4971446 L73.1407162,79.6285671 L127.321467,40.9878919 C127.321467,40.9878919 128.401624,40.364453 128.861493,38.8416854 C129.31958,37.3171263 129.182332,36.9480791 129.595857,36.4858744 C130.009383,36.0254611 141.358162,31.1293155 141.472238,31.1526049 C141.588096,31.1758942 142.115698,31.8924907 142.506052,32.1916698 C142.896406,32.4926403 145.974675,33.0462111 146.434544,33.7395182 C146.894413,34.4310339 146.067362,35.1709198 144.712709,36.7635555 C143.356274,38.3561912 135.269356,46.2530847 135.269356,46.2530847 C135.269356,46.2530847 134.075123,45.5597776 132.88089,45.5597776 C131.686656,45.5597776 130.79009,46.1832166 130.79009,46.1832166 L78.2759185,86.4971446 Z" id="Fill-29" fill="#42210B" mask="url(#mask-5)"></path>
                <path d="M132.272009,34.7832411 C131.53408,34.4141939 131.379008,33.3715459 132.188234,32.5582089 C133.138274,31.6015526 134.530357,32.8860518 134.530357,32.8860518 C134.53214,33.2013543 133.763909,33.8857039 133.763909,33.8857039 L134.289728,34.5557217 L133.423464,34.99822 L132.840606,34.5557217 L132.272009,34.7832411 Z" id="Fill-30" fill="#FEDC33" mask="url(#mask-5)"></path>
                <path d="M136.461985,32.9955119 C135.724056,32.6264647 135.568983,31.5838168 136.37821,30.7704798 C137.328249,29.8138234 138.720333,31.0983227 138.720333,31.0983227 C138.722115,31.4136251 137.953885,32.0979748 137.953885,32.0979748 L138.479704,32.7679925 L137.613439,33.2104909 L137.030582,32.7679925 L136.461985,32.9955119 Z" id="Fill-31" fill="#FEDC33" mask="url(#mask-5)"></path>
                <path d="M128.809802,36.5770613 C128.071873,36.2080141 127.916801,35.1653661 128.726028,34.3520291 C129.676067,33.3953728 131.068151,34.679872 131.068151,34.679872 C131.069933,34.9951745 130.301703,35.6795241 130.301703,35.6795241 L130.827522,36.3495419 L129.961257,36.7920402 L129.3784,36.3495419 L128.809802,36.5770613 Z" id="Fill-32" fill="#FEDC33" mask="url(#mask-5)"></path>
                <path d="M142.106964,40.7944109 C142.474146,41.5360882 143.511525,41.691948 144.320751,40.8786109 C145.272573,39.9237461 143.994565,38.5245914 143.994565,38.5245914 C143.680856,38.5227999 142.999965,39.2949327 142.999965,39.2949327 L142.333334,38.7664427 L141.893072,39.6371075 L142.333334,40.2229251 L142.106964,40.7944109 Z" id="Fill-33" fill="#FEDC33" mask="url(#mask-5)"></path>
                <path d="M139.122629,43.7939047 C139.489811,44.5355821 140.52719,44.6914418 141.336416,43.8781048 C142.288238,42.9232399 141.01023,41.5240852 141.01023,41.5240852 C140.696521,41.5222938 140.01563,42.2944265 140.01563,42.2944265 L139.348999,41.7659366 L138.908736,42.6366013 L139.348999,43.222419 L139.122629,43.7939047 Z" id="Fill-34" fill="#FEDC33" mask="url(#mask-5)"></path>
                <path d="M135.982331,46.636643 C136.349513,47.3783204 137.386891,47.5341802 138.196118,46.7208431 C139.14794,45.7659783 137.869932,44.3668236 137.869932,44.3668236 C137.556223,44.3650321 136.875332,45.1371648 136.875332,45.1371648 L136.2087,44.6086749 L135.768438,45.4793397 L136.2087,46.0651573 L135.982331,46.636643 Z" id="Fill-35" fill="#FEDC33" mask="url(#mask-5)"></path>
                <path d="M136.123678,34.8647539 C136.332223,35.0743584 136.332223,35.4129502 136.123678,35.6207632 C135.915133,35.8303677 135.578252,35.8303677 135.371489,35.6207632 C135.162944,35.4129502 135.162944,35.0743584 135.371489,34.8647539 C135.578252,34.6551494 135.915133,34.6551494 136.123678,34.8647539" id="Fill-36" fill="#F6CD11" mask="url(#mask-5)"></path>
                <path d="M142.301428,34.1594438 C142.509973,34.3690483 142.509973,34.7076401 142.301428,34.9154531 C142.092883,35.1250576 141.756002,35.1250576 141.549239,34.9154531 C141.340694,34.7076401 141.340694,34.3690483 141.549239,34.1594438 C141.756002,33.9498393 142.092883,33.9498393 142.301428,34.1594438" id="Fill-37" fill="#42210B" mask="url(#mask-5)"></path>
                <path d="M142.948809,36.7171559 C143.157354,36.9267604 143.157354,37.2653522 142.948809,37.4731652 C142.740264,37.6827697 142.403383,37.6827697 142.196621,37.4731652 C141.988075,37.2653522 141.988075,36.9267604 142.196621,36.7171559 C142.403383,36.5075514 142.740264,36.5075514 142.948809,36.7171559" id="Fill-38" fill="#F6CD11" mask="url(#mask-5)"></path>
                <path d="M131.982185,36.9672481 C132.19073,37.1768525 132.19073,37.5154444 131.982185,37.7232574 C131.773639,37.9328619 131.436759,37.9328619 131.229996,37.7232574 C131.021451,37.5154444 131.021451,37.1768525 131.229996,36.9672481 C131.436759,36.7576436 131.773639,36.7576436 131.982185,36.9672481" id="Fill-39" fill="#F6CD11" mask="url(#mask-5)"></path>
                <path d="M139.794608,33.0198762 C140.003153,33.2294807 140.003153,33.5680725 139.794608,33.7758855 C139.586063,33.98549 139.249182,33.98549 139.042419,33.7758855 C138.833874,33.5680725 138.833874,33.2294807 139.042419,33.0198762 C139.249182,32.8102717 139.586063,32.8102717 139.794608,33.0198762" id="Fill-40" fill="#F6CD11" mask="url(#mask-5)"></path>
                <path d="M139.858597,39.8230643 C140.067143,40.0326688 140.067143,40.3712606 139.858597,40.5790736 C139.650052,40.7886781 139.313172,40.7886781 139.106409,40.5790736 C138.897864,40.3712606 138.897864,40.0326688 139.106409,39.8230643 C139.313172,39.6134598 139.650052,39.6134598 139.858597,39.8230643" id="Fill-41" fill="#F6CD11" mask="url(#mask-5)"></path>
                <path d="M136.551106,42.8703909 C136.759652,43.0799954 136.759652,43.4185873 136.551106,43.6264003 C136.342561,43.8360047 136.005681,43.8360047 135.798918,43.6264003 C135.590373,43.4185873 135.590373,43.0799954 135.798918,42.8703909 C136.005681,42.6607865 136.342561,42.6607865 136.551106,42.8703909" id="Fill-42" fill="#F6CD11" mask="url(#mask-5)"></path>
                <path d="M127.546589,40.8236122 L131.426955,45.9365282" id="Stroke-43" stroke="#FFFFFF" stroke-width="0.3" mask="url(#mask-5)"></path>
                <polyline id="Stroke-44" stroke="#FBB03B" stroke-width="0.1" mask="url(#mask-5)" points="49.7574542 96.9746813 127.594715 41.3775413 131.742447 37.4846307"></polyline>
                <polyline id="Stroke-45" stroke="#FBB03B" stroke-width="0.1" mask="url(#mask-5)" points="50.7115929 98.2966227 128.507858 42.0796267 135.881801 35.3794494"></polyline>
                <polyline id="Stroke-46" stroke="#FBB03B" stroke-width="0.1" mask="url(#mask-5)" points="51.7085102 99.6780416 129.105509 43.0077983 139.794786 33.7762438"></polyline>
                <polyline id="Stroke-47" stroke="#FBB03B" stroke-width="0.1" mask="url(#mask-5)" points="52.7505231 101.121804 129.726866 43.8944073 141.681674 36.9577532"></polyline>
                <polyline id="Stroke-48" stroke="#FBB03B" stroke-width="0.1" mask="url(#mask-5)" points="53.6896894 102.423144 130.270332 44.701295 139.105874 39.8230643"></polyline>
                <polyline id="Stroke-49" stroke="#FBB03B" stroke-width="0.1" mask="url(#mask-5)" points="54.549359 103.614127 130.857288 45.2921288 135.798205 42.8700326"></polyline>
            </g>
        </g>
    </g>
</svg>