<?xml version="1.0" encoding="UTF-8" standalone="no"?>
<svg width="439px" height="224px" viewBox="0 0 439 224" version="1.1" xmlns="http://www.w3.org/2000/svg" xmlns:xlink="http://www.w3.org/1999/xlink">
    <!-- Generator: Sketch 3.7.2 (28276) - http://www.bohemiancoding.com/sketch -->
    <title>Group 38</title>
    <desc>Created with Sketch.</desc>
    <defs>
        <polygon id="path-1" points="6.463113 0.441 0.181528405 0.441 0.181528405 6.82235829 6.463113 6.82235829 6.463113 0.441"></polygon>
        <polygon id="path-3" points="0 0.650610456 0 24.4309624 68.3357755 24.4309624 68.3357755 0.650610456 1.35525272e-20 0.650610456"></polygon>
    </defs>
    <g id="Page-1" stroke="none" stroke-width="1" fill="none" fill-rule="evenodd">
        <g id="Desktop-HD" transform="translate(-363.000000, -230.000000)">
            <g id="Group" transform="translate(-88.000000, 0.000000)">
                <g id="Group-38" transform="translate(451.000000, 230.000000)">
                    <g id="Page-1" transform="translate(377.500000, 120.500000) scale(-1, 1) translate(-377.500000, -120.500000) translate(316.000000, 49.000000)">
                        <path d="M62.7802,78.9204 C33.6662,52.7814 11.8322,41.3284 11.8032,41.3114 C11.5422,41.1754 11.2192,41.2844 11.0802,41.5544 C10.9432,41.8214 11.0412,42.1534 11.3032,42.2884 C11.3162,42.2964 16.7192,45.1294 25.7852,51.2384 C34.8512,57.3464 47.5502,66.7164 62.0662,79.7474 C62.2852,79.9454 62.6252,79.9204 62.8212,79.6914 C63.0182,79.4634 63.0012,79.1164 62.7812,78.9184 L62.7802,78.9204 Z" id="Fill-1" fill="#FEFEFE"></path>
                        <path d="M7.7851,39.1567 C6.4951,40.6557 6.6161,42.9177 8.0561,44.2087 C9.4961,45.5027 11.7101,45.3357 12.9971,43.8397 C14.2881,42.3387 14.1651,40.0787 12.7251,38.7867 C11.2871,37.4947 9.0731,37.6597 7.7851,39.1567" id="Fill-3" fill="#FEFEFE"></path>
                        <path d="M61.8496,78.2153 C31.6176,54.2843 4.8106,49.5083 4.7526,49.4983 C4.4546,49.4463 4.1886,49.6483 4.1576,49.9443 C4.1266,50.2413 4.3376,50.5253 4.6356,50.5773 C4.6396,50.5773 6.2726,50.8663 9.2296,51.6813 C18.1036,54.1193 38.7076,61.2353 61.2246,79.0633 C61.4486,79.2363 61.7466,79.2233 61.9296,79.0403 C61.9466,79.0233 61.9606,79.0053 61.9766,78.9853 C62.1506,78.7513 62.0936,78.4053 61.8506,78.2163 L61.8496,78.2153 Z" id="Fill-5" fill="#FEFEFE"></path>
                        <path d="M1.6005,47.3129 C0.2625,48.6589 0.3245,50.9219 1.7345,52.3749 C3.1465,53.8279 5.3775,53.9159 6.7125,52.5729 C8.0515,51.2299 7.9935,48.9629 6.5795,47.5119 C5.1665,46.0619 2.9375,45.9729 1.6005,47.3129" id="Fill-7" fill="#FEFEFE"></path>
                        <path d="M57.5859,9.519 C57.6169,6.46 57.7919,4.797 57.7939,4.792 C57.8229,4.495 57.6039,4.237 57.2999,4.217 C56.9919,4.199 56.7209,4.431 56.6879,4.731 C56.6849,4.792 53.8319,32.089 69.0259,65.928 C69.1469,66.197 69.4739,66.311 69.7529,66.179 C69.7769,66.165 69.8029,66.154 69.8219,66.14 C70.0569,65.991 70.1519,65.695 70.0439,65.448 C58.7249,40.247 57.4959,18.699 57.5859,9.519" id="Fill-9" fill="#FEFEFE"></path>
                        <g id="Group-13" transform="translate(54.000000, 0.559000)">
                            <mask id="mask-2" fill="white">
                                <use xlink:href="#path-1"></use>
                            </mask>
                            <g id="Clip-12"></g>
                            <path d="M1.5996,0.9268 C0.1506,1.8628 -0.2544,3.8288 0.6946,5.3238 C1.6466,6.8178 3.5946,7.2708 5.0446,6.3358 C6.4956,5.4018 6.8996,3.4318 5.9476,1.9398 C4.9966,0.4468 3.0506,-0.0082 1.5996,0.9268" id="Fill-11" fill="#FEFEFE" mask="url(#mask-2)"></path>
                        </g>
                        <path d="M78.8642,5.9311 C78.5962,5.7891 78.2762,5.8881 78.1452,6.1551 C78.1192,6.2081 66.1512,30.3391 67.9932,67.9641 C68.0062,68.2621 68.2582,68.5031 68.5552,68.4961 C68.5812,68.4951 68.6052,68.4911 68.6302,68.4871 C68.8882,68.4441 69.0782,68.2091 69.0662,67.9371 C67.6892,39.9151 74.0382,19.4321 77.2902,10.9631 C78.3752,8.1421 79.1022,6.6701 79.1032,6.6671 C79.2382,6.4001 79.1292,6.0721 78.8642,5.9311" id="Fill-14" fill="#FEFEFE"></path>
                        <path d="M78.2089,2.4067 C76.3009,2.7267 75.0499,4.5597 75.4119,6.5047 C75.7769,8.4477 77.6139,9.7677 79.5199,9.4507 C81.4259,9.1327 82.6759,7.2977 82.3129,5.3537 C81.9509,3.4097 80.1119,2.0907 78.2089,2.4067" id="Fill-16" fill="#FEFEFE"></path>
                        <path d="M67.3134,10.7133 C67.8714,7.7233 68.3244,6.1353 68.3274,6.1323 C68.4074,5.8453 68.2434,5.5383 67.9574,5.4473 C67.6734,5.3593 67.3774,5.5153 67.2934,5.8043 C67.2784,5.8613 59.8574,31.9063 68.3514,68.7483 L68.3534,68.7513 C68.4214,69.0423 68.7094,69.2333 68.9974,69.1733 C69.0224,69.1673 69.0454,69.1593 69.0684,69.1523 C69.3154,69.0603 69.4594,68.7953 69.3984,68.5263 C63.0674,41.0863 65.6364,19.6783 67.3134,10.7133" id="Fill-18" fill="#FEFEFE"></path>
                        <path d="M66.6894,2.0903 C64.8804,2.7543 63.9834,4.7953 64.6844,6.6513 C65.3854,8.5043 67.4184,9.4703 69.2284,8.8083 C71.0354,8.1433 71.9324,6.1023 71.2334,4.2463 C70.5344,2.3923 68.4984,1.4253 66.6894,2.0903" id="Fill-20" fill="#FEFEFE"></path>
                        <path d="M63.8496,79.4672 L63.8476,79.4672 C32.2586,62.2042 7.7436,61.4162 7.6906,61.4132 C7.4166,61.4082 7.2286,61.6152 7.2606,61.8822 C7.2986,62.1472 7.5436,62.3722 7.8156,62.3842 C7.8186,62.3832 9.3126,62.4302 12.0786,62.7672 C20.3756,63.7862 39.9516,67.4362 63.4786,80.2942 C63.7096,80.4192 63.9716,80.3692 64.0906,80.1852 C64.1036,80.1672 64.1136,80.1492 64.1216,80.1302 C64.2236,79.9022 64.1016,79.6042 63.8496,79.4672" id="Fill-22" fill="#FEFEFE"></path>
                        <path d="M8.871,59.4272 C7.323,58.3242 5.351,58.5322 4.463,59.8882 C3.574,61.2442 4.108,63.2382 5.655,64.3372 C7.2,65.4412 9.174,65.2362 10.062,63.8762 C10.948,62.5202 10.418,60.5272 8.871,59.4272" id="Fill-24" fill="#FEFEFE"></path>
                        <path d="M82.0918,106.5932 C82.0008,106.8502 81.6878,107.3292 81.0678,107.9562 C80.9668,108.0532 80.8668,108.1552 80.7698,108.2522 C78.8218,110.1662 76.6468,111.7182 74.1848,112.4522 C72.7288,112.8812 71.9138,112.6262 71.4988,112.1982 C70.8478,111.5112 70.9698,109.9582 72.3578,108.5812 C72.5178,108.4252 72.6918,108.2722 72.8848,108.1252 C75.0718,106.4152 79.1958,105.4472 81.6268,106.0652 C81.8768,106.1262 82.0338,106.2172 82.0878,106.2782 C82.1408,106.3662 82.1718,106.3242 82.0918,106.5932 M82.0908,104.7762 L81.8578,105.4202 L82.0908,104.7762 C79.1398,104.0932 74.8638,105.0882 72.1878,107.1122 C71.9448,107.2972 71.7198,107.4942 71.5128,107.6972 C69.7408,109.4442 69.2488,111.8352 70.4998,113.1802 C71.2858,114.0042 72.6598,114.2422 74.3968,113.7192 C77.1678,112.8892 79.5528,111.1632 81.6148,109.1362 C81.7188,109.0312 81.8238,108.9282 81.9248,108.8262 C82.6318,108.1072 83.0798,107.5072 83.3088,106.9122 C83.5538,106.3262 83.4648,105.6572 83.0898,105.2922 C82.8178,105.0142 82.4688,104.8712 82.0908,104.7762" id="Fill-26" fill="#FEFEFE"></path>
                        <path d="M92.5595,100.1997 C92.4495,100.3967 92.3215,100.5917 92.1775,100.7867 C90.5385,103.0447 86.8485,105.1147 84.3605,105.1857 C84.1035,105.1957 83.9275,105.1497 83.8595,105.1097 C83.7855,105.0357 83.7695,105.0817 83.7735,104.8017 C83.7925,104.5287 83.9655,103.9797 84.3945,103.2017 C84.4615,103.0767 84.5325,102.9517 84.5995,102.8327 C85.9525,100.4387 87.6195,98.3417 89.7805,96.9557 C91.0595,96.1397 91.9075,96.1607 92.4175,96.4657 C93.2255,96.9527 93.5205,98.4857 92.5595,100.1997 M93.1125,95.2377 C92.1435,94.6537 90.7605,94.8017 89.2425,95.7867 C86.8105,97.3507 84.9855,99.6777 83.5525,102.2077 C83.4805,102.3387 83.4085,102.4657 83.3385,102.5927 C82.8545,103.4847 82.5855,104.1887 82.5245,104.8267 C82.4455,105.4617 82.7095,106.0867 83.1675,106.3357 C83.4995,106.5327 83.8725,106.5747 84.2575,106.5597 L84.3115,105.8737 L84.2595,106.5607 C87.2645,106.4127 91.0895,104.2727 93.1135,101.5787 C93.2945,101.3327 93.4575,101.0807 93.6045,100.8277 C94.8325,98.6467 94.6675,96.1957 93.1125,95.2377" id="Fill-28" fill="#FEFEFE"></path>
                        <path d="M101.6113,112.27 C101.5583,112.493 101.4903,112.714 101.4023,112.943 C100.4553,115.581 97.7123,118.65 95.5953,119.455 C95.3773,119.54 95.2183,119.549 95.1513,119.527 C95.0743,119.483 95.0683,119.531 95.0163,119.263 C94.9783,118.997 95.0153,118.419 95.2243,117.551 C95.2593,117.415 95.2963,117.276 95.3293,117.14 C96.0093,114.458 97.0143,111.961 98.5843,110 C99.5163,108.844 100.2463,108.612 100.7463,108.75 C101.5333,108.973 102.0913,110.351 101.6113,112.27 M101.0933,107.374 C100.1453,107.104 98.9943,107.654 97.8923,109.045 C96.1233,111.255 95.0283,114.015 94.3083,116.854 C94.2733,116.999 94.2393,117.144 94.2033,117.283 C93.9673,118.28 93.8773,119.031 93.9543,119.658 C94.0153,120.285 94.3643,120.802 94.8043,120.906 C95.1293,120.99 95.4563,120.924 95.7853,120.798 L95.6893,120.124 L95.7853,120.798 C98.3293,119.762 101.1713,116.591 102.3603,113.423 C102.4703,113.13 102.5603,112.844 102.6323,112.558 C103.2483,110.117 102.6143,107.826 101.0933,107.374" id="Fill-30" fill="#FEFEFE"></path>
                        <path d="M93.4687,121.2846 C92.4387,123.3216 89.1227,125.7406 86.4307,126.3986 C86.1957,126.4596 85.9697,126.5046 85.7447,126.5356 C83.8087,126.8016 82.5207,126.0826 82.3907,125.2646 C82.3117,124.7496 82.6177,124.0376 83.8587,123.2326 C85.9597,121.8716 88.5207,121.1366 91.2267,120.7536 C91.3637,120.7356 91.5037,120.7156 91.6427,120.6966 C92.5187,120.5836 93.0857,120.6106 93.3437,120.6796 C93.5997,120.7626 93.5517,120.7616 93.5887,120.8456 C93.6007,120.9156 93.5757,121.0726 93.4687,121.2846 M93.8497,119.6526 C93.2407,119.5066 92.4967,119.5146 91.4937,119.6366 C91.3507,119.6566 91.2057,119.6756 91.0587,119.6956 C88.1957,120.1016 85.3657,120.8936 83.0007,122.4256 C81.5117,123.3816 80.8457,124.4756 81.0017,125.4616 C81.2747,127.0436 83.4487,127.9376 85.9107,127.5926 C86.1977,127.5536 86.4937,127.4936 86.7897,127.4176 C90.0297,126.5766 93.4627,124.0676 94.7637,121.6246 L94.1147,121.4556 L94.7637,121.6226 C94.9247,121.3086 95.0277,120.9856 94.9777,120.6486 C94.9267,120.1956 94.4587,119.7826 93.8497,119.6526" id="Fill-32" fill="#FEFEFE"></path>
                        <path d="M66.2158,87.769 C65.6608,89.071 65.1668,90.368 65.0678,90.583 C63.8568,93.288 62.8308,96.793 60.8648,98.7 C60.8018,98.76 60.7388,98.821 60.6778,98.876 C59.6318,99.783 58.7988,99.586 58.1028,98.927 C57.6158,98.421 57.3448,97.619 57.4888,96.79 C57.7358,95.295 58.7318,93.54 59.7838,92.193 C60.4648,91.312 61.3148,90.336 62.2588,89.409 C62.2778,89.39 62.2928,89.374 62.3118,89.357 C63.7708,87.92 65.4638,86.619 67.0508,85.946 C66.7708,86.502 66.4958,87.131 66.2158,87.769 L66.2158,87.769 Z M68.7098,84.083 C68.6968,84.083 68.6878,84.085 68.6758,84.089 C68.3948,84.119 68.1148,84.174 67.8438,84.244 L67.9028,84.578 L67.8438,84.244 C65.5168,84.833 63.2408,86.576 61.3378,88.441 C60.3358,89.424 59.4428,90.45 58.7218,91.382 C57.5808,92.861 56.4648,94.746 56.1318,96.645 C55.9168,97.93 56.3218,99.129 57.0818,99.929 C58.0928,101.051 60.0198,101.327 61.5578,99.885 C61.6378,99.811 61.7138,99.735 61.7868,99.665 C64.1608,97.301 65.1398,93.625 66.3128,91.091 C66.4678,90.743 66.9228,89.532 67.4708,88.244 C67.9808,87.014 68.6728,85.667 68.9308,85.424 C68.9388,85.417 68.9408,85.415 68.9428,85.413 L68.9428,85.411 L68.7598,85.217 L68.7098,84.083 Z" id="Fill-34" fill="#FEFEFE"></path>
                        <path d="M72.5302,98.3168 C72.5132,98.3958 72.5032,98.4698 72.4862,98.5448 C72.1962,99.7308 71.4352,99.9998 70.5102,99.8648 C69.8392,99.7348 69.1562,99.2818 68.7872,98.5998 C68.1102,97.3788 67.8632,95.5938 67.8992,94.0798 C67.9162,93.0938 68.0102,91.9518 68.2042,90.7968 C68.2102,90.7758 68.2122,90.7558 68.2152,90.7348 C68.5162,88.9508 69.0782,87.1498 69.9212,85.8598 C70.0252,86.4128 70.1802,87.0108 70.3312,87.6178 C70.6562,88.8528 71.0292,90.0518 71.0772,90.2568 C71.7082,92.8508 72.9502,95.9358 72.5302,98.3168 M71.5852,87.3438 C71.2662,86.1838 71.0202,84.8518 71.0802,84.5428 C71.0862,84.5338 71.0862,84.5278 71.0842,84.5278 L71.0832,84.5268 L70.8262,84.4748 L70.1262,83.6678 C70.1192,83.6728 70.1132,83.6788 70.1032,83.6878 C69.9062,83.8538 69.7172,84.0318 69.5462,84.2158 L69.7892,84.4328 L69.5462,84.2158 C68.0792,85.8148 67.3202,88.2268 66.9222,90.5478 C66.7192,91.7658 66.6202,92.9658 66.6002,94.0108 C66.5742,95.6688 66.8032,97.6118 67.6492,99.1708 C68.2262,100.2208 69.2412,100.9008 70.2992,101.1088 C71.7382,101.4308 73.3982,100.6718 73.7582,98.8418 C73.7802,98.7478 73.7942,98.6568 73.8092,98.5678 C74.2782,95.6488 72.9042,92.4598 72.3402,90.0118 C72.2602,89.6788 71.9092,88.5658 71.5852,87.3438" id="Fill-36" fill="#FEFEFE"></path>
                        <path d="M87.9238,87.5063 C87.8428,87.5063 87.7608,87.5093 87.6788,87.5083 C85.0998,87.4903 82.1128,85.4803 79.5238,84.2503 C79.3168,84.1563 78.1328,83.4963 76.9068,82.8843 C76.2978,82.5903 75.7028,82.2993 75.1458,82.0693 C76.6638,81.3953 78.6608,81.1393 80.5888,81.1693 L80.6558,81.1693 C81.9058,81.1893 83.1208,81.3163 84.1568,81.4993 C85.7528,81.7703 87.5748,82.4063 88.7168,83.4073 C89.3598,83.9593 89.6978,84.8073 89.6978,85.5783 C89.6588,86.6353 89.2258,87.4303 87.9238,87.5063 M84.3458,80.0433 C83.2458,79.8523 81.9708,79.7173 80.6518,79.6953 C78.1388,79.6643 75.4608,80.0143 73.4958,81.3193 L73.6748,81.6323 L73.4958,81.3193 C73.2688,81.4723 73.0438,81.6433 72.8298,81.8293 C72.8228,81.8373 72.8128,81.8443 72.8058,81.8513 L73.5128,82.7933 L73.5128,83.0903 L73.5158,83.0903 C73.5178,83.0903 73.5228,83.0903 73.5328,83.0893 C73.8668,83.0843 75.2158,83.6313 76.3658,84.2223 C77.5808,84.8283 78.6798,85.4483 79.0108,85.6053 C81.4648,86.7303 84.5338,88.9093 87.6838,88.9823 C87.7788,88.9833 87.8818,88.9823 87.9838,88.9833 C89.9718,88.9553 91.0978,87.2603 91.0458,85.5993 C91.0388,84.3833 90.5288,83.1163 89.5438,82.2603 C88.0758,80.9983 86.0868,80.3493 84.3458,80.0433" id="Fill-38" fill="#FEFEFE"></path>
                        <path d="M84.9843,94.7758 C84.4523,95.6338 83.6873,96.0728 82.4833,95.4688 C82.4133,95.4298 82.3413,95.3878 82.2653,95.3438 C79.9643,94.0088 78.2343,90.7998 76.4873,88.4468 C76.3453,88.2598 75.5973,87.1048 74.7833,85.9638 C74.3803,85.4068 73.9813,84.8588 73.5893,84.3828 C75.2683,84.5988 77.1813,85.4118 78.8953,86.4258 C78.9163,86.4388 78.9363,86.4528 78.9563,86.4628 C80.0643,87.1198 81.0953,87.8498 81.9403,88.5348 C83.2413,89.5788 84.5743,91.0438 85.1273,92.4628 C85.4423,93.2528 85.3483,94.1318 84.9843,94.7758 M82.7943,87.4158 C81.8983,86.6938 80.8193,85.9258 79.6433,85.2318 C77.4073,83.9168 74.8423,82.8328 72.4673,82.9118 L72.4793,83.2628 L72.4673,82.9118 C72.1883,82.9198 71.9073,82.9498 71.6293,82.9938 C71.6163,82.9968 71.6063,82.9988 71.5963,83.0008 L71.7873,84.1448 L71.6503,84.3948 L71.6523,84.3958 C71.6523,84.3958 71.6573,84.3998 71.6653,84.4048 C71.9663,84.5688 72.9193,85.7178 73.6733,86.8008 C74.4753,87.9298 75.1683,89.0088 75.3923,89.3138 C77.0613,91.5078 78.7863,94.8988 81.5773,96.5758 C81.6643,96.6278 81.7533,96.6778 81.8463,96.7308 C83.6423,97.7258 85.4463,96.8958 86.1813,95.4838 C86.7503,94.4678 86.8883,93.1508 86.4073,91.9288 C85.6873,90.1298 84.2083,88.5658 82.7943,87.4158" id="Fill-40" fill="#FEFEFE"></path>
                        <g id="Group-44" transform="translate(70.000000, 83.559000)" fill="#FEFEFE">
                            <path d="M51.5488,57.4278 C51.5448,57.4268 50.8528,57.0948 49.5668,56.3638 C45.6998,54.1668 36.6848,48.4508 26.7788,38.0788 C18.4508,29.3608 9.4968,17.3548 2.4318,1.3718 C2.2458,0.9478 1.7648,0.7428 1.3568,0.9098 C0.9478,1.0788 0.7698,1.5608 0.9568,1.9858 C8.1098,18.1728 17.1918,30.3548 25.6398,39.1978 C39.0428,53.2298 50.8528,58.8858 50.9168,58.9188 C51.2348,59.0688 51.5888,59.0038 51.8138,58.7838 C51.8848,58.7148 51.9418,58.6258 51.9848,58.5338 C52.1568,58.1198 51.9648,57.6288 51.5488,57.4278" id="Fill-42"></path>
                        </g>
                        <g id="Group-47" transform="translate(0.000000, 69.559000)">
                            <mask id="mask-4" fill="white">
                                <use xlink:href="#path-3"></use>
                            </mask>
                            <g id="Clip-46"></g>
                            <path d="M23.5957,11.9014 C14.4327,10.8964 7.7267,9.7584 5.1707,9.2984 C5.1157,9.2634 5.0637,9.2284 5.0067,9.1954 C17.1997,8.1444 29.7977,8.9084 41.9777,9.7214 C45.8147,9.9744 49.6427,10.3204 53.4477,10.8194 C56.9407,11.2774 60.4087,11.9094 63.8127,12.7884 C64.5217,12.9714 65.2137,13.1654 65.8827,13.4114 C50.3287,14.1934 35.0677,13.1584 23.5957,11.9014 M63.9827,15.1494 C47.2417,19.3134 32.6847,18.0724 22.2047,15.7094 C16.7587,14.4794 12.4117,12.9554 9.4327,11.7394 C8.6027,11.4014 7.8907,11.0894 7.2797,10.8134 C15.9917,12.2664 40.0217,15.7404 65.0667,14.5904 C64.7107,14.7784 64.3467,14.9654 63.9827,15.1494 M13.2417,16.4554 C11.9547,15.5764 10.7347,14.3064 9.4457,13.0054 C17.9047,16.3944 36.1307,21.7884 59.0487,17.4504 C44.3887,23.6584 26.5037,25.8214 13.2417,16.4554 M3.6227,8.1774 C9.4767,3.9164 19.2497,2.1544 26.2187,2.2814 C38.5767,2.4684 52.8847,4.8284 63.5877,11.5734 C60.2867,10.7434 56.9347,10.1344 53.5677,9.6924 C49.7317,9.1924 45.8817,8.8424 42.0277,8.5864 C29.4237,7.7464 16.3177,6.9524 3.6227,8.1774 M66.8747,11.9724 C66.2047,11.4444 65.6697,11.0034 65.4827,10.8744 C54.2387,3.3434 39.1457,0.8634 26.2107,0.6544 C18.3817,0.5514 7.3687,2.5364 1.1877,8.0374 L-0.0003,9.1054 L1.5727,9.4504 C2.5127,9.6384 3.3877,10.0484 4.2337,10.5894 C4.2577,10.6114 4.2797,10.6404 4.3107,10.6574 C4.3137,10.6584 4.3757,10.6944 4.4737,10.7464 C7.1547,12.5684 9.5137,15.7374 12.3507,17.7884 C28.5057,29.0894 50.4187,24.3044 66.2737,15.7964 C66.3297,15.7824 66.3747,15.7434 66.4237,15.7114 C68.4357,14.3834 69.2687,13.8544 66.8747,11.9724" id="Fill-45" fill="#FEFEFE" mask="url(#mask-4)"></path>
                        </g>
                        <path d="M65.4277,69.1508 C63.7597,65.7058 61.9567,62.3198 60.0737,58.9738 C53.9167,48.0318 47.4487,36.6908 39.5197,26.6368 C46.2597,29.5458 53.0467,36.9028 56.7347,42.7968 C63.3007,53.2288 69.1157,66.3058 69.3107,78.4188 C68.2067,75.2668 66.8897,72.1748 65.4277,69.1508 M47.2797,45.0938 C43.1337,36.9528 40.4347,30.8068 39.4267,28.4538 C39.4267,28.3918 39.4257,28.3328 39.4257,28.2708 C46.9357,37.9838 53.1527,48.8878 59.0997,59.4618 C60.9747,62.7938 62.7677,66.1568 64.4227,69.5778 C65.9407,72.7148 67.3007,75.9128 68.4207,79.1728 C68.6547,79.8518 68.8677,80.5248 69.0267,81.1968 C59.9107,68.5428 52.4717,55.2848 47.2797,45.0938 M66.5427,80.4188 C53.9597,68.3508 47.0787,55.5848 43.3477,45.7098 C41.4087,40.5758 40.3207,36.2248 39.7117,33.1638 C39.5437,32.3078 39.4137,31.5668 39.3137,30.9298 C42.8377,38.9008 53.0147,60.6388 67.5997,81.0648 C67.2457,80.8558 66.8947,80.6368 66.5427,80.4188 M37.8487,38.5548 C37.8807,37.0668 38.2747,35.4528 38.6607,33.7688 C40.4347,42.4288 45.8527,60.2068 61.9377,77.3648 C48.7847,67.9928 37.2497,54.0318 37.8487,38.5548 M38.3127,24.5338 L36.7777,24.0358 L37.3457,25.5158 C37.6987,26.3868 37.8327,27.3118 37.8377,28.2738 C37.8347,28.3058 37.8227,28.3368 37.8247,28.3698 C37.8267,28.3728 37.8317,28.4468 37.8417,28.5468 C37.7817,31.6438 36.4177,35.0968 36.2527,38.4288 C35.7207,53.9998 46.7007,68.0968 58.6087,76.9118 C60.3137,78.1758 62.0957,79.3248 63.9257,80.3848 C65.7077,81.4188 70.3637,85.6748 70.7667,81.3558 C70.8437,80.5488 70.9207,79.8938 70.9277,79.6758 C71.0927,66.7458 64.9487,52.9538 58.0857,42.0288 C53.9127,35.4268 46.2667,27.1348 38.3127,24.5338" id="Fill-48" fill="#FEFEFE"></path>
                        <path d="M98.1679,42.3334 C93.5449,55.2604 85.9719,69.4554 75.1569,78.2714 C77.1979,75.1004 79.0299,71.7944 80.6919,68.4144 C82.5889,64.5624 84.3299,60.6374 85.9789,56.6784 C91.3639,43.7274 96.8849,30.2314 100.1679,16.4374 C102.4809,24.1344 100.7989,35.0494 98.1679,42.3334 L98.1679,42.3334 Z M72.4309,80.0224 C77.1979,63.3824 83.7389,47.7064 89.1549,36.0974 C93.4789,26.8234 97.0629,20.1814 98.4549,17.6584 C98.5109,17.6154 98.5669,17.5704 98.6199,17.5274 C95.3359,30.7264 90.0279,43.7034 84.8189,56.2144 C83.1809,60.1584 81.4519,64.0574 79.5709,67.8804 C77.8439,71.3884 75.9459,74.8074 73.8199,78.0684 C73.3739,78.7504 72.9249,79.4084 72.4309,80.0224 L72.4309,80.0224 Z M71.5039,78.7364 C71.4369,78.2944 71.3739,77.8454 71.3129,77.3954 C73.0059,58.2834 79.5109,43.4254 85.7129,33.2584 C88.9399,27.9744 92.0739,23.9534 94.3999,21.2614 C95.0499,20.5104 95.6269,19.8744 96.1339,19.3344 C91.5019,27.9664 79.2929,51.9824 71.5039,78.7364 L71.5039,78.7364 Z M70.7019,71.3734 C69.5339,53.7144 73.7059,34.1234 88.1549,23.5624 C89.5289,22.5274 91.2769,21.7004 93.0859,20.8174 C86.5469,28.4844 74.4309,45.7074 70.7019,71.3734 L70.7019,71.3734 Z M100.5099,12.2944 L99.5899,13.8244 C99.0559,14.7404 98.3189,15.5164 97.4539,16.2074 C97.4229,16.2264 97.3869,16.2374 97.3569,16.2644 C97.3569,16.2674 97.2929,16.3224 97.2059,16.4044 C94.3619,18.5654 90.2339,19.8994 87.0969,22.1454 C69.6079,35.0464 66.6999,59.8234 69.8209,79.5684 C69.8179,79.6334 69.8389,79.6944 69.8559,79.7574 C70.5469,82.4494 71.1359,83.3624 73.6029,81.6444 C74.3499,81.1224 75.0909,80.6024 75.2049,80.5194 C87.0269,71.4174 95.0039,56.4384 99.8549,42.9124 C102.7699,34.7174 104.6639,22.4164 101.1879,13.9284 L100.5099,12.2944 Z" id="Fill-50" fill="#FEFEFE"></path>
                        <path d="M68.249,79.8471 C66.063,80.9671 65.025,83.3131 65.936,85.0901 C66.845,86.8681 69.354,87.3991 71.539,86.2801 C73.728,85.1591 74.764,82.8111 73.853,81.0341 C72.944,79.2591 70.436,78.7261 68.249,79.8471" id="Fill-52" fill="#FEFEFE"></path>
                    </g>
                    <g id="Group-19" fill="#FFFFFF">
                        <path d="M14.09,70.01 C12.69,69.24 11.29,68.89 9.96,68.89 C4.08,68.89 0.02,74.98 0.02,81.42 C0.02,91.57 7.02,98.36 16.26,98.36 C39.64,98.36 41.11,74.77 41.6,54.61 C44.54,54.4 47.62,54.12 50.7,53.84 C48.18,59.65 46.57,66.44 46.57,73.93 C46.57,125.45 91.09,126.92 91.09,102.77 C91.09,96.89 87.52,93.74 84.09,93.74 C83.04,93.74 81.99,94.02 81.01,94.65 L81.08,95.21 C81.99,94.58 83.04,94.3 84.02,94.3 C86.96,94.3 89.69,96.82 89.69,99.97 C89.69,104.94 86.82,107.04 82.83,107.04 C74.22,107.04 60.57,94.72 60.57,67.35 C60.57,62.52 60.92,57.2 61.76,52.16 C70.58,50.2 77.3,46.42 77.3,38.09 C77.3,34.66 75.48,32.07 72.61,32.07 C67.01,32.07 56.86,40.12 50.98,53.14 C47.83,53.49 44.68,53.77 41.6,53.98 C41.67,49.36 41.74,44.88 42.02,41.03 C46.99,36.97 50.91,31.93 50.91,28.29 C50.91,23.74 43.56,24.44 40.27,33.82 C39.57,35.85 38.87,39.14 38.1,43.06 C34.25,45.65 30.19,47.4 27.04,47.4 C15.42,47.4 17.17,34.24 24.66,34.24 C26.06,34.24 27.81,34.8 29,36.34 L29.07,35.78 C27.88,34.31 26.34,33.61 24.59,33.61 C21.09,33.61 18.01,36.83 18.01,40.61 C18.01,44.25 20.46,48.03 26.97,48.03 C30.12,48.03 34.11,46.42 37.89,43.97 C37.26,47.19 36.63,50.76 35.86,54.54 C26.97,55.52 20.18,57.27 20.18,62.52 C20.18,64.83 22,67.49 25.01,67.49 C26.62,67.49 28.02,66.79 29.56,64.9 L29.49,64.27 C27.95,66.3 26.41,66.86 25.08,66.86 C22.56,66.86 20.81,64.83 20.81,62.52 C20.81,57.69 27.18,56.08 35.72,55.17 C32.08,72.04 25.99,91.85 12.55,91.85 C4.01,91.85 0.79,85.55 0.79,80.93 C0.79,75.4 4.85,69.52 9.89,69.52 C11.15,69.52 12.55,69.87 14.02,70.57 L14.09,70.01 Z M76.67,38.02 C76.67,45.93 70.3,49.57 61.83,51.46 C63.58,41.45 67.01,32.84 72.61,32.84 C74.92,32.84 76.67,35.15 76.67,38.02 L76.67,38.02 Z M43,33.61 C45.31,23.95 50.28,25.49 50.28,28.22 C50.28,31.44 46.71,36.13 42.09,40.05 C42.23,37.67 42.51,35.5 43,33.61 L43,33.61 Z M90.04,53.14 C78.14,53.14 70.37,67.07 70.37,78.2 C70.37,85.55 73.87,91.64 82.48,91.64 C86.89,91.64 90.32,89.68 92.98,86.53 C93.4,90.52 96.69,91.92 100.05,91.92 C105.72,91.92 109.5,87.65 110.27,80.72 L109.64,80.72 C109.15,86.6 105.51,90.45 103.41,90.45 C101.8,90.45 101.38,89.75 101.38,88 C101.38,86.04 108.1,59.09 109.43,52.3 L108.87,52.3 L108.31,54.96 C106.07,55.8 105.02,55.94 103.76,55.94 C102.15,55.94 101.03,55.45 99.49,54.68 C99.21,55.94 98.86,57.83 98.3,60.07 C97.04,55.45 94.24,53.14 90.04,53.14 L90.04,53.14 Z M92.91,85.76 C90.95,88.21 89.06,89.12 87.1,89.12 C82.2,89.12 80.1,84.22 80.1,77.64 C80.1,67.14 85.28,54.05 91.09,54.05 C94.45,54.05 96.9,56.57 98.09,61.12 C95.99,70.5 92.7,82.82 92.91,85.76 L92.91,85.76 Z M146.6,60.07 C146.6,55.1 143.31,53.21 139.18,53.21 C134.42,53.21 128.82,55.73 126.02,58.88 C125.53,54.33 121.96,53.21 118.46,53.21 C114.89,53.21 110.97,54.61 109.01,57.69 L109.64,57.83 C110.9,56.08 113.07,54.61 115.1,54.61 C116.36,54.61 117.27,55.66 117.27,57.13 C117.27,61.96 111.25,86.39 109.92,93.18 L110.48,93.18 L111.04,90.45 C112.58,89.89 114.33,89.54 115.59,89.54 C117.2,89.54 118.32,90.03 119.86,90.8 C121.12,84.99 126.09,63.57 126.09,59.93 L126.09,59.65 C127.98,57.55 131.27,55.31 133.79,55.31 C135.68,55.31 137.15,56.5 137.15,59.51 C137.15,66.16 132.6,77.15 132.6,84.5 C132.6,89.4 136.1,91.78 139.88,91.78 C144.64,91.78 148.98,88 149.61,80.44 L149.05,80.44 C148.49,87.58 144.57,90.31 142.96,90.31 C141.7,90.31 140.51,89.54 140.51,87.23 C140.51,82.26 146.6,64.83 146.6,60.07 L146.6,60.07 Z M186.43,60.07 C186.43,55.1 183.14,53.21 179.01,53.21 C174.25,53.21 168.65,55.73 165.85,58.88 C165.36,54.33 161.79,53.21 158.29,53.21 C154.72,53.21 150.8,54.61 148.84,57.69 L149.47,57.83 C150.73,56.08 152.9,54.61 154.93,54.61 C156.19,54.61 157.1,55.66 157.1,57.13 C157.1,61.96 151.08,86.39 149.75,93.18 L150.31,93.18 L150.87,90.45 C152.41,89.89 154.16,89.54 155.42,89.54 C157.03,89.54 158.15,90.03 159.69,90.8 C160.95,84.99 165.92,63.57 165.92,59.93 L165.92,59.65 C167.81,57.55 171.1,55.31 173.62,55.31 C175.51,55.31 176.98,56.5 176.98,59.51 C176.98,66.16 172.43,77.15 172.43,84.5 C172.43,89.4 175.93,91.78 179.71,91.78 C184.47,91.78 188.81,88 189.44,80.44 L188.88,80.44 C188.32,87.58 184.4,90.31 182.79,90.31 C181.53,90.31 180.34,89.54 180.34,87.23 C180.34,82.26 186.43,64.83 186.43,60.07 L186.43,60.07 Z M210.3,53.14 C198.4,53.14 190.63,67.07 190.63,78.2 C190.63,85.55 194.13,91.64 202.74,91.64 C207.15,91.64 210.58,89.68 213.24,86.53 C213.66,90.52 216.95,91.92 220.31,91.92 C225.98,91.92 229.76,87.65 230.53,80.72 L229.9,80.72 C229.41,86.6 225.77,90.45 223.67,90.45 C222.06,90.45 221.64,89.75 221.64,88 C221.64,86.04 228.36,59.09 229.69,52.3 L229.13,52.3 L228.57,54.96 C226.33,55.8 225.28,55.94 224.02,55.94 C222.41,55.94 221.29,55.45 219.75,54.68 C219.47,55.94 219.12,57.83 218.56,60.07 C217.3,55.45 214.5,53.14 210.3,53.14 L210.3,53.14 Z M213.17,85.76 C211.21,88.21 209.32,89.12 207.36,89.12 C202.46,89.12 200.36,84.22 200.36,77.64 C200.36,67.14 205.54,54.05 211.35,54.05 C214.71,54.05 217.16,56.57 218.35,61.12 C216.25,70.5 212.96,82.82 213.17,85.76 L213.17,85.76 Z M219.05,20.31 C219.05,23.39 221.22,25.35 223.81,25.35 C227.1,25.35 229.27,22.27 229.27,19.12 C229.27,16.25 227.03,13.8 224.23,13.8 C217.79,13.8 215.13,20.8 215.13,26.19 C215.13,35.15 221.85,45.93 239.7,49.36 C236.97,63.29 231.23,88.07 230.25,93.18 L230.81,93.18 L231.37,90.45 C232.91,89.89 234.66,89.54 235.92,89.54 C237.53,89.54 238.51,90.03 240.05,90.8 C240.75,87.44 243.97,73.23 246.49,61.26 C248.31,59.02 251.88,56.5 254.54,56.5 C256.43,56.5 257.9,57.69 257.9,60.7 C257.9,67.35 253.35,78.34 253.35,85.69 C253.35,90.59 256.85,92.97 260.63,92.97 C265.39,92.97 269.73,89.19 270.36,81.63 L269.8,81.63 C269.24,88.77 265.32,91.5 263.71,91.5 C262.45,91.5 261.26,90.73 261.26,88.42 C261.26,83.45 267.35,66.02 267.35,61.26 C267.35,56.29 264.06,54.4 259.93,54.4 C255.17,54.4 249.57,56.92 246.77,60.07 C247.54,56.5 248.17,53.14 248.73,50.34 C249.78,50.41 250.83,50.41 251.95,50.41 C279.11,50.41 300.74,27.17 300.74,12.33 C300.74,5.33 295.98,0.22 284.78,0.22 C275.47,0.22 254.54,8.76 249.5,40.89 C248.52,37.18 245.37,36.13 242.64,36.13 C238.72,36.13 234.87,37.6 232.91,40.68 L233.54,40.82 C235.22,38.65 237.04,37.67 238.37,37.67 C239.98,37.67 241.17,38.37 241.17,40.12 C241.17,41.24 240.61,44.46 239.84,48.59 C222.41,45.3 215.9,34.87 215.9,26.33 C215.9,20.31 218.42,16.67 221.29,15.2 C219.82,16.46 219.05,18.49 219.05,20.31 L219.05,20.31 Z M249.85,43.62 C252.86,19.89 264.97,8.41 274.84,8.41 C280.86,8.41 285.62,12.61 285.62,20.59 C285.62,39.7 264.9,49.64 251.95,49.64 C250.9,49.64 249.85,49.64 248.87,49.57 C249.43,46.63 249.85,44.46 249.85,43.62 L249.85,43.62 Z" id="Hannah"></path>
                        <path d="M133.48,145.8 C131.64,142.28 131.4,139.32 131.4,137.48 C131.4,123.88 149.96,121 162.12,116.84 C159.88,123.88 157.8,133.48 155.32,143.08 C151,143.32 148.84,145.72 148.84,148.68 C148.84,150.52 150.04,152.28 152.04,153.24 C144.68,171.48 132.28,178.36 123.56,178.36 C117.8,178.36 113.64,175.32 113.64,170.6 C113.64,166.6 117.88,163.32 122.52,163.32 C124.28,163.32 126.04,163.72 127.64,164.76 L127.8,164.12 C126.12,163 124.28,162.68 122.44,162.68 C116.12,162.68 110.04,168.68 110.04,176.12 C110.04,187.64 120.6,196.84 131.96,196.84 C144.52,196.84 158.12,185.64 159.88,153.96 C163,153.56 165.56,152.6 167.8,151.24 C169.56,156.76 169.08,165.24 169.08,176.52 C169.08,213.24 186.12,223.96 202.92,223.96 C221.72,223.96 235.48,211.48 235.48,196.2 C235.48,190.84 233.56,185.4 229.56,180.76 L228.92,180.92 C232.76,185.4 234.6,190.44 234.6,195.16 C234.6,201.16 227.64,203.24 223.64,203.24 C184.76,203.24 182.68,165.72 169.8,149.88 C180.92,141.08 181.56,121.88 189,121.88 C191.24,121.88 192.28,123.16 192.28,124.68 C192.28,127 190.52,129.72 186.92,129.96 L186.92,130.68 C191.32,130.28 193.8,126.12 193.8,122.44 C193.8,118.76 191.4,114.44 186.28,114.44 C170.76,114.44 176.12,137.4 168.12,148.04 C165.88,145.8 163.32,144.2 160.2,143.48 C160.44,133.96 161.8,123.56 163.8,116.2 C168.92,114.36 172.52,112.12 172.52,108.44 C172.52,106.52 171,105.56 169.88,105.56 C166.92,105.56 164.6,109.64 162.52,115.8 C150.36,119.96 130.6,122.92 130.6,137.48 C130.6,140.76 131.4,143.56 132.84,145.96 L133.48,145.8 Z M159.96,153 C160.04,151.08 160.12,149 160.12,146.84 L160.12,144.2 C163.56,144.92 165.72,146.68 167,149.4 C165.24,151.16 163,152.44 159.96,153 L159.96,153 Z M169.88,106.2 C170.92,106.2 171.8,106.84 171.8,108.28 C171.8,111.4 168.6,113.48 164.12,115.16 C165.72,109.8 167.72,106.2 169.88,106.2 L169.88,106.2 Z M149.64,148.6 C149.64,146.2 151.56,144.04 155.16,143.8 C155.08,143.96 155.08,144.04 155.08,144.12 C154.28,147.16 153.4,149.96 152.36,152.52 C150.6,151.72 149.64,150.28 149.64,148.6 L149.64,148.6 Z M216.28,141.08 C188.28,141.08 182.04,185.16 205.4,185.16 C214.28,185.16 220.92,181.4 224.84,171.4 L224.2,171.4 C220.6,179.56 216.68,182.04 212.2,182.04 C205.56,182.04 202.52,176.12 202.12,168.84 C217.56,167.48 225.64,157.24 225.64,149.56 C225.64,144.84 222.6,141.08 216.28,141.08 L216.28,141.08 Z M217.16,142.04 C222.28,142.04 224.84,145.24 224.84,149.4 C224.84,156.6 217.16,166.76 202.04,168.12 C201.72,156.6 207.88,142.04 217.16,142.04 L217.16,142.04 Z M214.12,104.36 C214.12,107.88 216.6,110.12 219.56,110.12 C223.32,110.12 225.8,106.6 225.8,103 C225.8,99.72 223.24,96.92 220.04,96.92 C212.68,96.92 209.64,104.92 209.64,111.08 C209.64,121.32 217.24,133.64 237.56,137.56 C234.28,152.36 228.44,174.44 228.44,178.76 C228.44,184.36 232.68,185.96 237,185.96 C241.96,185.96 247.64,182.04 248.52,173.24 L247.8,173.24 C247.4,179.4 243,184.28 240.36,184.28 C238.92,184.28 237.88,184.04 237.88,181.08 C237.88,178.04 244.6,153.56 247.88,138.68 C249.16,138.76 250.36,138.76 251.72,138.76 C282.76,138.76 307.48,112.2 307.48,95.24 C307.48,87.24 302.04,81.4 289.24,81.4 C278.84,81.4 255.72,90.76 249.32,125.56 C248.28,121.8 244.92,120.28 241.24,120.28 C236.76,120.28 232.12,122.28 230.2,124.76 L230.6,125.16 C232.36,123.16 235,121.8 237.32,121.8 C238.84,121.8 239.72,122.84 239.72,125 C239.72,127 238.92,131.24 237.72,136.68 C217.96,132.84 210.52,121 210.52,111.24 C210.52,104.36 213.4,100.2 216.68,98.52 C215,99.96 214.12,102.28 214.12,104.36 L214.12,104.36 Z M249.72,128.28 C253.72,103 267,90.76 277.88,90.76 C284.76,90.76 290.2,95.56 290.2,104.68 C290.2,126.52 266.52,137.88 251.72,137.88 C250.44,137.88 249.24,137.88 248.12,137.8 C249.08,133.4 249.72,129.96 249.72,128.28 L249.72,128.28 Z M280.84,142.04 C277,142.04 274.68,145.96 274.68,149.4 C274.68,153 277,155.08 279.88,155.08 C282.04,155.08 284.6,153.88 286.52,151.16 C286.12,165.8 273.64,183.8 265.24,183.8 C263,183.8 262.44,182.28 262.44,179.32 C262.44,173.4 270.12,157 270.12,149.96 C270.12,144.12 266.12,141.96 261.64,141.96 C256.92,141.96 252.28,144.12 250.52,146.84 L251.24,146.84 C251.96,145.64 255.24,143.24 257.72,143.24 C259.24,143.24 260.12,143.96 260.12,146.12 C260.12,154.04 252.44,168.84 252.44,176.44 C252.44,182.84 257.24,185.16 263.96,185.16 C272.52,185.16 287.4,168.52 287.4,149.8 C287.4,145.88 284.84,142.04 280.84,142.04 L280.84,142.04 Z M309,148.84 C309,143 305,140.84 300.52,140.84 C295.48,140.84 291.16,143.16 289.4,145.72 L290.12,145.72 C291.56,143.8 294.68,142.12 296.6,142.12 C298.12,142.12 299,142.84 299,145 C299,152.6 292.92,168.84 292.92,176.44 C292.92,181.8 296.68,185.16 301.8,185.16 C307.08,185.16 311.96,180.84 313.08,172.36 L312.36,172.44 C311.88,179.8 306.44,184.04 304.6,184.04 C303.16,184.04 302.12,182.84 302.12,179.88 C302.12,173.4 309,155.88 309,148.84 L309,148.84 Z M308.68,122.92 C304.36,122.92 302.12,126.76 302.12,130.28 C302.12,133.8 304.6,136.04 307.56,136.04 C311.32,136.04 313.8,132.52 313.8,128.92 C313.8,125.88 311.72,122.92 308.68,122.92 L308.68,122.92 Z M354.6,149.08 C354.6,143.4 350.84,141.24 346.12,141.24 C340.68,141.24 334.28,144.12 331.08,147.72 C330.52,142.52 326.44,141.24 322.44,141.24 C318.36,141.24 313.88,142.84 311.64,146.36 L312.36,146.52 C313.8,144.52 316.28,142.84 318.6,142.84 C320.04,142.84 321.08,144.04 321.08,145.72 C321.08,151.24 314.2,179.16 312.68,186.92 L313.32,186.92 L313.96,183.8 C315.72,183.16 317.72,182.76 319.16,182.76 C321,182.76 322.28,183.32 324.04,184.2 C325.48,177.56 331.16,153.08 331.16,148.92 L331.16,148.6 C333.32,146.2 337.08,143.64 339.96,143.64 C342.12,143.64 343.8,145 343.8,148.44 C343.8,156.04 338.6,168.6 338.6,177 C338.6,182.6 342.6,185.32 346.92,185.32 C352.36,185.32 357.32,181 358.04,172.36 L357.4,172.36 C356.76,180.52 352.28,183.64 350.44,183.64 C349,183.64 347.64,182.76 347.64,180.12 C347.64,174.44 354.6,154.52 354.6,149.08 L354.6,149.08 Z" id="Kelvin"></path>
                        <path d="M104.725,126.75 C106.925,126.75 108.075,128.3 108.075,130.8 C108.075,134.4 105.725,139.75 101.975,143.9 C95.875,141.2 90.725,136.05 89.325,128.5 C94.275,124.7 99.475,121.3 99.475,117 C99.475,114.2 97.875,112.95 96.075,112.95 C91.775,112.95 88.475,118.6 88.475,124.9 C88.475,126.15 88.525,127.35 88.625,128.5 C84.175,132 80.025,135.9 80.025,141 C80.025,146.85 84.425,150.6 89.825,150.6 C92.325,150.6 94.775,149.8 96.975,148.55 C102.675,154.8 110.275,157.9 116.775,157.9 C126.025,157.9 132.375,150.65 132.375,143.45 C132.375,139.9 130.825,136.3 127.275,133.65 C127.275,142.05 120.275,146.1 112.275,146.1 C108.975,146.1 105.575,145.45 102.375,144.1 C106.175,139.85 108.525,134.5 108.525,130.8 C108.525,128.2 107.325,126.3 104.725,126.3 C102.975,126.3 101.275,127.7 101.275,130.2 L101.725,130.2 C101.775,127.7 103.475,126.75 104.725,126.75 L104.725,126.75 Z M89.825,150.1 C84.875,150.1 80.525,146.85 80.525,141 C80.525,136.1 84.425,132.4 88.675,129.05 C89.425,137.15 92.525,143.55 96.625,148.2 C94.525,149.35 92.225,150.1 89.825,150.1 L89.825,150.1 Z M88.975,124.3 C88.975,119.4 91.875,113.4 96.075,113.4 C97.825,113.4 99.025,114.65 99.025,117 C99.025,121 94.075,124.3 89.275,128 C89.075,126.85 88.975,125.6 88.975,124.3 L88.975,124.3 Z" id="&amp;"></path>
                    </g>
                </g>
            </g>
        </g>
    </g>
</svg>