<?xml version="1.0" encoding="utf-8"?>
<!-- Generator: Adobe Illustrator 19.1.0, SVG Export Plug-In . SVG Version: 6.00 Build 0)  -->
<svg version="1.1" id="Layer_1" xmlns="http://www.w3.org/2000/svg" xmlns:xlink="http://www.w3.org/1999/xlink" x="0px" y="0px"
	 viewBox="0 0 72 72" style="enable-background:new 0 0 72 72;" xml:space="preserve">
<style type="text/css">
	.st0{display:none;stroke:#000000;stroke-miterlimit:10;}
	.st1{fill:#FFFFFF;}
</style>
<rect x="0" y="-1" class="st0" width="72" height="73"/>
<g>
	<path class="st1" d="M51.1,33.6H20.9c-1.3,0-2.4,1.1-2.4,2.4v0c0,1.3,1.1,2.4,2.4,2.4h30.2c1.3,0,2.4-1.1,2.4-2.4v0
		C53.5,34.7,52.4,33.6,51.1,33.6z"/>
	<path class="st1" d="M51.1,45.1H20.9c-1.3,0-2.4,1.1-2.4,2.4v0c0,1.3,1.1,2.4,2.4,2.4h30.2c1.3,0,2.4-1.1,2.4-2.4v0
		C53.5,46.2,52.4,45.1,51.1,45.1z"/>
	<path class="st1" d="M51.1,22.1H20.9c-1.3,0-2.4,1.1-2.4,2.4v0c0,1.3,1.1,2.4,2.4,2.4h30.2c1.3,0,2.4-1.1,2.4-2.4v0
		C53.5,23.2,52.4,22.1,51.1,22.1z"/>
</g>
</svg>
